<?xml version="1.0" encoding="UTF-8"?>
<svg version="1.1" xmlns="http://www.w3.org/2000/svg" width="1024" height="1024">
<path d="M0 0 C1.75763672 -0.03673828 1.75763672 -0.03673828 3.55078125 -0.07421875 C11.92543201 -0.10241623 18.82563043 0.79248967 25 6.8125 C26.57720334 9.50688903 27.16256824 11.28726827 27.5 14.375 C24.30351061 24.10420541 14.97346229 32.12384027 6.5 37.375 C5.84 37.375 5.18 37.375 4.5 37.375 C5.16 39.685 5.82 41.995 6.5 44.375 C11.64185004 41.57275782 16.24201423 38.44576051 20.875 34.875 C29.27330174 28.49904169 37.79293205 22.32316093 46.5 16.375 C47.12632324 15.94574219 47.75264648 15.51648438 48.39794922 15.07421875 C50.12730181 13.90303667 51.87107845 12.75896313 53.625 11.625 C54.59695313 10.99078125 55.56890625 10.3565625 56.5703125 9.703125 C60.24977652 8.03510131 62.49430823 7.8279672 66.5 8.375 C68.97103382 9.78701932 70.93546784 11.11460756 73.125 12.875 C73.75398193 13.35767334 74.38296387 13.84034668 75.03100586 14.33764648 C76.42854757 15.41199515 77.82044708 16.49371123 79.20751953 17.58154297 C83.46037352 20.90864259 87.76678499 24.16606177 92.0625 27.4375 C93.40574341 28.46363403 93.40574341 28.46363403 94.77612305 29.51049805 C105.45760346 37.69374362 105.45760346 37.69374362 116.5 45.375 C117.35215088 45.98432373 118.20430176 46.59364746 119.08227539 47.22143555 C124.23906555 48.96197655 127.32708923 46.98001849 132.09375 44.75 C133.02515808 44.33697128 133.95656616 43.92394257 134.91619873 43.49839783 C137.95428422 42.14542411 140.97658276 40.7604008 144 39.375 C146.09495864 38.43584193 148.19099529 37.49908497 150.28808594 36.56469727 C154.4554139 34.70499659 158.61752149 32.83436373 162.77539062 30.95361328 C170.06644079 27.66066251 177.4023517 24.4765947 184.75 21.3125 C186.50425293 20.55271851 186.50425293 20.55271851 188.29394531 19.77758789 C196.43123844 16.25445497 204.58522228 12.77143266 212.75 9.3125 C214.31282715 8.65012329 214.31282715 8.65012329 215.90722656 7.97436523 C218.76819067 6.76653268 221.63360739 5.56988015 224.5 4.375 C225.40862793 3.98795898 226.31725586 3.60091797 227.25341797 3.20214844 C233.52343521 0.58702147 238.67089906 -0.92676508 245.5 0.375 C252.22869407 3.42534131 257.49067786 10.2619431 262.60546875 15.4765625 C265.50685243 18.4148402 268.56376966 21.12414818 271.70703125 23.80078125 C274.13234172 25.93019328 276.36477223 28.22754897 278.62402344 30.53027344 C280.44419118 32.32012084 282.31964907 33.99496188 284.25390625 35.66015625 C288.23542814 39.12262732 292.10038085 42.69141826 295.9375 46.3125 C296.95251587 47.26660767 296.95251587 47.26660767 297.98803711 48.23999023 C301.68777739 51.7191291 305.37995872 55.20622216 309.0703125 58.6953125 C309.82127197 59.40437744 310.57223145 60.11344238 311.34594727 60.84399414 C312.78275943 62.20104495 314.21822893 63.5595193 315.65209961 64.91967773 C319.41080047 68.46999347 323.22338531 71.88052255 327.24780273 75.12866211 C327.66102783 75.53995361 328.07425293 75.95124512 328.5 76.375 C328.5 77.035 328.5 77.695 328.5 78.375 C329.07234375 78.61863281 329.6446875 78.86226563 330.234375 79.11328125 C332.90433538 80.60017298 334.63829007 82.35583908 336.75 84.5625 C340.8276456 88.73342507 345.07175085 92.58415035 349.5 96.375 C351.17182371 97.80649905 352.83847993 99.24405444 354.5 100.6875 C355.263125 101.34363281 356.02625 101.99976563 356.8125 102.67578125 C358.5 104.375 358.5 104.375 358.5 106.375 C359.06460938 106.60960937 359.62921875 106.84421875 360.2109375 107.0859375 C363.03461756 108.6760645 364.89697373 110.65274824 367.125 113 C368.54510127 114.49558838 369.99594968 115.96386398 371.5 117.375 C372.16 117.375 372.82 117.375 373.5 117.375 C374.98046875 118.87890625 374.98046875 118.87890625 376.6875 120.9375 C380.88806249 125.87469558 385.08251798 130.76334532 390.5 134.375 C390.5 135.035 390.5 135.695 390.5 136.375 C391.07669434 136.62878418 391.65338867 136.88256836 392.24755859 137.14404297 C394.7565707 138.51521564 396.49077212 140.07844617 398.5390625 142.0703125 C399.28414062 142.78574219 400.02921875 143.50117188 400.796875 144.23828125 C402.35688221 145.75379161 403.91677693 147.26941778 405.4765625 148.78515625 C406.2190625 149.49800781 406.9615625 150.21085938 407.7265625 150.9453125 C408.40283691 151.60289551 409.07911133 152.26047852 409.77587891 152.93798828 C411.38197943 154.5884162 411.38197943 154.5884162 413.5 154.375 C419.46228338 159.51836735 421.80807228 164.87668397 423.5 172.375 C423.85156838 173.76628415 424.20595734 175.15685728 424.5625 176.546875 C424.9391478 178.05167185 425.31414096 179.5568838 425.6875 181.0625 C425.86692139 181.775271 426.04634277 182.48804199 426.23120117 183.22241211 C428.30685148 191.96044317 428.30685148 191.96044317 427.5 196.375 C421.85191909 203.45780992 410.3612538 206.83364527 402.3125 210.4375 C400.64888807 211.19084877 398.98564354 211.94500939 397.32275391 212.69995117 C393.16029566 214.58669339 388.99270824 216.46175898 384.82293701 218.33227539 C382.02674216 219.58743692 379.23286235 220.84768597 376.43913269 222.10832214 C366.59814074 226.54767748 356.73704216 230.94163621 346.8671875 235.31640625 C323.61177871 245.62447824 300.45093066 256.13456896 277.36889648 266.82519531 C271.50639197 269.53712665 265.63471642 272.22732617 259.75 274.890625 C259.08026657 275.19376617 258.41053314 275.49690735 257.72050476 275.80923462 C257.04276505 276.11598114 256.36502533 276.42272766 255.66674805 276.73876953 C240.62458947 283.54711844 225.65708973 290.49972805 210.72718811 297.5506134 C210.02830978 297.88066879 209.32943146 298.21072418 208.609375 298.55078125 C207.91698227 298.8778154 207.22458954 299.20484955 206.51121521 299.54179382 C199.9984775 302.61588784 193.47098627 305.65775635 186.9375 308.6875 C185.83011475 309.20119141 184.72272949 309.71488281 183.58178711 310.24414062 C177.56686874 313.0321497 171.54930375 315.81438092 165.5302124 318.59336853 C122.15133128 338.57965322 122.15133128 338.57965322 79.1875 359.4375 C78.3512207 359.85483398 77.51494141 360.27216797 76.65332031 360.70214844 C72.45766466 362.81770439 68.31916797 365.01203713 64.2109375 367.29296875 C63.34509033 367.76790771 62.47924316 368.24284668 61.5871582 368.73217773 C59.96425456 369.62751332 58.3498853 370.53859451 56.74682617 371.46899414 C53.06401041 373.50070764 51.0150644 374.3813851 46.71875 374.328125 C43.52833852 373.3833915 41.89525074 372.55518135 39.4375 370.375 C35.50362356 367.13175247 31.47920925 364.15369791 27.25 361.3125 C26.65952881 360.89419922 26.06905762 360.47589844 25.46069336 360.04492188 C22.76000832 358.25745108 21.2126082 357.23817047 17.95703125 357.86328125 C15.01635909 359.67256603 12.22231889 361.5812204 9.4375 363.625 C8.20260547 364.52321229 6.96687661 365.42027824 5.73046875 366.31640625 C5.05935059 366.80383301 4.38823242 367.29125977 3.69677734 367.79345703 C-0.42224952 370.75890002 -4.58846702 373.65716876 -8.75 376.5625 C-9.9721521 377.41666504 -9.9721521 377.41666504 -11.21899414 378.28808594 C-12.83124539 379.41482509 -14.44363112 380.54137185 -16.05615234 381.66772461 C-22.8409955 386.40762552 -29.61781535 391.15825289 -36.375 395.9375 C-79.06693385 426.08665115 -79.06693385 426.08665115 -87.5 425.375 C-90.640625 423.6875 -90.640625 423.6875 -93.75 421.375 C-94.59340942 420.75987549 -94.59340942 420.75987549 -95.45385742 420.13232422 C-97.14691367 418.89401547 -98.82372379 417.63588432 -100.5 416.375 C-102.26889808 415.08068433 -104.0396319 413.78887244 -105.8125 412.5 C-106.70710937 411.84515625 -107.60171875 411.1903125 -108.5234375 410.515625 C-112.62640227 407.56493642 -116.79584552 404.71565452 -120.96630859 401.86157227 C-133.34805101 393.38066997 -145.60746592 384.72247398 -157.85742188 376.05273438 C-162.87467804 372.50757937 -167.91657388 368.9990067 -172.96508789 365.49853516 C-181.72542628 359.42422085 -190.43999433 353.29900479 -199.06518555 347.03417969 C-204.80388686 342.86741452 -210.58573154 338.76534574 -216.38598633 334.68481445 C-220.79427025 331.58272679 -225.18406628 328.45653493 -229.5625 325.3125 C-234.41523695 321.83100787 -239.31764475 318.43008307 -244.25 315.0625 C-252.43963827 309.46591346 -260.47405014 303.66483372 -268.4921875 297.82617188 C-270.28627141 296.52947504 -272.0913812 295.2517293 -273.90625 293.984375 C-282.23137259 288.12098221 -286.57514113 282.91821193 -290.30078125 273.3984375 C-291.34791304 270.75843748 -292.50968799 268.2397666 -293.75 265.6875 C-296.08683053 260.45337958 -297.15842568 255.27207299 -295.875 249.625 C-292.97585271 244.88094079 -289.48379093 242.28652553 -284.828125 239.3984375 C-277.16210586 234.56648424 -269.68434952 229.46346486 -262.1875 224.375 C-260.66869331 223.34583876 -259.14981237 222.3167871 -257.63085938 221.2878418 C-248.35913909 215.00471605 -239.10272554 208.69944373 -229.85546875 202.38037109 C-224.48944471 198.71789559 -219.09963515 195.09393438 -213.6875 191.5 C-206.94794798 187.02435899 -200.24766898 182.4939429 -193.5625 177.9375 C-168.48488856 160.85438248 -143.3275593 143.88670016 -118.06036377 127.0852356 C-103.80509614 117.60442213 -89.61399247 108.02898663 -75.42773438 98.4453125 C-61.959374 89.34777093 -48.47513737 80.27492989 -34.875 71.375 C-34.03066406 70.81683594 -33.18632812 70.25867188 -32.31640625 69.68359375 C-31.08857422 68.88115234 -31.08857422 68.88115234 -29.8359375 68.0625 C-29.11970215 67.59199219 -28.4034668 67.12148438 -27.66552734 66.63671875 C-25.34712604 65.2859298 -23.01086577 64.31224321 -20.5 63.375 C-20.78875 62.61574219 -21.0775 61.85648437 -21.375 61.07421875 C-21.74625 60.08035156 -22.1175 59.08648437 -22.5 58.0625 C-22.87125 57.07636719 -23.2425 56.09023438 -23.625 55.07421875 C-24.5 52.375 -24.5 52.375 -24.5 49.375 C-25.19222656 49.53097656 -25.88445312 49.68695313 -26.59765625 49.84765625 C-38.1160276 52.13918994 -51.1024299 52.68628226 -61.5 46.375 C-64.2511272 43.54295729 -64.73236332 41.01439053 -65.0625 37.1875 C-64.74758261 29.28832226 -59.82763186 23.32616648 -54.25 18.125 C-38.76877722 5.36068055 -19.80434421 0.02178696 0 0 Z " fill="#BA8046" transform="translate(434.5,298.625)"/>
<path d="M0 0 C5.59541059 3.91562894 10.28329689 9.30735824 15.0546875 14.171875 C17.95607118 17.1101527 21.01298841 19.81946068 24.15625 22.49609375 C26.58156047 24.62550578 28.81399098 26.92286147 31.07324219 29.22558594 C32.89340993 31.01543334 34.76886782 32.69027438 36.703125 34.35546875 C40.68464689 37.81793982 44.5495996 41.38673076 48.38671875 45.0078125 C49.063396 45.64388428 49.74007324 46.27995605 50.43725586 46.93530273 C54.13699614 50.4144416 57.82917747 53.90153466 61.51953125 57.390625 C62.27049072 58.09968994 63.0214502 58.80875488 63.79516602 59.53930664 C65.23197818 60.89635745 66.66744768 62.2548318 68.10131836 63.61499023 C71.86001922 67.16530597 75.67260406 70.57583505 79.69702148 73.82397461 C80.11024658 74.23526611 80.52347168 74.64655762 80.94921875 75.0703125 C80.94921875 75.7303125 80.94921875 76.3903125 80.94921875 77.0703125 C81.5215625 77.31394531 82.09390625 77.55757813 82.68359375 77.80859375 C85.35355413 79.29548548 87.08750882 81.05115158 89.19921875 83.2578125 C93.27686435 87.42873757 97.5209696 91.27946285 101.94921875 95.0703125 C103.62104246 96.50181155 105.28769868 97.93936694 106.94921875 99.3828125 C107.71234375 100.03894531 108.47546875 100.69507813 109.26171875 101.37109375 C110.94921875 103.0703125 110.94921875 103.0703125 110.94921875 105.0703125 C111.51382812 105.30492187 112.0784375 105.53953125 112.66015625 105.78125 C115.48383631 107.371377 117.34619248 109.34806074 119.57421875 111.6953125 C120.99432002 113.19090088 122.44516843 114.65917648 123.94921875 116.0703125 C124.60921875 116.0703125 125.26921875 116.0703125 125.94921875 116.0703125 C127.4296875 117.57421875 127.4296875 117.57421875 129.13671875 119.6328125 C133.33728124 124.57000808 137.53173673 129.45865782 142.94921875 133.0703125 C142.94921875 133.7303125 142.94921875 134.3903125 142.94921875 135.0703125 C143.52591309 135.32409668 144.10260742 135.57788086 144.69677734 135.83935547 C147.20578945 137.21052814 148.93999087 138.77375867 150.98828125 140.765625 C151.73335937 141.48105469 152.4784375 142.19648438 153.24609375 142.93359375 C154.80610096 144.44910411 156.36599568 145.96473028 157.92578125 147.48046875 C158.66828125 148.19332031 159.41078125 148.90617188 160.17578125 149.640625 C160.85205566 150.29820801 161.52833008 150.95579102 162.22509766 151.63330078 C163.83119818 153.2837287 163.83119818 153.2837287 165.94921875 153.0703125 C171.91150213 158.21367985 174.25729103 163.57199647 175.94921875 171.0703125 C176.30078713 172.46159665 176.65517609 173.85216978 177.01171875 175.2421875 C177.38836655 176.74698435 177.76335971 178.2521963 178.13671875 179.7578125 C178.31614014 180.4705835 178.49556152 181.18335449 178.68041992 181.91772461 C180.75607023 190.65575567 180.75607023 190.65575567 179.94921875 195.0703125 C174.30113784 202.15312242 162.81047255 205.52895777 154.76171875 209.1328125 C153.09810682 209.88616127 151.43486229 210.64032189 149.77197266 211.39526367 C145.60951441 213.28200589 141.44192699 215.15707148 137.27215576 217.02758789 C134.47596091 218.28274942 131.6820811 219.54299847 128.88835144 220.80363464 C119.04735949 225.24298998 109.18626091 229.63694871 99.31640625 234.01171875 C76.06099746 244.31979074 52.90014941 254.82988146 29.81811523 265.52050781 C23.95561072 268.23243915 18.08393517 270.92263867 12.19921875 273.5859375 C11.52948532 273.88907867 10.85975189 274.19221985 10.16972351 274.50454712 C9.4919838 274.81129364 8.81424408 275.11804016 8.1159668 275.43408203 C-6.92619178 282.24243094 -21.89369152 289.19504055 -36.82359314 296.2459259 C-37.52247147 296.57598129 -38.22134979 296.90603668 -38.94140625 297.24609375 C-39.63379898 297.5731279 -40.32619171 297.90016205 -41.03956604 298.23710632 C-47.55230375 301.31120034 -54.07979498 304.35306885 -60.61328125 307.3828125 C-61.7206665 307.89650391 -62.82805176 308.41019531 -63.96899414 308.93945312 C-69.98391251 311.7274622 -76.0014775 314.50969342 -82.02056885 317.28868103 C-125.39944997 337.27496572 -125.39944997 337.27496572 -168.36328125 358.1328125 C-169.19956055 358.55014648 -170.03583984 358.96748047 -170.89746094 359.39746094 C-175.09311659 361.51301689 -179.23161328 363.70734963 -183.33984375 365.98828125 C-184.20569092 366.46322021 -185.07153809 366.93815918 -185.96362305 367.42749023 C-187.58652669 368.32282582 -189.20089595 369.23390701 -190.80395508 370.16430664 C-194.48677084 372.19602014 -196.53571685 373.0766976 -200.83203125 373.0234375 C-204.02244273 372.078704 -205.65553051 371.25049385 -208.11328125 369.0703125 C-212.04715769 365.82706497 -216.071572 362.84901041 -220.30078125 360.0078125 C-220.89125244 359.58951172 -221.48172363 359.17121094 -222.09008789 358.74023438 C-224.79077293 356.95276358 -226.33817305 355.93348297 -229.59375 356.55859375 C-232.53442216 358.36787853 -235.32846236 360.2765329 -238.11328125 362.3203125 C-239.34817578 363.21852479 -240.58390464 364.11559074 -241.8203125 365.01171875 C-242.49143066 365.49914551 -243.16254883 365.98657227 -243.85400391 366.48876953 C-247.97303077 369.45421252 -252.13924827 372.35248126 -256.30078125 375.2578125 C-257.52293335 376.11197754 -257.52293335 376.11197754 -258.76977539 376.98339844 C-260.38202664 378.11013759 -261.99441237 379.23668435 -263.60693359 380.36303711 C-270.39177675 385.10293802 -277.1685966 389.85356539 -283.92578125 394.6328125 C-292.87463065 400.95251247 -301.8320494 407.25910997 -310.82861328 413.51074219 C-312.80383543 414.89700006 -314.75681282 416.30799445 -316.703125 417.734375 C-324.81529346 423.52439688 -324.81529346 423.52439688 -329.61328125 423.7578125 C-333.91795755 422.89687724 -333.91795755 422.89687724 -336.05078125 420.0703125 C-339.4160887 411.80397983 -343.04196716 402.03064909 -341.05078125 393.0703125 C-336.64488823 383.29667656 -328.07583917 377.97728217 -319.42919922 372.30053711 C-313.95592553 368.70420996 -308.58996719 364.96969742 -303.23828125 361.1953125 C-296.1780529 356.2234529 -289.05137232 351.37449211 -281.84716797 346.61425781 C-276.12003417 342.81630356 -270.48226449 338.90118751 -264.86328125 334.9453125 C-257.36296567 329.66831493 -249.80099391 324.5094362 -242.1484375 319.45654297 C-238.02657497 316.73262124 -233.91329132 313.99582717 -229.80078125 311.2578125 C-228.83470947 310.61481201 -227.8686377 309.97181152 -226.87329102 309.30932617 C-219.67506042 304.50922178 -212.49816121 299.67805136 -205.328125 294.8359375 C-204.37960663 294.19550003 -203.43108826 293.55506256 -202.4538269 292.8952179 C-197.66467105 289.66109764 -192.87685722 286.42501329 -188.09082031 283.1862793 C-180.4398132 278.01374879 -172.79274751 272.86114055 -164.97143555 267.94848633 C-158.35387756 263.69295899 -151.8748662 259.22368773 -145.36303711 254.80883789 C-129.33453617 243.94623044 -113.23698524 233.19638673 -97.05078125 222.5703125 C-80.05385196 211.41186588 -63.16002205 200.10890293 -46.33203125 188.69726562 C-36.98171707 182.36077607 -27.58860965 176.12144514 -18.05078125 170.0703125 C-16.49593018 169.07862061 -16.49593018 169.07862061 -14.90966797 168.06689453 C-12.0000772 166.21117129 -9.08833755 164.35887698 -6.17578125 162.5078125 C-5.18964844 161.88068359 -4.20351563 161.25355469 -3.1875 160.60742188 C-0.80878817 159.09474591 1.57011775 157.58237628 3.94921875 156.0703125 C2.78712891 156.11466431 2.78712891 156.11466431 1.6015625 156.15991211 C-1.92510701 156.04077664 -3.28991702 154.79184199 -6.05078125 152.6328125 C-10.35337678 149.36049835 -14.67943727 146.16099899 -19.11328125 143.0703125 C-19.67337891 142.67271729 -20.23347656 142.27512207 -20.81054688 141.86547852 C-23.65887948 139.71852062 -23.65887948 139.71852062 -27.05078125 139.0703125 C-27.81390625 138.2246875 -28.57703125 137.3790625 -29.36328125 136.5078125 C-30.25015625 135.7034375 -31.13703125 134.8990625 -32.05078125 134.0703125 C-35.62659736 134.36829718 -38.12789485 135.48995508 -41.11328125 137.4140625 C-41.89493652 137.90962646 -42.6765918 138.40519043 -43.48193359 138.91577148 C-44.32965332 139.46177002 -45.17737305 140.00776855 -46.05078125 140.5703125 C-54.74324073 146.06399019 -63.53950097 151.33720094 -72.42578125 156.5078125 C-84.22209334 163.38087757 -95.91758649 170.40417055 -107.55224609 177.54833984 C-110.9617029 179.62519677 -114.39647816 181.65880042 -117.83520508 183.68676758 C-120.00499351 185.04171976 -122.02888445 186.50509394 -124.05078125 188.0703125 C-124.71078125 187.7403125 -125.37078125 187.4103125 -126.05078125 187.0703125 C-124.7305563 185.95319908 -123.41032837 184.8360892 -122.09008789 183.71899414 C-120.92125614 182.72995723 -119.75247504 181.74086045 -118.58374023 180.75170898 C-115.65202836 178.27060846 -112.71972459 175.79022162 -109.78515625 173.3125 C-108.72783417 172.41930684 -107.67054246 171.52607771 -106.61328125 170.6328125 C-106.07993164 170.18252686 -105.54658203 169.73224121 -104.99707031 169.26831055 C-102.18882316 166.89355403 -99.39269651 164.50611682 -96.61328125 162.09765625 C-88.61091931 155.1686999 -80.43873695 148.52635459 -72.05078125 142.0703125 C-71.33889648 141.52133301 -70.62701172 140.97235352 -69.89355469 140.40673828 C-67.63545082 138.66699188 -65.37504062 136.93030351 -63.11328125 135.1953125 C-62.41549561 134.6597876 -61.71770996 134.1242627 -60.9987793 133.57250977 C-59.02268225 132.06279719 -57.03992026 130.56279322 -55.05078125 129.0703125 C-54.3944873 128.57756836 -53.73819336 128.08482422 -53.06201172 127.57714844 C-48.29217268 124.0703125 -48.29217268 124.0703125 -46.05078125 124.0703125 C-46.05078125 123.4103125 -46.05078125 122.7503125 -46.05078125 122.0703125 C-46.69789063 121.86921875 -47.345 121.668125 -48.01171875 121.4609375 C-52.33640547 119.48203201 -55.89054365 116.67707377 -59.67578125 113.8203125 C-61.38789047 112.54279403 -63.10013374 111.26545518 -64.8125 109.98828125 C-65.68438965 109.33520996 -66.5562793 108.68213867 -67.45458984 108.00927734 C-70.67604046 105.60333783 -73.91551378 103.22261069 -77.15698242 100.84375 C-84.59592614 95.38431785 -91.99145783 89.86998171 -99.36328125 84.3203125 C-105.60278473 79.62404741 -111.88152458 74.99955527 -118.25610352 70.48852539 C-121.81475334 67.96674269 -125.32073411 65.38686451 -128.80078125 62.7578125 C-133.71504264 59.0493049 -138.68210462 55.42111157 -143.67578125 51.8203125 C-144.81950195 50.99527222 -144.81950195 50.99527222 -145.98632812 50.15356445 C-149.89065674 47.33988737 -153.80005267 44.53347531 -157.71484375 41.734375 C-167.01558311 35.07087958 -176.12600081 28.23022478 -185.05078125 21.0703125 C-188.73908812 22.73628686 -191.91583678 25.01609281 -195.17578125 27.3828125 C-195.77326172 27.81287598 -196.37074219 28.24293945 -196.98632812 28.68603516 C-199.01023581 30.14413582 -201.03078034 31.60680476 -203.05078125 33.0703125 C-205.42401136 34.788427 -207.79742024 36.50629174 -210.17138672 38.22338867 C-211.7260828 39.34849348 -213.27983583 40.47490287 -214.83251953 41.6027832 C-216.89934802 43.10041478 -218.97432078 44.58608195 -221.05078125 46.0703125 C-221.61925781 46.48958008 -222.18773437 46.90884766 -222.7734375 47.34082031 C-225.93448513 49.59673087 -226.99337214 50.0703125 -231.05078125 50.0703125 C-231.05078125 51.0603125 -231.05078125 52.0503125 -231.05078125 53.0703125 C-232.04078125 53.5653125 -232.04078125 53.5653125 -233.05078125 54.0703125 C-233.4067209 57.80767882 -233.37134321 59.59499649 -231.23828125 62.7578125 C-228.27821244 67.24020242 -227.26884301 71.88432227 -226.05078125 77.0703125 C-227.04078125 77.5653125 -227.04078125 77.5653125 -228.05078125 78.0703125 C-228.30472656 77.26207031 -228.55867188 76.45382812 -228.8203125 75.62109375 C-229.16449219 74.55246094 -229.50867188 73.48382813 -229.86328125 72.3828125 C-230.19972656 71.32707031 -230.53617187 70.27132812 -230.8828125 69.18359375 C-232.26471195 65.50006912 -233.75921554 62.262527 -236.67578125 59.5703125 C-238.51336675 57.56567377 -238.56651716 55.69917472 -239.05078125 53.0703125 C-239.71078125 52.7403125 -240.37078125 52.4103125 -241.05078125 52.0703125 C-241.39352531 50.40555564 -241.72442427 48.73835927 -242.05078125 47.0703125 C-242.58703125 45.8740625 -243.12328125 44.6778125 -243.67578125 43.4453125 C-245.05078125 40.0703125 -245.05078125 40.0703125 -244.05078125 37.0703125 C-241.05078125 40.8203125 -241.05078125 40.8203125 -241.05078125 43.0703125 C-235.90893121 40.26807032 -231.30876702 37.14107301 -226.67578125 33.5703125 C-218.27747951 27.19435419 -209.7578492 21.01847343 -201.05078125 15.0703125 C-200.42445801 14.64105469 -199.79813477 14.21179688 -199.15283203 13.76953125 C-197.42347944 12.59834917 -195.6797028 11.45427563 -193.92578125 10.3203125 C-192.95382812 9.68609375 -191.981875 9.051875 -190.98046875 8.3984375 C-187.30100473 6.73041381 -185.05647302 6.5232797 -181.05078125 7.0703125 C-178.57974743 8.48233182 -176.61531341 9.80992006 -174.42578125 11.5703125 C-173.79679932 12.05298584 -173.16781738 12.53565918 -172.51977539 13.03295898 C-171.12223368 14.10730765 -169.73033417 15.18902373 -168.34326172 16.27685547 C-164.09040773 19.60395509 -159.78399626 22.86137427 -155.48828125 26.1328125 C-154.59278564 26.81690186 -153.69729004 27.50099121 -152.7746582 28.20581055 C-142.09317779 36.38905612 -142.09317779 36.38905612 -131.05078125 44.0703125 C-130.19863037 44.67963623 -129.34647949 45.28895996 -128.46850586 45.91674805 C-123.3117157 47.65728905 -120.22369202 45.67533099 -115.45703125 43.4453125 C-114.52562317 43.03228378 -113.59421509 42.61925507 -112.63458252 42.19371033 C-109.59649703 40.84073661 -106.57419849 39.4557133 -103.55078125 38.0703125 C-101.45582261 37.13115443 -99.35978596 36.19439747 -97.26269531 35.26000977 C-93.09536735 33.40030909 -88.93325976 31.52967623 -84.77539062 29.64892578 C-77.48434046 26.35597501 -70.14842955 23.1719072 -62.80078125 20.0078125 C-61.04652832 19.24803101 -61.04652832 19.24803101 -59.25683594 18.47290039 C-51.11954281 14.94976747 -42.96555897 11.46674516 -34.80078125 8.0078125 C-33.2379541 7.34543579 -33.2379541 7.34543579 -31.64355469 6.66967773 C-28.78259058 5.46184518 -25.91717386 4.26519265 -23.05078125 3.0703125 C-22.14215332 2.68327148 -21.23352539 2.29623047 -20.29736328 1.89746094 C-13.62073451 -0.88725739 -7.0113395 -3.17847391 0 0 Z " fill="#764D28" transform="translate(682.05078125,299.9296875)"/>
<path d="M0 0 C2.12381212 1.79445088 3.8999372 3.4654434 5.75 5.5 C9.01088841 9.20952505 9.01088841 9.20952505 13 12 C13 12.66 13 13.32 13 14 C13.57234375 14.24363281 14.1446875 14.48726563 14.734375 14.73828125 C17.40433538 16.22517298 19.13829007 17.98083908 21.25 20.1875 C24.64756129 23.72765966 28.21249686 26.96261205 31.91650391 30.17260742 C35.20579931 33.05758236 38.38196921 36.05873232 41.5625 39.0625 C42.96601034 40.38295654 44.36965948 41.70326555 45.7734375 43.0234375 C46.47694336 43.68569336 47.18044922 44.34794922 47.90527344 45.03027344 C65.79335421 62.01403368 65.79335421 62.01403368 84.21875 78.40234375 C87.06277826 80.95323752 89.71158336 83.69512301 92.39501953 86.4128418 C97.85201896 91.93566639 103.28498604 97.39118917 109.20703125 102.421875 C111.06586178 104.05796984 112.77859848 105.78307371 114.5 107.5625 C118.01878954 111.15442835 121.90520154 114.09641564 126 117 C122.57693912 119.85174073 118.80432033 121.58786212 114.76171875 123.37109375 C113.29734321 124.02858269 111.83307332 124.68630696 110.36889648 125.34423828 C109.60423065 125.68585999 108.83956482 126.02748169 108.05172729 126.37945557 C96.54283605 131.52994103 85.10502406 136.76359234 73.9375 142.625 C73.0611792 143.08447021 72.1848584 143.54394043 71.28198242 144.01733398 C66.16449882 146.74343281 61.19089755 149.66416245 56.23364258 152.67041016 C52.92117127 154.64217961 49.49809408 156.32949716 46.03369141 158.01220703 C45.36257324 158.33817871 44.69145508 158.66415039 44 159 C51.56517645 157.02456941 58.97979225 154.75806375 66.37890625 152.234375 C67.9562278 151.69964569 67.9562278 151.69964569 69.56541443 151.15411377 C71.77862664 150.4027317 73.99127139 149.6496763 76.20336914 148.89501953 C79.52766103 147.76187548 82.8544945 146.63645031 86.18164062 145.51171875 C97.32755179 141.72815945 108.39205012 137.81750119 119.328125 133.46166992 C133.04843828 128 133.04843828 128 137 128 C138.19566329 129.10614839 139.37999948 130.2276491 140.49658203 131.41357422 C143.51163719 134.59509881 146.75146578 137.55396072 149.9375 140.5625 C150.97293945 141.5515332 150.97293945 141.5515332 152.02929688 142.56054688 C155.82686046 146.14213528 159.55107736 149.26380814 164 152 C161.22705288 154.20574438 158.5321006 155.81466993 155.30859375 157.27734375 C154.37797119 157.70208984 153.44734863 158.12683594 152.48852539 158.56445312 C151.48168701 159.01755859 150.47484863 159.47066406 149.4375 159.9375 C148.37974365 160.41767578 147.3219873 160.89785156 146.23217773 161.39257812 C128.6797549 169.34162117 111.04563531 177.10795356 93.40551758 184.85986328 C81.25362983 190.20238018 69.12431329 195.59524752 57 201 C55.30762207 201.75337646 55.30762207 201.75337646 53.58105469 202.52197266 C35.03898096 210.78018501 16.58139021 219.21412382 -1.85279846 227.70991516 C-7.33696141 230.23661856 -12.82551153 232.75358848 -18.31640625 235.265625 C-34.7217457 242.77477738 -51.08104048 250.37041122 -67.3835144 258.10055542 C-76.32938028 262.34160004 -85.28987374 266.52784866 -94.33886719 270.54541016 C-102.54943143 274.20903973 -110.67856735 278.04513428 -118.8125 281.875 C-119.91250336 282.39235718 -119.91250336 282.39235718 -121.034729 282.92016602 C-128.45316047 286.41046881 -135.86083367 289.91937034 -143.23046875 293.51171875 C-144.30127686 294.0320166 -145.37208496 294.55231445 -146.4753418 295.08837891 C-148.44513159 296.04839108 -150.41163658 297.01518219 -152.37426758 297.98974609 C-153.65853638 298.61550537 -153.65853638 298.61550537 -154.96875 299.25390625 C-155.70544922 299.61814697 -156.44214844 299.9823877 -157.20117188 300.35766602 C-158.0915918 300.67562134 -158.0915918 300.67562134 -159 301 C-159.66 300.67 -160.32 300.34 -161 300 C-134.03975098 282.40152023 -106.88162683 265.10626013 -79.6484375 247.93359375 C-76.50490582 245.95116848 -73.36457013 243.96381356 -70.2265625 241.97265625 C-62.58409331 237.12697242 -54.92263357 232.32157655 -47.1875 227.625 C-40.46567728 223.54283439 -33.81412975 219.35984146 -27.1875 215.125 C-15.56820323 207.70043541 -3.84773695 200.44625374 7.89453125 193.21826172 C10.78477158 191.43865844 13.67364762 189.65685516 16.5625 187.875 C17.44945557 187.33029053 18.33641113 186.78558105 19.25024414 186.22436523 C20.07645264 185.71462158 20.90266113 185.20487793 21.75390625 184.6796875 C22.47908447 184.23351074 23.2042627 183.78733398 23.95141602 183.32763672 C24.62744873 182.8895166 25.30348145 182.45139648 26 182 C26.74757568 181.59410645 27.49515137 181.18821289 28.26538086 180.77001953 C30.33574507 179.01748993 30.33574507 179.01748993 30.39160156 175.72485352 C29.98962182 171.90128435 29.14847156 168.96924793 27.734375 165.40234375 C27.25613281 164.18869141 26.77789063 162.97503906 26.28515625 161.72460938 C25.90641357 160.79104614 25.90641357 160.79104614 25.52001953 159.83862305 C24.75267024 157.94409262 24.00591825 156.04239807 23.26171875 154.13867188 C19.69509339 145.19357547 16.4853527 138.54903269 8.4375 132.9375 C7.79200195 132.4741626 7.14650391 132.0108252 6.48144531 131.53344727 C2.75439566 128.87662354 -1.0241914 126.30106731 -4.82421875 123.75 C-12.75325159 118.42277946 -20.16661692 113.19915375 -27.09375 106.58203125 C-32.88240248 101.43915586 -39.3313605 97.12125696 -45.65039062 92.66015625 C-49.38475912 90.02157502 -53.10154966 87.35889 -56.8125 84.6875 C-57.54742676 84.15850098 -58.28235352 83.62950195 -59.03955078 83.08447266 C-65.80809311 78.18643502 -72.44681061 73.12422014 -79.07519531 68.03881836 C-85.96312695 62.76185628 -92.92937182 57.60020966 -99.96069336 52.51586914 C-103.5760373 49.88181589 -106.96528849 47.31644865 -110 44 C-109.21363159 43.65388672 -109.21363159 43.65388672 -108.41137695 43.30078125 C-104.20962996 41.44333101 -100.02322491 39.55760049 -95.85546875 37.625 C-81.55464231 30.99546942 -67.12948181 24.70402182 -52.62158203 18.54248047 C-48.29923343 16.7015341 -43.9841388 14.84411128 -39.6697998 12.98449707 C-34.44593943 10.73374529 -29.21492325 8.50008502 -23.98095703 6.27294922 C-21.35626187 5.15213345 -18.73823264 4.01720334 -16.12109375 2.87890625 C-14.78954368 2.3139687 -13.45756363 1.75004264 -12.125 1.1875 C-10.52011719 0.49720703 -10.52011719 0.49720703 -8.8828125 -0.20703125 C-5.35532146 -1.17733028 -3.48184115 -1.14690568 0 0 Z " fill="#A06833" transform="translate(677,312)"/>
<path d="M0 0 C0.66 0.33 1.32 0.66 2 1 C1.01 2.485 1.01 2.485 0 4 C13.26274599 14.32476859 13.26274599 14.32476859 27 24 C27.17459721 27.57252754 26.9271951 31.04819465 26.71484375 34.6171875 C26.69214566 38.05966677 26.69214566 38.05966677 28.87890625 40.3828125 C33.04910406 43.56230033 36.87754935 43.67377934 42 43 C44.04049422 41.7295036 46.05017465 40.40568804 48 39 C52.55015576 39.52164165 55.34460123 42.62717292 58.625 45.5625 C59.89222108 46.67172565 61.1604528 47.77979776 62.4296875 48.88671875 C63.04553711 49.42603027 63.66138672 49.9653418 64.29589844 50.52099609 C68.09077608 53.81460194 72.04239619 56.90577589 76 60 C76.98274902 60.76981201 76.98274902 60.76981201 77.98535156 61.55517578 C86.25502919 68.02876567 94.5446252 74.4703803 102.96875 80.7421875 C105.20369399 82.40687516 107.43240995 84.0784219 109.65625 85.7578125 C113.75914249 88.85431581 117.87511969 91.9328535 122 95 C123.07193604 95.79760742 123.07193604 95.79760742 124.16552734 96.61132812 C138.94461488 107.56465855 154.13896656 118.46803365 171 126 C171.69867188 126.33644531 172.39734375 126.67289063 173.1171875 127.01953125 C184.27782842 131.92752394 194.86168086 127.91453072 205.62103271 123.94387817 C212.22537064 121.32354352 218.41027893 117.85776182 224.625 114.4375 C226.10387588 113.63754348 227.58346131 112.83889743 229.0637207 112.04150391 C232.71095627 110.07298633 236.34950064 108.0890285 239.98553467 106.09991455 C242.98626352 104.46149205 245.99493698 102.83808622 249.00390625 101.21484375 C252.97325232 99.07223999 256.93974155 96.92458202 260.90234375 94.76953125 C265.34470565 92.35429053 269.79200425 89.94876655 274.25 87.5625 C275.28640625 87.00691406 276.3228125 86.45132813 277.390625 85.87890625 C279.45426321 84.78294208 281.53055375 83.74659827 283.63964844 82.73925781 C291.46493151 78.96868471 298.58210145 74.51863938 305.75 69.625 C306.84054687 68.88894531 307.93109375 68.15289063 309.0546875 67.39453125 C311.7075243 65.60270289 314.35578065 63.80450971 317 62 C317.66 62.33 318.32 62.66 319 63 C312.80328045 67.61457839 306.53625896 71.99920294 299.9921875 76.10546875 C291.32575175 81.59270288 282.85262039 87.36028463 274.5 93.3125 C266.32219792 99.13843926 258.00908921 104.75770665 249.6875 110.375 C238.44498334 117.96544291 227.24886904 125.61267489 216.18676758 133.46508789 C214.59009457 134.58580724 212.9814134 135.68947428 211.3659668 136.78295898 C210.47949463 137.38696533 209.59302246 137.99097168 208.6796875 138.61328125 C207.87128418 139.15766846 207.06288086 139.70205566 206.22998047 140.26293945 C202.08231821 143.49379307 197.4509605 148.63712315 196.7265625 154.0390625 C196.37817661 162.90950327 198.80878433 170.80921313 202 179 C204.35953094 181.35953094 205.77895617 181.49141413 209 182 C209 182.33 209 182.66 209 183 C203.15823194 183.46968989 200.42269915 182.47517324 195.75 179 C195.18772705 178.58991699 194.6254541 178.17983398 194.04614258 177.75732422 C192.35308633 176.51901547 190.67627621 175.26088432 189 174 C187.23110192 172.70568433 185.4603681 171.41387244 183.6875 170.125 C182.79289063 169.47015625 181.89828125 168.8153125 180.9765625 168.140625 C176.87359773 165.18993642 172.70415448 162.34065452 168.53369141 159.48657227 C156.15194899 151.00566997 143.89253408 142.34747398 131.64257812 133.67773438 C126.62532196 130.13257937 121.58342612 126.6240067 116.53491211 123.12353516 C107.77457372 117.04922085 99.06000567 110.92400479 90.43481445 104.65917969 C84.69611314 100.49241452 78.91426846 96.39034574 73.11401367 92.30981445 C68.70572975 89.20772679 64.31593372 86.08153493 59.9375 82.9375 C55.08476305 79.45600787 50.18235525 76.05508307 45.25 72.6875 C37.06036173 67.09091346 29.02594986 61.28983372 21.0078125 55.45117188 C19.21372859 54.15447504 17.4086188 52.8767293 15.59375 51.609375 C7.26862741 45.74598221 2.92485887 40.54321193 -0.80078125 31.0234375 C-1.84791304 28.38343748 -3.00968799 25.8647666 -4.25 23.3125 C-6.58683053 18.07837958 -7.65842568 12.89707299 -6.375 7.25 C-4.62337663 4.38370721 -2.46255666 2.26814429 0 0 Z " fill="#E5BA88" transform="translate(145,541)"/>
<path d="M0 0 C1.75763672 -0.03673828 1.75763672 -0.03673828 3.55078125 -0.07421875 C11.92543201 -0.10241623 18.82563043 0.79248967 25 6.8125 C26.57720334 9.50688903 27.16256824 11.28726827 27.5 14.375 C24.30351061 24.10420541 14.97346229 32.12384027 6.5 37.375 C5.84 37.375 5.18 37.375 4.5 37.375 C2.89843405 41.37891487 4.0912439 44.44531192 5.5 48.375 C6.16 48.705 6.82 49.035 7.5 49.375 C7.17 50.695 6.84 52.015 6.5 53.375 C7.82 54.035 9.14 54.695 10.5 55.375 C10.5 57.355 10.5 59.335 10.5 61.375 C11.11488281 61.61476563 11.72976563 61.85453125 12.36328125 62.1015625 C15.01004968 63.67897842 15.53817458 64.92594325 16.6875 67.75 C17.01105469 68.52085937 17.33460938 69.29171875 17.66796875 70.0859375 C19.52040257 75.18230471 20.16769096 79.96764363 19.5 85.375 C17.13596434 90.19399576 14.27675106 92.93979358 9.5 95.375 C4.14955545 96.26674076 0.7318948 95.03475176 -3.59375 92.0234375 C-11.24963213 85.40298205 -14.89840542 74.59209855 -18.5 65.375 C-18.5 64.715 -18.5 64.055 -18.5 63.375 C-19.16 63.375 -19.82 63.375 -20.5 63.375 C-21.17260351 61.60641309 -21.83788395 59.83503984 -22.5 58.0625 C-22.87125 57.07636719 -23.2425 56.09023438 -23.625 55.07421875 C-24.5 52.375 -24.5 52.375 -24.5 49.375 C-25.19222656 49.53097656 -25.88445312 49.68695313 -26.59765625 49.84765625 C-38.1160276 52.13918994 -51.1024299 52.68628226 -61.5 46.375 C-64.2511272 43.54295729 -64.73236332 41.01439053 -65.0625 37.1875 C-64.74758261 29.28832226 -59.82763186 23.32616648 -54.25 18.125 C-38.76877722 5.36068055 -19.80434421 0.02178696 0 0 Z " fill="#908F8F" transform="translate(434.5,298.625)"/>
<path d="M0 0 C0.27674561 0.63502441 0.55349121 1.27004883 0.83862305 1.92431641 C2.11142651 4.82911615 3.39929647 7.72699887 4.6875 10.625 C5.12255859 11.62402344 5.55761719 12.62304688 6.00585938 13.65234375 C8.97416973 20.29256395 11.62780397 25.80074172 17.875 29.875 C21.5886409 31.21191072 24.07771492 31.49028564 28 31 C32.43598215 28.69670157 34.77567806 26.44864389 37 22 C37.391875 21.236875 37.78375 20.47375 38.1875 19.6875 C38.455625 19.130625 38.72375 18.57375 39 18 C39.84290604 20.37498055 40.14620332 21.59095027 39.28515625 24 C36.11693448 29.18252251 32.97952066 32.3914091 27 34 C22.18863305 34.53252023 18.75450884 33.13699949 14.8125 30.4375 C9.10855298 25.77368449 6.11658181 19.56122487 3 13 C1.58124235 13.76697796 0.16508548 14.53876778 -1.25 15.3125 C-2.03890625 15.74175781 -2.8278125 16.17101562 -3.640625 16.61328125 C-6.02580407 17.93485333 -6.02580407 17.93485333 -8.046875 19.66796875 C-10 21 -10 21 -14 21 C-14.28810547 21.87978516 -14.28810547 21.87978516 -14.58203125 22.77734375 C-16.5901305 25.92502549 -19.42108998 27.00426919 -22.6875 28.5625 C-29.08747627 31.78529274 -34.72724921 35.532751 -40.43115234 39.8527832 C-45.61928932 43.7707024 -50.97640242 47.29029819 -56.48828125 50.734375 C-60.18090965 53.0721346 -63.73047181 55.60494033 -67.30249023 58.12158203 C-71.93886621 61.35013455 -76.6624623 64.44669914 -81.375 67.5625 C-90.05581449 73.32075341 -98.65280247 79.17886798 -107.14013672 85.21899414 C-110.95037331 87.91884015 -114.79080523 90.52473993 -118.74609375 93.0078125 C-128.06179923 98.88299861 -137.12922105 105.14128453 -146.25 111.3125 C-150.00475552 113.8509308 -153.76004303 116.38857335 -157.515625 118.92578125 C-158.4275209 119.54188263 -159.33941681 120.15798401 -160.27894592 120.79275513 C-169.85366897 127.257975 -179.47084243 133.65804762 -189.09664917 140.04682922 C-191.88564738 141.89839395 -194.67375661 143.75129442 -197.46166992 145.60449219 C-198.86346578 146.53565606 -200.26581099 147.46599346 -201.66870117 148.39550781 C-210.23338389 154.07148702 -218.7029944 159.84783869 -227.03320312 165.86352539 C-233.19698708 170.30224111 -238.95496479 174.15488963 -246 177 C-249.43677148 178.83294479 -250.80819627 179.71229441 -253 183 C-254.66666667 183.66666667 -256.33333333 184.33333333 -258 185 C-258.66 185.99 -259.32 186.98 -260 188 C-264.83256305 187.58578031 -266.82679218 185.53586014 -270 182 C-268.61019248 180.86756424 -267.21285323 179.74436881 -265.8125 178.625 C-265.03519531 177.99851562 -264.25789062 177.37203125 -263.45703125 176.7265625 C-261.02347821 175.0164982 -258.74930847 174.08883504 -256 173 C-254.31384218 171.35305515 -252.64429829 169.68873879 -251 168 C-250.34 168 -249.68 168 -249 168 C-248.75282227 167.2373584 -248.50564453 166.4747168 -248.25097656 165.68896484 C-246.83802659 162.65183936 -245.77297772 161.75409649 -242.984375 159.9765625 C-242.15655518 159.43821777 -241.32873535 158.89987305 -240.47583008 158.34521484 C-239.57630615 157.77754395 -238.67678223 157.20987305 -237.75 156.625 C-235.83116658 155.38154163 -233.91322584 154.13670484 -231.99609375 152.890625 C-230.50891846 151.9305957 -230.50891846 151.9305957 -228.99169922 150.95117188 C-224.21340583 147.83479186 -219.51482191 144.60439056 -214.8125 141.375 C-208.29743376 136.91741297 -201.76482174 132.49020796 -195.1875 128.125 C-188.44782286 123.64954979 -181.74766638 119.11894114 -175.0625 114.5625 C-149.98488856 97.47938248 -124.8275593 80.51170016 -99.56036377 63.7102356 C-85.30509614 54.22942213 -71.11399247 44.65398663 -56.92773438 35.0703125 C-43.42981453 25.95269866 -29.92551855 16.85013779 -16.25 8 C-14.54678603 6.89597058 -12.84365713 5.7918099 -11.140625 4.6875 C-10.41391602 4.21699219 -9.68720703 3.74648438 -8.93847656 3.26171875 C-3.92724458 0 -3.92724458 0 0 0 Z " fill="#9B6A3C" transform="translate(416,362)"/>
<path d="M0 0 C0 0.66 0 1.32 0 2 C0.99 1.67 1.98 1.34 3 1 C3.99 1.99 3.99 1.99 5 3 C4.44264019 8.19845209 0.62891298 11.56495216 -3 15 C-10.79682718 21.13571886 -18.99863871 25.84259161 -28 30 C-29.15242188 30.58587891 -29.15242188 30.58587891 -30.328125 31.18359375 C-40.92166609 36.38509864 -55.00826469 38.03533854 -66.51953125 35.4296875 C-68.5625 34.6875 -68.5625 34.6875 -72 33 C-73.155 32.443125 -74.31 31.88625 -75.5 31.3125 C-76.325 30.879375 -77.15 30.44625 -78 30 C-78 32.64 -78 35.28 -78 38 C-78.33 38 -78.66 38 -79 38 C-79.51007001 31.75164237 -79.1180106 27.01627354 -75 22 C-59.56125947 5.79840406 -22.43148871 -10.9958278 0 0 Z " fill="#CDCFD0" transform="translate(449,302)"/>
<path d="M0 0 C1.75763672 -0.03673828 1.75763672 -0.03673828 3.55078125 -0.07421875 C11.92543201 -0.10241623 18.82563043 0.79248967 25 6.8125 C26.57720334 9.50688903 27.16256824 11.28726827 27.5 14.375 C24.30351061 24.10420541 14.97346229 32.12384027 6.5 37.375 C5.84 37.375 5.18 37.375 4.5 37.375 C4.005 38.365 4.005 38.365 3.5 39.375 C1.50458132 40.05525637 -0.49617991 40.71990497 -2.5 41.375 C-3.2425 41.849375 -3.985 42.32375 -4.75 42.8125 C-10.92525255 46.32116622 -17.44174521 47.83532096 -24.5 47.375 C-24.5 48.035 -24.5 48.695 -24.5 49.375 C-36.56446188 52.09343554 -50.50111849 53.09010661 -61.5 46.375 C-63.70914 43.06129 -63.72481553 42.0303979 -63.625 38.1875 C-63.60695313 37.28644531 -63.58890625 36.38539063 -63.5703125 35.45703125 C-63.54710937 34.76996094 -63.52390625 34.08289063 -63.5 33.375 C-60.23759777 34.43528073 -57.16986285 35.53106484 -54.0625 37 C-43.52988685 40.96735142 -28.36054898 39.07147594 -18.125 34.6875 C-16.57833185 33.92675183 -15.03725652 33.15459126 -13.5 32.375 C-12.42878906 31.88 -11.35757813 31.385 -10.25390625 30.875 C0.61519902 25.73211558 11.55606089 19.49331128 18.5 9.375 C18.20867912 7.21195287 18.20867912 7.21195287 17.5 5.375 C16.51 5.375 15.52 5.375 14.5 5.375 C14.5 4.715 14.5 4.055 14.5 3.375 C-5.71871758 -1.50127894 -29.10784524 4.59746998 -46.50390625 15.20703125 C-51.05785399 18.32217583 -55.33581824 21.75873689 -59.5 25.375 C-55.78504845 16.86776095 -45.82739194 10.98752942 -37.53808594 7.56494141 C-24.89294342 2.67944933 -13.63944205 0.01500489 0 0 Z " fill="#A4A4A4" transform="translate(434.5,298.625)"/>
<path d="M0 0 C-4.3690343 5.24284116 -8.83277764 10.51941304 -14 15 C-14.66 15 -15.32 15 -16 15 C-16 15.66 -16 16.32 -16 17 C-17.55240341 18.39325954 -19.17029985 19.71380128 -20.8125 21 C-24.80973201 24.19063858 -28.63106857 27.44720752 -32.375 30.9375 C-50.2231909 47.36916782 -50.2231909 47.36916782 -59.671875 47.29296875 C-63.18934382 46.85033425 -65.34317023 45.25830531 -68 43 C-69.36538938 40.26922124 -69.13231826 38.04439633 -69.125 35 C-69.12757813 33.9275 -69.13015625 32.855 -69.1328125 31.75 C-69 29 -69 29 -68 27 C-65.14906133 25.08950084 -62.0381767 23.58932361 -59 22 C-57.27330078 21.07960938 -57.27330078 21.07960938 -55.51171875 20.140625 C-42.94242469 13.56470084 -29.80091626 8.50298273 -16.13671875 4.6875 C-13.71643069 3.90876015 -11.48781466 2.89323511 -9.1875 1.8125 C-5.98084383 0.31719757 -3.60248948 -0.46483735 0 0 Z " fill="#A67243" transform="translate(240,538)"/>
<path d="M0 0 C9.63345168 5.90907187 18.83838263 12.39066412 28 19 C29.01964844 19.73347656 30.03929687 20.46695312 31.08984375 21.22265625 C31.90582031 21.82980469 32.72179687 22.43695313 33.5625 23.0625 C34.24441406 23.56910156 34.92632813 24.07570313 35.62890625 24.59765625 C37 26 37 26 37 29 C32.74454151 31.43169057 29.89791255 32.48671081 25 32 C22.46484375 30.56640625 22.46484375 30.56640625 19.9375 28.5625 C18.9990625 27.84191406 18.060625 27.12132812 17.09375 26.37890625 C16.0728125 25.59386719 15.051875 24.80882812 14 24 C11.66539169 22.30478582 9.3052891 20.64843568 6.9375 19 C6.37732178 18.60240479 5.81714355 18.20480957 5.23999023 17.79516602 C2.39182795 15.64814165 2.39182795 15.64814165 -1 15 C-2.70884005 13.37660195 -4.37446717 11.70680947 -6 10 C-6.66 9.34 -7.32 8.68 -8 8 C-7.50628906 7.67386719 -7.01257813 7.34773438 -6.50390625 7.01171875 C-5.86324219 6.57472656 -5.22257813 6.13773437 -4.5625 5.6875 C-3.92441406 5.25824219 -3.28632812 4.82898438 -2.62890625 4.38671875 C-0.7114316 2.9965948 -0.7114316 2.9965948 0 0 Z " fill="#875A2F" transform="translate(656,424)"/>
<path d="M0 0 C0.66 0 1.32 0 2 0 C2.57315882 4.05631812 3.14271706 8.11312407 3.70898438 12.17041016 C3.90201192 13.54977983 4.09601238 14.92901372 4.29101562 16.30810547 C4.57158777 18.29358281 4.84833964 20.27959881 5.125 22.265625 C5.29257812 23.45961914 5.46015625 24.65361328 5.6328125 25.88378906 C6 29 6 29 6 33 C1.71981511 32.44125665 -1.27357661 29.81902674 -4.625 27.3125 C-10.23686633 23.20047088 -15.94143044 19.43412007 -22 16 C-17.76294732 12.4885843 -13.29737974 9.39997455 -8.75 6.3125 C-7.30665377 5.33036388 -5.86391232 4.3473382 -4.421875 3.36328125 C-3.47199707 2.71806519 -3.47199707 2.71806519 -2.50292969 2.05981445 C-1.02410471 1.08089752 -1.02410471 1.08089752 0 0 Z " fill="#C69561" transform="translate(475,639)"/>
<path d="M0 0 C0.99 0.495 0.99 0.495 2 1 C-9.28443889 6.73323075 -20.68247137 12.16271888 -32.1875 17.4375 C-33.89505326 18.22297573 -35.60248889 19.00870721 -37.30981445 19.79467773 C-44.92861536 23.30041632 -52.55220991 26.7956797 -60.17727661 30.2877655 C-64.01440976 32.04515545 -67.85105359 33.80361146 -71.6875 35.5625 C-72.44113831 35.90787811 -73.19477661 36.25325623 -73.97125244 36.60910034 C-86.48620399 42.34767084 -98.94395048 48.20202545 -111.38406372 54.10083008 C-120.32974644 58.34178169 -129.29006153 62.52793204 -138.33886719 66.54541016 C-146.54943143 70.20903973 -154.67856735 74.04513428 -162.8125 77.875 C-163.54583557 78.21990479 -164.27917114 78.56480957 -165.034729 78.92016602 C-172.45316047 82.41046881 -179.86083367 85.91937034 -187.23046875 89.51171875 C-188.30127686 90.0320166 -189.37208496 90.55231445 -190.4753418 91.08837891 C-192.44513159 92.04839108 -194.41163658 93.01518219 -196.37426758 93.98974609 C-197.65853638 94.61550537 -197.65853638 94.61550537 -198.96875 95.25390625 C-200.07379883 95.80026733 -200.07379883 95.80026733 -201.20117188 96.35766602 C-201.79478516 96.56963623 -202.38839844 96.78160645 -203 97 C-203.66 96.67 -204.32 96.34 -205 96 C-200.12753498 92.82810636 -195.25314533 89.65924587 -190.375 86.49609375 C-187.11369211 84.37982367 -183.86225431 82.2505213 -180.625 80.09765625 C-179.98449707 79.67540771 -179.34399414 79.25315918 -178.68408203 78.81811523 C-176.97103746 77.68833807 -175.26271616 76.55140864 -173.5546875 75.4140625 C-172.29011719 74.71410156 -172.29011719 74.71410156 -171 74 C-170.01 74.495 -170.01 74.495 -169 75 C-171.97 77.31 -174.94 79.62 -178 82 C-169.95312439 78.28436618 -161.94419972 74.53906921 -154.07421875 70.45703125 C-151.54568942 69.25863044 -149.03962288 68.20726853 -146.4375 67.1875 C-140.28400142 64.75946809 -134.3070992 61.98075808 -128.3125 59.1875 C-127.15621094 58.65125 -125.99992188 58.115 -124.80859375 57.5625 C-117.89650854 54.3549818 -110.99014648 51.13513163 -104.08984375 47.90234375 C-100.69316176 46.31675385 -97.2865264 44.75333944 -93.87890625 43.19140625 C-83.07995628 38.23673211 -72.30693226 33.28677346 -61.7578125 27.81640625 C-58.79992001 26.33602354 -55.78350377 25.06547078 -52.72265625 23.8125 C-44.13601936 20.27891283 -35.73820961 16.33494277 -27.3125 12.4375 C-24.84681766 11.29902684 -22.38084337 10.16119088 -19.91459656 9.02394104 C-18.39371515 8.32241038 -16.87318821 7.62011046 -15.35310364 6.91685486 C-13.95365196 6.27053596 -12.55282696 5.6271811 -11.15054321 4.98703003 C-9.60765527 4.27889419 -8.07030565 3.55864368 -6.53671265 2.83059692 C-5.72948761 2.45474457 -4.92226257 2.07889221 -4.09057617 1.69165039 C-3.35562424 1.34429337 -2.6206723 0.99693634 -1.8634491 0.63905334 C-1.24851089 0.42816574 -0.63357269 0.21727814 0 0 Z " fill="#BF8043" transform="translate(721,516)"/>
<path d="M0 0 C0.99 0.495 0.99 0.495 2 1 C-8.91582498 8.42064269 -19.89139827 15.65717222 -31.25146484 22.38110352 C-45.80265905 31.00387518 -60.10575422 40.05731972 -74.29296875 49.265625 C-75.94553896 50.32441457 -77.60975104 51.36564287 -79.29296875 52.375 C-83.27854749 54.76749748 -87.19688828 57.26460043 -91.125 59.75 C-91.96796631 60.28133545 -92.81093262 60.8126709 -93.67944336 61.36010742 C-97.34481761 63.67291389 -101.00511455 65.98942388 -104.62109375 68.37890625 C-105.59175781 69.01699219 -106.56242188 69.65507813 -107.5625 70.3125 C-108.80193359 71.14201172 -108.80193359 71.14201172 -110.06640625 71.98828125 C-110.70449219 72.32214844 -111.34257813 72.65601563 -112 73 C-112.66 72.67 -113.32 72.34 -114 72 C-104.25568346 65.36324595 -94.33640002 59.03942666 -84.32446289 52.81445312 C-77.49830414 48.56862382 -70.70746684 44.27225773 -63.9375 39.9375 C-55.45877711 34.51475852 -46.88813473 29.25907307 -38.27563477 24.05200195 C-32.41483498 20.4987697 -26.6160787 16.86846728 -20.875 13.125 C-20.19711426 12.68357666 -19.51922852 12.24215332 -18.82080078 11.78735352 C-18.16450684 11.35994873 -17.50821289 10.93254395 -16.83203125 10.4921875 C-13.0896275 8.05540573 -9.34052016 5.63126544 -5.5625 3.25 C-4.53253906 2.59515625 -3.50257813 1.9403125 -2.44140625 1.265625 C-1.23291016 0.63914062 -1.23291016 0.63914062 0 0 Z " fill="#BF8043" transform="translate(666,517)"/>
<path d="M0 0 C0.495 1.485 0.495 1.485 1 3 C-11.11875547 15.05307116 -27.11079141 24.01764455 -44 27 C-45.12921875 27.26683594 -45.12921875 27.26683594 -46.28125 27.5390625 C-49.73700689 28.12495232 -53.05859703 28.13195909 -56.5625 28.125 C-57.86316406 28.12757813 -59.16382813 28.13015625 -60.50390625 28.1328125 C-63.24231935 28.0287834 -65.41632549 27.82835366 -68 27 C-68 26.34 -68 25.68 -68 25 C-66.84886719 25.05800781 -65.69773437 25.11601562 -64.51171875 25.17578125 C-44.31707105 25.87842731 -24.94770864 20.83247523 -9 8 C-8.34 8 -7.68 8 -7 8 C-6.67 6.68 -6.34 5.36 -6 4 C-5.01 4 -4.02 4 -3 4 C-2.67 3.01 -2.34 2.02 -2 1 C-1.34 0.67 -0.68 0.34 0 0 Z " fill="#E1E1E0" transform="translate(449,310)"/>
<path d="M0 0 C1.75763672 -0.03673828 1.75763672 -0.03673828 3.55078125 -0.07421875 C10.55472077 -0.09780104 16.53487382 0.41349749 22.5 4.375 C22.995 5.365 22.995 5.365 23.5 6.375 C22.84 6.375 22.18 6.375 21.5 6.375 C20.84 7.035 20.18 7.695 19.5 8.375 C18.819375 7.6325 18.819375 7.6325 18.125 6.875 C16.62364481 5.14890663 16.62364481 5.14890663 14.5 5.375 C14.5 4.715 14.5 4.055 14.5 3.375 C-5.71871758 -1.50127894 -29.10784524 4.59746998 -46.50390625 15.20703125 C-51.05785399 18.32217583 -55.33581824 21.75873689 -59.5 25.375 C-55.78504845 16.86776095 -45.82739194 10.98752942 -37.53808594 7.56494141 C-24.89294342 2.67944933 -13.63944205 0.01500489 0 0 Z " fill="#BBBBB9" transform="translate(434.5,298.625)"/>
<path d="M0 0 C2.375 0.5625 2.375 0.5625 5 2 C6.625 5.0625 6.625 5.0625 7 9 C3.78573175 18.74761784 -5.4962165 26.73004966 -14 32 C-14.66 32 -15.32 32 -16 32 C-16.33 32.66 -16.66 33.32 -17 34 C-17 29.95233201 -15.76804499 28.90999601 -13 26 C-11.25813504 25.01822157 -9.51507101 24.03751053 -7.74609375 23.10546875 C-4.28988973 20.91731274 -1.82140198 17.64280395 0 14 C0.66 14 1.32 14 2 14 C1.69078116 12.54096742 1.37751201 11.08279278 1.0625 9.625 C0.88847656 8.81289063 0.71445312 8.00078125 0.53515625 7.1640625 C0.07669307 4.970537 0.07669307 4.970537 -1 3 C-0.67 2.01 -0.34 1.02 0 0 Z " fill="#8B8782" transform="translate(455,304)"/>
<path d="M0 0 C0.66 0.33 1.32 0.66 2 1 C-4.18610025 5.6066704 -10.43936224 9.98925687 -16.9765625 14.08203125 C-20.56204111 16.35654029 -24.09519608 18.70286707 -27.625 21.0625 C-28.26783936 21.49095215 -28.91067871 21.9194043 -29.57299805 22.36083984 C-32.31152135 24.18886838 -35.03940707 26.02729906 -37.74609375 27.90234375 C-41.74065974 30.65744913 -45.22739928 32.77625623 -50 34 C-49.96875 31.75 -49.96875 31.75 -49 29 C-46.47885925 27.41528295 -44.1959418 26.19711495 -41.5 25 C-40.11351565 24.35646198 -38.72810486 23.71060621 -37.34375 23.0625 C-36.62888428 22.72822998 -35.91401855 22.39395996 -35.17749023 22.04956055 C-26.78762947 18.00560815 -19.14670782 12.88738158 -11.4375 7.6875 C-10.32248439 6.93912709 -9.20725135 6.19107801 -8.09179688 5.44335938 C-5.39238495 3.63206566 -2.69519682 1.81755719 0 0 Z " fill="#D99F60" transform="translate(462,603)"/>
<path d="M0 0 C3.88046733 3.54477503 5.3151981 8.15072902 7.21875 12.93164062 C9.65699067 18.80208944 12.42305586 23.31938425 17.875 26.875 C21.5886409 28.21191072 24.07771492 28.49028564 28 28 C32.43598215 25.69670157 34.77567806 23.44864389 37 19 C37.5878125 17.8553125 37.5878125 17.8553125 38.1875 16.6875 C38.455625 16.130625 38.72375 15.57375 39 15 C39.84290604 17.37498055 40.14620332 18.59095027 39.28515625 21 C36.11693448 26.18252251 32.97952066 29.3914091 27 31 C22.18863305 31.53252023 18.75450884 30.13699949 14.8125 27.4375 C9.10855298 22.77368449 6.11658181 16.56122487 3 10 C1.35 10.66 -0.3 11.32 -2 12 C-2 9 -2 9 0 7 C0.16677282 3.41656024 0.16677282 3.41656024 0 0 Z " fill="#8C531D" transform="translate(416,365)"/>
<path d="M0 0 C0 0.66 0 1.32 0 2 C-0.99 2 -1.98 2 -3 2 C-2.835 2.53625 -2.67 3.0725 -2.5 3.625 C-2 6 -2 6 -2.125 8.875 C-1.97477051 12.63073737 -0.75139608 14.699292 1 18 C2.52517154 22.49524243 3.23146392 26.25498957 3 31 C2.67 30.01 2.34 29.02 2 28 C1.34 28 0.68 28 0 28 C-3.32399717 21.46495702 -4.9706067 15.24638702 -6 8 C-6.66 8 -7.32 8 -8 8 C-7.67 5.69 -7.34 3.38 -7 1 C-4 0 -4 0 0 0 Z " fill="#9B9B9A" transform="translate(422,346)"/>
<path d="M0 0 C3.50827915 1.52079073 5.95271646 3.5995673 8.75 6.1875 C12.6256887 9.75267358 16.56148752 13.21246881 20.6015625 16.58984375 C22 18 22 18 22 20 C22.56203125 20.23460937 23.1240625 20.46921875 23.703125 20.7109375 C26.54635891 22.30663 28.48098127 24.28924543 30.75 26.625 C31.94882812 27.85089844 31.94882812 27.85089844 33.171875 29.1015625 C33.77515625 29.72804688 34.3784375 30.35453125 35 31 C34.34 31.66 33.68 32.32 33 33 C32.31292969 32.30132812 31.62585938 31.60265625 30.91796875 30.8828125 C30.01691406 29.97273438 29.11585938 29.06265625 28.1875 28.125 C27.29417969 27.22007812 26.40085937 26.31515625 25.48046875 25.3828125 C23.04361667 22.90168486 23.04361667 22.90168486 20 21 C20 20.34 20 19.68 20 19 C19.42894531 18.75765625 18.85789062 18.5153125 18.26953125 18.265625 C15.57645652 16.76380708 13.81860376 14.97573537 11.6875 12.75 C8.87442805 9.85775218 6.05250122 7.12667784 2.9375 4.5625 C1.968125 3.716875 0.99875 2.87125 0 2 C0 1.34 0 0.68 0 0 Z " fill="#6F4926" transform="translate(771,385)"/>
<path d="M0 0 C0.66 0.33 1.32 0.66 2 1 C0.59026497 4.52433757 -0.60815884 5.44944404 -4 7 C-4.825 7.66 -5.65 8.32 -6.5 9 C-9 11 -9 11 -10.9375 11.9375 C-14.01089236 13.52076273 -16.38621956 15.74264417 -19 18 C-14.97652412 21.46971377 -14.97652412 21.46971377 -10 23 C-10.33 24.32 -10.66 25.64 -11 27 C-14.63 24.03 -18.26 21.06 -22 18 C-19.35450134 13.59083557 -18.50421406 12.29474626 -14.55078125 9.66796875 C-13.70322266 9.09755859 -12.85566406 8.52714844 -11.98242188 7.93945312 C-11.10134766 7.36130859 -10.22027344 6.78316406 -9.3125 6.1875 C-7.97348633 5.2912793 -7.97348633 5.2912793 -6.60742188 4.37695312 C-4.41088954 2.90868285 -2.20849442 1.45018852 0 0 Z " fill="#BF8854" transform="translate(166,527)"/>
<path d="M0 0 C0.99 0.33 1.98 0.66 3 1 C-0.3 3.97 -3.6 6.94 -7 10 C-6.01 10.33 -5.02 10.66 -4 11 C-6.22855378 12.43845758 -8.45781857 13.87579219 -10.6875 15.3125 C-11.62625977 15.91868164 -11.62625977 15.91868164 -12.58398438 16.53710938 C-22.62594762 23.0039234 -22.62594762 23.0039234 -28 25 C-20.89394524 17.65707674 -13.18075392 11.00777914 -5.12890625 4.7265625 C-3.29187706 3.23671497 -1.63063757 1.70928568 0 0 Z " fill="#85582E" transform="translate(584,463)"/>
<path d="M0 0 C4.28570388 3.81751774 5.55992577 8.80946182 6.328125 14.37890625 C6.58137128 19.72421157 5.64174094 22.86613191 2 27 C-0.625 28.9375 -0.625 28.9375 -3 30 C-3.66 29.67 -4.32 29.34 -5 29 C-3.61198929 25.64564078 -2.11371 23.88709697 1 22 C1.99 22 2.98 22 4 22 C4.25287193 15.93107371 3.69832609 10.83799592 2 5 C1.34 5 0.68 5 0 5 C0 3.35 0 1.7 0 0 Z " fill="#676C72" transform="translate(448,363)"/>
<path d="M0 0 C-1.38980752 1.13243576 -2.78714677 2.25563119 -4.1875 3.375 C-4.96480469 4.00148438 -5.74210937 4.62796875 -6.54296875 5.2734375 C-9 7 -9 7 -11.51171875 7.99609375 C-15.22675602 9.49493924 -17.88831899 12.06018972 -20.9140625 14.63671875 C-21.60242188 15.08660156 -22.29078125 15.53648437 -23 16 C-23.99 15.67 -24.98 15.34 -26 15 C-21.93600861 10.58858986 -17.45748152 7.38260174 -12.4375 4.125 C-11.30538086 3.35929687 -11.30538086 3.35929687 -10.15039062 2.578125 C-9.41884766 2.10117187 -8.68730469 1.62421875 -7.93359375 1.1328125 C-7.27415771 0.69855957 -6.61472168 0.26430664 -5.93530273 -0.18310547 C-3.54472625 -1.19217181 -2.3971747 -0.8654518 0 0 Z " fill="#896139" transform="translate(416,363)"/>
<path d="M0 0 C0 0.99 0 1.98 0 3 C-3.56765336 5.8844857 -7.21322538 8.15228007 -11.25 10.3125 C-15.92251462 12.83581709 -20.08135163 15.90370057 -24.34375 19.05859375 C-27.80821586 21.59071071 -31.26022096 23.89212454 -35 26 C-35.66 25.67 -36.32 25.34 -37 25 C-28.9619091 19.01399242 -20.71979868 13.44685003 -12.3125 8 C-11.10985053 7.21771768 -9.90737566 6.43516687 -8.70507812 5.65234375 C-5.80538188 3.76514469 -2.90337398 1.88153758 0 0 Z " fill="#603D1E" transform="translate(658,474)"/>
<path d="M0 0 C1.37562854 1.28965176 2.70766393 2.62689293 4 4 C4 4.66 4 5.32 4 6 C4.66 6 5.32 6 6 6 C8.27040577 11.82408438 10 16.68477013 10 23 C9.34 23 8.68 23 8 23 C7.71125 21.865625 7.4225 20.73125 7.125 19.5625 C6.75375 18.386875 6.3825 17.21125 6 16 C5.34 15.67 4.68 15.34 4 15 C3.65725594 13.33524314 3.32635698 11.66804677 3 10 C2.484375 8.80375 1.96875 7.6075 1.4375 6.375 C0 3 0 3 0 0 Z " fill="#796149" transform="translate(437,337)"/>
<path d="M0 0 C0 0.99 0 1.98 0 3 C-2.24741692 4.56500287 -4.43235114 5.91644344 -6.8125 7.25 C-8.19475106 8.04950212 -9.5762563 8.85029501 -10.95703125 9.65234375 C-11.64361816 10.0479248 -12.33020508 10.44350586 -13.03759766 10.85107422 C-15.73908612 12.43271203 -18.37046376 14.11448706 -21 15.8125 C-29.23458672 21.07723577 -29.23458672 21.07723577 -33 23 C-33.66 22.67 -34.32 22.34 -35 22 C-23.4456038 14.48478768 -11.7354483 7.22840453 0 0 Z " fill="#B6793D" transform="translate(703,494)"/>
<path d="M0 0 C0.79019531 0.00902344 1.58039063 0.01804687 2.39453125 0.02734375 C3.28205078 0.04474609 3.28205078 0.04474609 4.1875 0.0625 C-0.85518167 5.10518167 -11.06701537 4.24172841 -17.8125 4.25 C-21.64587291 4.23003452 -25.13835077 4.21067163 -28.8125 3.0625 C-28.8125 2.4025 -28.8125 1.7425 -28.8125 1.0625 C-26.84216797 1.07990234 -26.84216797 1.07990234 -24.83203125 1.09765625 C-23.09635559 1.10703828 -21.36067839 1.11613804 -19.625 1.125 C-18.32852539 1.13756836 -18.32852539 1.13756836 -17.00585938 1.15039062 C-11.23283512 1.17250949 -5.72608006 -0.08546388 0 0 Z " fill="#D9D9D8" transform="translate(409.8125,333.9375)"/>
<path d="M0 0 C2.86697492 1.28519565 4.97607712 2.57129254 7 5 C7 5.66 7 6.32 7 7 C8.43861294 6.91253716 9.87597508 6.80434652 11.3125 6.6875 C12.11300781 6.62949219 12.91351563 6.57148438 13.73828125 6.51171875 C16.36272334 5.91793306 17.30820672 5.04219706 19 3 C19.66 3.33 20.32 3.66 21 4 C20.01 5.65 19.02 7.3 18 9 C18.66 9.33 19.32 9.66 20 10 C19 11 19 11 15.9375 11.375 C10.40006446 10.84762519 6.20775374 8.64064663 2.60546875 4.33203125 C1.5 2.6875 1.5 2.6875 0 0 Z " fill="#787B81" transform="translate(425,383)"/>
<path d="M0 0 C0.99 0.33 1.98 0.66 3 1 C3 2.65 3 4.3 3 6 C3.99 6.33 4.98 6.66 6 7 C6.66 11.62 7.32 16.24 8 21 C5 17 5 17 5 15 C4.34 15 3.68 15 3 15 C1.094753 9.89665983 -0.42589023 5.53657294 0 0 Z " fill="#868582" transform="translate(411,347)"/>
<path d="M0 0 C3.81223512 -0.11745244 7.62399682 -0.18766603 11.4375 -0.25 C12.50677734 -0.28351563 13.57605469 -0.31703125 14.67773438 -0.3515625 C21.50998795 -0.43513747 27.16761824 0.18945216 33 4 C33.495 4.99 33.495 4.99 34 6 C33.34 6 32.68 6 32 6 C31.34 6.66 30.68 7.32 30 8 C29.319375 7.2575 29.319375 7.2575 28.625 6.5 C27.12364481 4.77390663 27.12364481 4.77390663 25 5 C25 4.34 25 3.68 25 3 C21.68856994 2.27586627 18.52155779 1.83645745 15.13671875 1.68359375 C13.80737305 1.62075195 13.80737305 1.62075195 12.45117188 1.55664062 C11.53916016 1.51732422 10.62714844 1.47800781 9.6875 1.4375 C8.75615234 1.39431641 7.82480469 1.35113281 6.86523438 1.30664062 C4.57695546 1.20102775 2.28857628 1.09892248 0 1 C0 0.67 0 0.34 0 0 Z " fill="#B8B8B5" transform="translate(424,299)"/>
<path d="M0 0 C0.99 0.33 1.98 0.66 3 1 C0.6090325 2.79848876 -1.78734862 4.58884084 -4.1875 6.375 C-4.86103516 6.88289062 -5.53457031 7.39078125 -6.22851562 7.9140625 C-9.70118005 10.48891613 -12.83541705 12.65762957 -17 14 C-17 13.01 -17 12.02 -17 11 C-15.15663918 9.35414213 -13.37082319 8.17799513 -11.14453125 7.109375 C-7.91763246 5.44008674 -5.06512209 3.26443024 -2.12109375 1.14453125 C-1.07115234 0.57798828 -1.07115234 0.57798828 0 0 Z " fill="#8D6137" transform="translate(377,706)"/>
<path d="M0 0 C0.66 0.33 1.32 0.66 2 1 C-0.36263934 3.64150824 -2.79531792 5.07718936 -5.9375 6.6875 C-12.26223885 10.04434669 -18.1019155 13.94442357 -24 18 C-24.66 17.67 -25.32 17.34 -26 17 C-19.96974788 12.62226889 -13.78504294 8.50021505 -7.5 4.5 C-6.79359375 4.04254395 -6.0871875 3.58508789 -5.359375 3.11376953 C-3.61134458 2.01235792 -1.80926675 0.99763307 0 0 Z " fill="#5E3C1F" transform="translate(686,456)"/>
<path d="M0 0 C3.43595166 1.52708963 6.11912454 3.59927045 9 6 C7.54958473 8.90083054 5.7106171 8.97494308 2.6875 10 C-1.33968856 11.36609761 -1.33968856 11.36609761 -5.16796875 13.1875 C-7 14 -7 14 -10 13 C-5.38 10.69 -0.76 8.38 4 6 C2.68 4.02 1.36 2.04 0 0 Z " fill="#684221" transform="translate(797,424)"/>
<path d="M0 0 C3.9190012 3.00456759 4.81395773 5.88489083 5.6953125 10.5390625 C6.17226467 14.39136852 6.12311552 18.12186109 6 22 C4.23003998 19.34505997 3.6131607 18.0332794 2.9296875 15.05859375 C2.66865234 13.93614258 2.66865234 13.93614258 2.40234375 12.79101562 C2.22832031 12.01435547 2.05429687 11.23769531 1.875 10.4375 C1.60236328 9.26670898 1.60236328 9.26670898 1.32421875 8.07226562 C0 2.30245536 0 2.30245536 0 0 Z " fill="#5F3E20" transform="translate(853,462)"/>
<path d="M0 0 C4.39750672 0.50740462 6.86948922 3.08293314 10 6 C10 6.66 10 7.32 10 8 C10.598125 8.268125 11.19625 8.53625 11.8125 8.8125 C13.97224808 9.98493467 15.35790256 11.19369282 17 13 C16.67 13.99 16.34 14.98 16 16 C15.5875 15.57589844 15.175 15.15179688 14.75 14.71484375 C10.85824049 10.7622755 6.84154834 7.05744522 2.6015625 3.48046875 C1 2 1 2 0 0 Z " fill="#6E4825" transform="translate(753,369)"/>
<path d="M0 0 C0.33 0.66 0.66 1.32 1 2 C0.34 2 -0.32 2 -1 2 C-1 2.66 -1 3.32 -1 4 C-2.93356782 4.69848264 -4.87202298 5.38344814 -6.8125 6.0625 C-7.89144531 6.44535156 -8.97039063 6.82820313 -10.08203125 7.22265625 C-13 8 -13 8 -16 7 C-10.75950071 3.3483755 -6.27968807 1.23351016 0 0 Z " fill="#84562B" transform="translate(736,464)"/>
<path d="M0 0 C4.28553996 0.47957233 6.76931405 3.2187222 9.75 6.0625 C10.25660156 6.53494141 10.76320313 7.00738281 11.28515625 7.49414062 C12.52949613 8.65630711 13.76558064 9.82730161 15 11 C14.67 11.99 14.34 12.98 14 14 C11.85088146 12.04516895 9.70564025 10.08636605 7.5625 8.125 C6.95083984 7.56941406 6.33917969 7.01382812 5.70898438 6.44140625 C5.12568359 5.90644531 4.54238281 5.37148438 3.94140625 4.8203125 C3.40201416 4.32805176 2.86262207 3.83579102 2.30688477 3.32861328 C1 2 1 2 0 0 Z " fill="#704824" transform="translate(737,354)"/>
<path d="M0 0 C2.55263088 2.274694 3.84144815 4.43202693 5.1875 7.5625 C5.53167969 8.34753906 5.87585938 9.13257813 6.23046875 9.94140625 C7 12 7 12 7 14 C6.34 14 5.68 14 5 14 C3.375 12 3.375 12 2 10 C0.02 10.99 0.02 10.99 -2 12 C-2 9 -2 9 0 7 C0.16677282 3.41656024 0.16677282 3.41656024 0 0 Z " fill="#906234" transform="translate(416,365)"/>
<path d="M0 0 C0.66 0.33 1.32 0.66 2 1 C0.35 2.32 -1.3 3.64 -3 5 C-3.66 4.67 -4.32 4.34 -5 4 C-3.35 2.68 -1.7 1.36 0 0 Z M-7 5 C-6.34 5.33 -5.68 5.66 -5 6 C-6.54974981 7.34813187 -8.11537065 8.6780343 -9.6875 10 C-10.99267578 11.11375 -10.99267578 11.11375 -12.32421875 12.25 C-15.23583033 14.15423648 -16.60146088 14.39190361 -20 14 C-20.33 14.66 -20.66 15.32 -21 16 C-21 15.01 -21 14.02 -21 13 C-19.4840625 12.4121875 -19.4840625 12.4121875 -17.9375 11.8125 C-13.83979624 10.07306657 -10.54483113 7.67670922 -7 5 Z M-23 16 C-21 17 -21 17 -21 17 Z " fill="#A97039" transform="translate(472,337)"/>
<path d="M0 0 C0.99 0.66 1.98 1.32 3 2 C2.39671875 2.39832031 1.7934375 2.79664063 1.171875 3.20703125 C0.37265625 3.73683594 -0.4265625 4.26664063 -1.25 4.8125 C-2.03890625 5.33457031 -2.8278125 5.85664062 -3.640625 6.39453125 C-5.81092481 7.87134122 -7.91413768 9.40689873 -10 11 C-10.66 10.67 -11.32 10.34 -12 10 C-11.67 9.01 -11.34 8.02 -11 7 C-10.01 6.67 -9.02 6.34 -8 6 C-7.319375 5.0409375 -7.319375 5.0409375 -6.625 4.0625 C-4.62591262 1.52519679 -3.11529735 0.77882434 0 0 Z " fill="#8E6238" transform="translate(405,686)"/>
<path d="M0 0 C-5.64524422 5.80205656 -5.64524422 5.80205656 -9 8 C-9.66 8 -10.32 8 -11 8 C-11.33 8.66 -11.66 9.32 -12 10 C-12 6.00288588 -10.67858456 4.8957671 -8 2 C-3.61832061 -1.20610687 -3.61832061 -1.20610687 0 0 Z " fill="#938E8A" transform="translate(450,328)"/>
<path d="M0 0 C0.66 0.33 1.32 0.66 2 1 C-4.92271421 4.75854433 -11.172478 5.73510924 -19 6 C-18.01 5.67 -17.02 5.34 -16 5 C-16 4.34 -16 3.68 -16 3 C-14.64455078 2.80083984 -14.64455078 2.80083984 -13.26171875 2.59765625 C-12.08222656 2.42105469 -10.90273438 2.24445313 -9.6875 2.0625 C-7.92986328 1.80146484 -7.92986328 1.80146484 -6.13671875 1.53515625 C-2.98358597 1.07906969 -2.98358597 1.07906969 0 0 Z " fill="#BDBDBE" transform="translate(424,341)"/>
<path d="M0 0 C0.66 0.99 1.32 1.98 2 3 C-0.28703308 4.19725883 -2.57884862 5.38297018 -4.875 6.5625 C-5.52597656 6.90474609 -6.17695312 7.24699219 -6.84765625 7.59960938 C-8.53529857 8.46082891 -10.26579593 9.23686703 -12 10 C-12.66 9.67 -13.32 9.34 -14 9 C-9.38 6.03 -4.76 3.06 0 0 Z " fill="#CB8B4B" transform="translate(530,603)"/>
<path d="M0 0 C0.66 0.33 1.32 0.66 2 1 C0.5993784 4.501554 -0.62264089 5.46483677 -4 7 C-5.70921589 8.5412312 -5.70921589 8.5412312 -7 10 C-7.66 9.67 -8.32 9.34 -9 9 C-6.78310162 4.56620325 -4.22271781 2.53363068 0 0 Z " fill="#B6814F" transform="translate(166,527)"/>
<path d="M0 0 C0.66 0.33 1.32 0.66 2 1 C-3 7.57142857 -3 7.57142857 -8 9 C-8.66 8.34 -9.32 7.68 -10 7 C-6.7 4.69 -3.4 2.38 0 0 Z " fill="#B48050" transform="translate(178,519)"/>
<path d="M0 0 C1.98 0.66 3.96 1.32 6 2 C5.67 2.66 5.34 3.32 5 4 C4.34 4 3.68 4 3 4 C3 5.98 3 7.96 3 10 C2.01 10 1.02 10 0 10 C0 6.7 0 3.4 0 0 Z " fill="#929190" transform="translate(371,332)"/>
<path d="M0 0 C0 0.66 0 1.32 0 2 C-0.60328125 2.32613281 -1.2065625 2.65226562 -1.828125 2.98828125 C-3.02695312 3.64376953 -3.02695312 3.64376953 -4.25 4.3125 C-5.03890625 4.74175781 -5.8278125 5.17101562 -6.640625 5.61328125 C-8.89727134 6.9396214 -10.93998597 8.38884224 -13 10 C-13.66 9.67 -14.32 9.34 -15 9 C-13.37680325 7.68527053 -11.751385 6.37328338 -10.125 5.0625 C-9.22007812 4.33160156 -8.31515625 3.60070312 -7.3828125 2.84765625 C-4.50521084 0.61633562 -3.66498293 0 0 0 Z " fill="#926234" transform="translate(571,478)"/>
<path d="M0 0 C4.28707628 3.81874022 5.77910393 8.94887309 6.1875 14.58984375 C6.1875 16.72747638 6.10167682 18.86478687 6 21 C5.67 21 5.34 21 5 21 C4.86722656 20.26394531 4.73445313 19.52789062 4.59765625 18.76953125 C4.33275391 17.30580078 4.33275391 17.30580078 4.0625 15.8125 C3.80146484 14.36810547 3.80146484 14.36810547 3.53515625 12.89453125 C3.0476265 10.25760028 2.53328895 7.6280095 2 5 C1.34 5 0.68 5 0 5 C0 3.35 0 1.7 0 0 Z " fill="#676767" transform="translate(448,363)"/>
<path d="M0 0 C4.34690791 4.93966808 5.31381216 10.56685067 5 17 C1.24826375 11.37239562 -0.41628689 6.79935253 0 0 Z " fill="#A9A8A7" transform="translate(420,360)"/>
<path d="M0 0 C0.66 0.33 1.32 0.66 2 1 C2 1.66 2 2.32 2 3 C1.21625 3.0825 0.4325 3.165 -0.375 3.25 C-1.24125 3.4975 -2.1075 3.745 -3 4 C-3.309375 4.66 -3.61875 5.32 -3.9375 6 C-4.288125 6.66 -4.63875 7.32 -5 8 C-8.125 8.75 -8.125 8.75 -11 9 C-7.67149253 5.40521193 -4.01028669 2.77635232 0 0 Z " fill="#A77647" transform="translate(231,483)"/>
<path d="M0 0 C0.66 0.66 1.32 1.32 2 2 C-3.445 5.96 -3.445 5.96 -9 10 C-9.66 9.01 -10.32 8.02 -11 7 C-10.01 6.67 -9.02 6.34 -8 6 C-7.67 5.34 -7.34 4.68 -7 4 C-5.6846659 3.29848848 -4.34882408 2.63474075 -3 2 C-2.01 1.34 -1.02 0.68 0 0 Z " fill="#8D6238" transform="translate(428,670)"/>
<path d="M0 0 C0.66 0.33 1.32 0.66 2 1 C2 1.99 2 2.98 2 4 C0.68 4 -0.64 4 -2 4 C-2.66 5.32 -3.32 6.64 -4 8 C-4.66 7.67 -5.32 7.34 -6 7 C-6 6.01 -6 5.02 -6 4 C-3 1.8125 -3 1.8125 0 0 Z " fill="#A17143" transform="translate(277,452)"/>
<path d="M0 0 C0.8353125 1.2065625 0.8353125 1.2065625 1.6875 2.4375 C4.21864487 5.24228216 5.32579134 5.69381595 9 6 C9 6.33 9 6.66 9 7 C4.42010577 7.46733615 1.75145487 7.17261016 -1.9375 4.5 C-2.948125 3.675 -3.95875 2.85 -5 2 C-4.34 1.67 -3.68 1.34 -3 1 C-2.01 1.33 -1.02 1.66 0 2 C0 1.34 0 0.68 0 0 Z " fill="#C99F6E" transform="translate(345,717)"/>
<path d="M0 0 C1.1328125 1.73828125 1.1328125 1.73828125 2 4 C1.2421875 6.10546875 1.2421875 6.10546875 -0.125 8.1875 C-0.77855469 9.22970703 -0.77855469 9.22970703 -1.4453125 10.29296875 C-3.24667503 12.27084671 -4.39188237 12.62501313 -7 13 C-6.57847656 12.39671875 -6.15695312 11.7934375 -5.72265625 11.171875 C-5.17480469 10.37265625 -4.62695312 9.5734375 -4.0625 8.75 C-3.51722656 7.96109375 -2.97195313 7.1721875 -2.41015625 6.359375 C-1.10377559 4.17363007 -0.45019489 2.4846199 0 0 Z " fill="#834C19" transform="translate(454,380)"/>
<path d="M0 0 C0.66 0.33 1.32 0.66 2 1 C2 1.99 2 2.98 2 4 C1.401875 4.12375 0.80375 4.2475 0.1875 4.375 C-2.26231348 4.95475985 -2.26231348 4.95475985 -5 7 C-6.32 6.67 -7.64 6.34 -9 6 C-6.03 4.02 -3.06 2.04 0 0 Z " fill="#926C45" transform="translate(492,308)"/>
<path d="M0 0 C0.66 0.33 1.32 0.66 2 1 C1.01 2.485 1.01 2.485 0 4 C-0.66 4 -1.32 4 -2 4 C-2.66 5.32 -3.32 6.64 -4 8 C-4.66 7.67 -5.32 7.34 -6 7 C-6 6.01 -6 5.02 -6 4 C-3 1.8125 -3 1.8125 0 0 Z " fill="#AE7D4E" transform="translate(203,502)"/>
<path d="M0 0 C1.32 0.66 2.64 1.32 4 2 C0.14522751 4.56984833 -3.52040582 5.85814266 -8 7 C-5.42215154 4.35247996 -3.08351902 2.05567935 0 0 Z " fill="#94704A" transform="translate(478,317)"/>
<path d="M0 0 C3.94139078 1.66751148 6.7892812 4.22710649 10 7 C9.67 7.99 9.34 8.98 9 10 C7.49410612 8.71520959 5.99542625 7.42195918 4.5 6.125 C3.6646875 5.40570313 2.829375 4.68640625 1.96875 3.9453125 C1.3190625 3.30335938 0.669375 2.66140625 0 2 C0 1.34 0 0.68 0 0 Z " fill="#704824" transform="translate(693,312)"/>
<path d="M0 0 C1.32 0.66 2.64 1.32 4 2 C-0.455 4.97 -0.455 4.97 -5 8 C-5 6.68 -5 5.36 -5 4 C-4.01 3.67 -3.02 3.34 -2 3 C-1.34 2.01 -0.68 1.02 0 0 Z " fill="#8F643A" transform="translate(389,696)"/>
<path d="M0 0 C1.48285242 0.95262034 2.96118201 1.91228405 4.4375 2.875 C5.67306641 3.67550781 5.67306641 3.67550781 6.93359375 4.4921875 C9 6 9 6 10 8 C6.06629643 7.43804235 3.16824393 6.44407389 0 4 C0 2.68 0 1.36 0 0 Z " fill="#805730" transform="translate(526,326)"/>
<path d="M0 0 C0.66 0.33 1.32 0.66 2 1 C0.68 1.33 -0.64 1.66 -2 2 C-2 2.66 -2 3.32 -2 4 C-3.8125 5.6875 -3.8125 5.6875 -6 7 C-6.99 6.67 -7.98 6.34 -9 6 C-9 5.34 -9 4.68 -9 4 C-7.54618103 3.30300448 -6.08677047 2.61766134 -4.625 1.9375 C-3.40683594 1.36322266 -3.40683594 1.36322266 -2.1640625 0.77734375 C-1.44992187 0.52082031 -0.73578125 0.26429688 0 0 Z " fill="#865B32" transform="translate(624,318)"/>
<path d="M0 0 C-4.18586481 3.18923033 -6.70558305 4.50423019 -12 4 C-8.15336308 0.86570325 -4.95471579 -1.65157193 0 0 Z " fill="#DDA465" transform="translate(434,624)"/>
<path d="M0 0 C1.75 0.125 1.75 0.125 4 1 C6.25 4.0625 6.25 4.0625 8 7 C7.4225 6.690625 6.845 6.38125 6.25 6.0625 C4.15705816 5.07416636 2.25464725 4.4831387 0 4 C0 2.68 0 1.36 0 0 Z " fill="#623E1E" transform="translate(816,428)"/>
<path d="M0 0 C0.66 0.33 1.32 0.66 2 1 C0.515 3.475 0.515 3.475 -1 6 C-0.34 6.33 0.32 6.66 1 7 C-0.98 7 -2.96 7 -5 7 C-5.33 6.01 -5.66 5.02 -6 4 C-5.195625 3.525625 -4.39125 3.05125 -3.5625 2.5625 C-1.15246512 1.23099846 -1.15246512 1.23099846 0 0 Z " fill="#818384" transform="translate(444,386)"/>
<path d="M0 0 C0.66 0.33 1.32 0.66 2 1 C0.61403861 2.99231949 -0.54374514 3.89083473 -2.91015625 4.45703125 C-8.55046362 5.22476819 -8.55046362 5.22476819 -11 4 C-10.67 3.34 -10.34 2.68 -10 2 C-9.01 2.33 -8.02 2.66 -7 3 C-4.6603447 2.01488198 -2.32671865 1.01529541 0 0 Z " fill="#8C663E" transform="translate(564,344)"/>
<path d="M0 0 C5.17379682 2.24783891 8.77697025 4.16545537 12 9 C7.50985376 7.50328459 3.52151236 5.16631659 0 2 C0 1.34 0 0.68 0 0 Z " fill="#DFB280" transform="translate(317,701)"/>
<path d="M0 0 C1.37562854 1.28965176 2.70766393 2.62689293 4 4 C4 4.66 4 5.32 4 6 C4.66 6.33 5.32 6.66 6 7 C5.34 7 4.68 7 4 7 C4.33 7.99 4.66 8.98 5 10 C4.34 10 3.68 10 3 10 C0 3.375 0 3.375 0 0 Z " fill="#77716A" transform="translate(437,337)"/>
<path d="M0 0 C0.33 0.99 0.66 1.98 1 3 C-0.65 4.32 -2.3 5.64 -4 7 C-4.66 6.67 -5.32 6.34 -6 6 C-6 5.34 -6 4.68 -6 4 C-5.01 4 -4.02 4 -3 4 C-2.67 3.01 -2.34 2.02 -2 1 C-1.34 0.67 -0.68 0.34 0 0 Z " fill="#D9D9D8" transform="translate(449,310)"/>
<path d="M0 0 C0.33 0.66 0.66 1.32 1 2 C-0.2608012 3.03319813 -1.53403258 4.05124379 -2.8125 5.0625 C-3.87404297 5.91521484 -3.87404297 5.91521484 -4.95703125 6.78515625 C-5.63121094 7.18605469 -6.30539062 7.58695313 -7 8 C-7.99 7.67 -8.98 7.34 -10 7 C-6.7 4.69 -3.4 2.38 0 0 Z " fill="#674322" transform="translate(565,536)"/>
<path d="M0 0 C1.32 0.33 2.64 0.66 4 1 C1.69 2.65 -0.62 4.3 -3 6 C-3.66 5.67 -4.32 5.34 -5 5 C-2.75 2.4375 -2.75 2.4375 0 0 Z " fill="#956437" transform="translate(332,415)"/>
<path d="M0 0 C1.32 0.33 2.64 0.66 4 1 C1.69 2.65 -0.62 4.3 -3 6 C-3.66 5.67 -4.32 5.34 -5 5 C-2.75 2.4375 -2.75 2.4375 0 0 Z " fill="#8B5D34" transform="translate(380,383)"/>
<path d="M0 0 C2.89932357 2.39509338 3.50168276 4.31245243 4 8 C3.01 8.33 2.02 8.66 1 9 C0.29925156 5.846632 0 3.27275026 0 0 Z " fill="#82532A" transform="translate(416,365)"/>
<path d="M0 0 C0.66 0.33 1.32 0.66 2 1 C1.67 1.99 1.34 2.98 1 4 C-0.875 4.625 -0.875 4.625 -3 5 C-3.99 5.33 -4.98 5.66 -6 6 C-4.98545548 3.4636387 -4.3146444 2.20648539 -2 0.6875 C-1.34 0.460625 -0.68 0.23375 0 0 Z " fill="#D9A56C" transform="translate(418,631)"/>
<path d="M0 0 C0.66 0 1.32 0 2 0 C1.8125 1.875 1.8125 1.875 1 4 C-1.5625 5.25 -1.5625 5.25 -4 6 C-2.84826645 3.53199953 -1.95216435 1.95216435 0 0 Z " fill="#787777" transform="translate(447,386)"/>
<path d="M0 0 C0.66 0.33 1.32 0.66 2 1 C0.35 2.65 -1.3 4.3 -3 6 C-3.99 5.34 -4.98 4.68 -6 4 C-4.02 2.68 -2.04 1.36 0 0 Z " fill="#926B46" transform="translate(389,377)"/>
<path d="M0 0 C0 0.99 0 1.98 0 3 C-2 5 -2 5 -4.625 5.125 C-5.40875 5.08375 -6.1925 5.0425 -7 5 C-7.33 5.66 -7.66 6.32 -8 7 C-8 6.01 -8 5.02 -8 4 C-6.865625 3.525625 -5.73125 3.05125 -4.5625 2.5625 C-1.24259834 1.36377917 -1.24259834 1.36377917 0 0 Z M-10 7 C-8 8 -8 8 -8 8 Z " fill="#9C6734" transform="translate(459,346)"/>
<path d="M0 0 C3.68754757 0.49831724 5.60490662 1.10067643 8 4 C7.34 4 6.68 4 6 4 C5.34 4.66 4.68 5.32 4 6 C2.68 4.02 1.36 2.04 0 0 Z " fill="#AEABA8" transform="translate(450,301)"/>
<path d="M0 0 C0.33 0 0.66 0 1 0 C1.36923077 6.52307692 1.36923077 6.52307692 -0.5 8.9375 C-0.995 9.288125 -1.49 9.63875 -2 10 C-2.66 9.67 -3.32 9.34 -4 9 C-2.80100302 5.9168649 -1.52299523 2.93720508 0 0 Z " fill="#775637" transform="translate(861,488)"/>
<path d="M0 0 C0.99 0.66 1.98 1.32 3 2 C-2.75 5 -2.75 5 -5 5 C-4 2 -4 2 -1.9375 0.8125 C-1.298125 0.544375 -0.65875 0.27625 0 0 Z " fill="#94683E" transform="translate(498,663)"/>
<path d="M0 0 C0.66 0 1.32 0 2 0 C1.67 0.66 1.34 1.32 1 2 C0.67 1.34 0.34 0.68 0 0 Z " fill="#896039" transform="translate(724,338)"/>
<path d="M0 0 C2 1 2 1 2 1 Z " fill="#A77A50" transform="translate(298,436)"/>
<path d="" fill="#9D8974" transform="translate(0,0)"/>
<path d="M0 0 C2 1 2 1 2 1 Z " fill="#8E6941" transform="translate(560,344)"/>
<path d="M0 0 C2 1 2 1 2 1 Z " fill="#9A7D5B" transform="translate(496,304)"/>
<path d="" fill="#696259" transform="translate(0,0)"/>
<path d="" fill="#665A49" transform="translate(0,0)"/>
<path d="" fill="#B48F68" transform="translate(0,0)"/>
<path d="" fill="#AF8C65" transform="translate(0,0)"/>
<path d="" fill="#AB865C" transform="translate(0,0)"/>
<path d="" fill="#9E764B" transform="translate(0,0)"/>
<path d="" fill="#D7B082" transform="translate(0,0)"/>
<path d="" fill="#DAB082" transform="translate(0,0)"/>
<path d="" fill="#9B7148" transform="translate(0,0)"/>
<path d="" fill="#DDB386" transform="translate(0,0)"/>
<path d="" fill="#AC8159" transform="translate(0,0)"/>
<path d="" fill="#AC8259" transform="translate(0,0)"/>
<path d="" fill="#AF845A" transform="translate(0,0)"/>
<path d="" fill="#997249" transform="translate(0,0)"/>
<path d="" fill="#A67B53" transform="translate(0,0)"/>
<path d="" fill="#9D744A" transform="translate(0,0)"/>
<path d="" fill="#A67E54" transform="translate(0,0)"/>
<path d="" fill="#8D633E" transform="translate(0,0)"/>
<path d="" fill="#8D643F" transform="translate(0,0)"/>
<path d="" fill="#8D643D" transform="translate(0,0)"/>
<path d="" fill="#DFB78A" transform="translate(0,0)"/>
<path d="" fill="#DAB78C" transform="translate(0,0)"/>
<path d="" fill="#845C39" transform="translate(0,0)"/>
<path d="" fill="#DCB58C" transform="translate(0,0)"/>
<path d="" fill="#DAB58C" transform="translate(0,0)"/>
<path d="" fill="#DBB78B" transform="translate(0,0)"/>
<path d="" fill="#DBB88C" transform="translate(0,0)"/>
<path d="" fill="#805936" transform="translate(0,0)"/>
<path d="" fill="#CAA072" transform="translate(0,0)"/>
<path d="" fill="#C99F70" transform="translate(0,0)"/>
<path d="" fill="#805835" transform="translate(0,0)"/>
<path d="" fill="#C29764" transform="translate(0,0)"/>
<path d="" fill="#7E5835" transform="translate(0,0)"/>
<path d="" fill="#BD8D5F" transform="translate(0,0)"/>
<path d="" fill="#BE9062" transform="translate(0,0)"/>
<path d="" fill="#7F5937" transform="translate(0,0)"/>
<path d="" fill="#7A5432" transform="translate(0,0)"/>
<path d="" fill="#B8895B" transform="translate(0,0)"/>
<path d="" fill="#B3895C" transform="translate(0,0)"/>
<path d="" fill="#AF8254" transform="translate(0,0)"/>
<path d="" fill="#AE8255" transform="translate(0,0)"/>
<path d="" fill="#AE7E50" transform="translate(0,0)"/>
<path d="" fill="#AD8255" transform="translate(0,0)"/>
<path d="" fill="#AE7E52" transform="translate(0,0)"/>
<path d="" fill="#B0855D" transform="translate(0,0)"/>
<path d="" fill="#A97F51" transform="translate(0,0)"/>
<path d="" fill="#825C3B" transform="translate(0,0)"/>
<path d="" fill="#A77C51" transform="translate(0,0)"/>
<path d="" fill="#AB7E55" transform="translate(0,0)"/>
<path d="" fill="#AB8053" transform="translate(0,0)"/>
<path d="" fill="#815A38" transform="translate(0,0)"/>
<path d="" fill="#A87D53" transform="translate(0,0)"/>
<path d="" fill="#805C3A" transform="translate(0,0)"/>
<path d="" fill="#A27852" transform="translate(0,0)"/>
<path d="" fill="#855E37" transform="translate(0,0)"/>
<path d="" fill="#A37F58" transform="translate(0,0)"/>
<path d="" fill="#A2805C" transform="translate(0,0)"/>
<path d="" fill="#A3825E" transform="translate(0,0)"/>
<path d="" fill="#9C8264" transform="translate(0,0)"/>
<path d="" fill="#9B8264" transform="translate(0,0)"/>
<path d="" fill="#825E39" transform="translate(0,0)"/>
<path d="" fill="#9A8568" transform="translate(0,0)"/>
<path d="" fill="#9F876C" transform="translate(0,0)"/>
<path d="" fill="#85603A" transform="translate(0,0)"/>
<path d="" fill="#A18F7C" transform="translate(0,0)"/>
<path d="" fill="#A29180" transform="translate(0,0)"/>
<path d="" fill="#6B5C4A" transform="translate(0,0)"/>
<path d="" fill="#AA9A8F" transform="translate(0,0)"/>
<path d="" fill="#A79B8E" transform="translate(0,0)"/>
<path d="" fill="#AEA295" transform="translate(0,0)"/>
<path d="" fill="#875E39" transform="translate(0,0)"/>
<path d="" fill="#AFA59A" transform="translate(0,0)"/>
<path d="" fill="#9E8F7B" transform="translate(0,0)"/>
<path d="" fill="#916A41" transform="translate(0,0)"/>
<path d="" fill="#A08F7C" transform="translate(0,0)"/>
<path d="" fill="#91683E" transform="translate(0,0)"/>
<path d="" fill="#916A42" transform="translate(0,0)"/>
<path d="" fill="#8E6941" transform="translate(0,0)"/>
<path d="" fill="#8E6942" transform="translate(0,0)"/>
<path d="" fill="#906C41" transform="translate(0,0)"/>
<path d="" fill="#926941" transform="translate(0,0)"/>
<path d="" fill="#9F8266" transform="translate(0,0)"/>
<path d="" fill="#896139" transform="translate(0,0)"/>
<path d="" fill="#A0876B" transform="translate(0,0)"/>
<path d="" fill="#926840" transform="translate(0,0)"/>
<path d="" fill="#926A41" transform="translate(0,0)"/>
<path d="" fill="#88633D" transform="translate(0,0)"/>
<path d="" fill="#946C44" transform="translate(0,0)"/>
<path d="" fill="#9D8163" transform="translate(0,0)"/>
<path d="" fill="#B8B6B0" transform="translate(0,0)"/>
<path d="" fill="#656362" transform="translate(0,0)"/>
</svg>
