<?xml version="1.0" encoding="UTF-8"?>
<svg version="1.1" xmlns="http://www.w3.org/2000/svg" width="1024" height="1024">
<path d="M0 0 C0 0.66 0 1.32 0 2 C1.33417969 2.16242187 1.33417969 2.16242187 2.6953125 2.328125 C11.92644709 4.20490414 19.56778681 11.95109812 26.67553711 17.81738281 C33.57491218 23.51128486 40.6718804 28.92192906 47.80175781 34.32226562 C50.11746625 36.08965216 52.41550672 37.87824486 54.7109375 39.671875 C55.48123291 40.27064453 56.25152832 40.86941406 57.04516602 41.48632812 C58.52351394 42.6362781 59.99815788 43.79101054 61.46850586 44.95117188 C62.13503174 45.46744141 62.80155762 45.98371094 63.48828125 46.515625 C64.36286987 47.20060059 64.36286987 47.20060059 65.25512695 47.89941406 C67.2207413 49.1392335 68.69483293 49.70103058 71 50 C73.3570226 49.05719096 75.69034152 48.05352843 78 47 C99.93402609 41.45132447 124.52386894 51.81873337 143.14599609 62.83007812 C157.00496429 71.5754265 170.44507693 83.18784688 176 99 C176 99.99 176 100.98 176 102 C176.60086426 102.08491699 177.20172852 102.16983398 177.82080078 102.25732422 C187.87841316 103.80231351 197.75270778 106.12968557 207.66778564 108.39382935 C213.17709206 109.64982372 218.69014222 110.88916514 224.203125 112.12890625 C225.30665314 112.37710617 226.41018127 112.62530609 227.54714966 112.88102722 C236.89786061 114.98171069 246.25109253 117.06754788 255.625 119.0625 C256.35385406 119.21775146 257.08270813 119.37300293 257.83364868 119.53295898 C268.13591276 121.71189199 278.47393276 123.65250961 288.83984375 125.50390625 C290.052771 125.72109818 291.26569824 125.9382901 292.51538086 126.1620636 C298.51787317 127.23413906 304.52240349 128.29143049 310.53173828 129.32446289 C343.18543713 135.02111098 369.75853926 143.31682575 390 171 C391.70355193 173.64050549 393.31566986 176.29384877 394.84375 179.0390625 C395.97115435 181.13778862 395.97115435 181.13778862 398 183 C399.43736896 185.79835408 400.60171448 188.72245134 401.8125 191.625 C402.16779785 192.47586182 402.5230957 193.32672363 402.88916016 194.20336914 C409.58795991 210.52466178 413.35512982 226.00592515 413.375 243.75 C413.39949219 244.91660156 413.42398438 246.08320313 413.44921875 247.28515625 C413.47885627 256.00846513 411.8324283 260.75135755 407 268 C407.42152344 268.39832031 407.84304688 268.79664063 408.27734375 269.20703125 C408.82519531 269.73683594 409.37304688 270.26664062 409.9375 270.8125 C410.48277344 271.33457031 411.02804687 271.85664063 411.58984375 272.39453125 C415.06362904 276.34945024 414.52841554 281.92671424 414.21777344 286.88671875 C411.62525095 312.04464996 401.89892571 350.80605663 381.5703125 368.0625 C378.19106966 370.36703282 374.66492689 372.19636182 371 374 C371.33 374.66 371.66 375.32 372 376 C372.20223793 382.96276303 370.0814962 387.54271856 366 393 C365.29230469 393.98355469 364.58460938 394.96710938 363.85546875 395.98046875 C348.2634593 417.07883429 328.03821587 434.51783961 305 447 C303.88109375 447.61359375 302.7621875 448.2271875 301.609375 448.859375 C280.53457811 459.53853217 256.05298614 464.06427928 232.5625 464.375 C231.4180542 464.39614868 231.4180542 464.39614868 230.25048828 464.41772461 C224.57430431 464.36759958 219.66131497 463.39335648 215.29296875 459.46484375 C214.92816406 458.96082031 214.56335938 458.45679688 214.1875 457.9375 C212.15007832 455.05354553 212.15007832 455.05354553 210 453 C208.13129992 453.50964548 206.26268652 454.01961108 204.39453125 454.53125 C193.09164783 456.74388623 182.40014758 451.34994467 173.125 445.4375 C161.12974686 437.00528093 150.59772845 426.88875698 140.3203125 416.48046875 C139.17173828 415.32559406 138.02262722 414.17125306 136.87301636 413.01741028 C133.88971814 410.02100494 130.9120916 407.01903629 127.93621826 404.01525879 C123.15648845 399.19187921 118.36962 394.37560851 113.57952499 389.5625248 C111.92652166 387.89944437 110.27704956 386.23292402 108.62796021 384.56596375 C103.78985861 379.68925033 98.93096759 374.89515083 93.68014526 370.45625305 C90.6227472 367.80627667 87.82882795 364.88930551 85 362 C78.64623574 355.57933618 72.12428322 349.56584626 65 344 C64.45472656 345.80017578 64.45472656 345.80017578 63.8984375 347.63671875 C61.68293813 354.26899837 58.62022549 360.50569011 55.625 366.8125 C54.99454135 368.15020077 54.36466963 369.48817829 53.73535156 370.82641602 C52.44618577 373.56712017 51.15499176 376.30685349 49.86230469 379.04589844 C45.76829606 387.72877275 41.74437442 396.44452857 37.70968628 405.15507507 C36.10558455 408.61759703 34.49868311 412.07879573 32.88867188 415.53857422 C23.53175965 435.6480847 14.33046768 455.79609505 5.62597656 476.19775391 C3.90663473 480.22460591 2.16822485 484.24312625 0.4296875 488.26171875 C-14.52154485 522.86018709 -28.69147745 557.73664776 -42 593 C-42.28617188 593.75774719 -42.57234375 594.51549438 -42.8671875 595.29620361 C-49.25351777 612.21842962 -55.47803419 629.194603 -61.5 646.25 C-61.74398529 646.94066559 -61.98797058 647.63133118 -62.23934937 648.34292603 C-63.84296178 652.88955689 -65.42874069 657.44209192 -67 662 C-67.23847656 662.68956787 -67.47695313 663.37913574 -67.72265625 664.08959961 C-68.43516229 666.1568673 -69.1405883 668.22641256 -69.84375 670.296875 C-70.25818359 671.51213867 -70.67261719 672.72740234 -71.09960938 673.97949219 C-72.14283517 676.95385532 -72.14283517 676.95385532 -72 680 C-72.66 680 -73.32 680 -74 680 C-74.17400833 680.65937561 -74.34801666 681.31875122 -74.52729797 681.99810791 C-76.38496227 688.93524856 -78.46405671 695.77529197 -80.66796875 702.609375 C-81.39578427 704.88470656 -82.12314002 707.16018522 -82.85009766 709.43579102 C-83.23063293 710.62552521 -83.61116821 711.8152594 -84.00323486 713.04104614 C-93.53014783 742.87801381 -102.40668797 772.88037394 -111 803 C-111.34671753 804.21518311 -111.69343506 805.43036621 -112.05065918 806.68237305 C-113.12524408 810.4496143 -114.19936872 814.21698657 -115.2734375 817.984375 C-115.62866486 819.22972519 -115.98389221 820.47507538 -116.34988403 821.75816345 C-118.04571921 827.70463908 -119.73837508 833.65196458 -121.42236328 839.60180664 C-124.58195043 850.74287627 -127.80764337 861.863381 -131.15625 872.94921875 C-131.62230652 874.51963676 -131.62230652 874.51963676 -132.09777832 876.1217804 C-137.5160541 893.86210588 -145.58378831 910.34992961 -162 920 C-176.04775075 927.17510714 -189.76982081 929.5155875 -205.5 929.375 C-206.79808594 929.38660156 -208.09617187 929.39820313 -209.43359375 929.41015625 C-232.96703584 929.33962645 -257.22043903 920.82750336 -274.546875 904.6171875 C-285.19498362 893.51670825 -286.51304797 881.79851541 -286.26171875 867.05078125 C-286.01586505 860.53265999 -284.54644721 854.9799882 -282 849 C-281.61360352 848.0915332 -281.22720703 847.18306641 -280.82910156 846.24707031 C-279.0303913 842.05007971 -277.21875271 837.86026641 -275.35400391 833.69213867 C-274.92265137 832.72767822 -274.49129883 831.76321777 -274.046875 830.76953125 C-273.65338867 829.89917236 -273.25990234 829.02881348 -272.85449219 828.13208008 C-271.87599544 826.07341385 -271.87599544 826.07341385 -272 824 C-271.34 824 -270.68 824 -270 824 C-269.42958984 822.15921875 -269.42958984 822.15921875 -268.84765625 820.28125 C-266.80250088 814.16125045 -264.11753032 808.36320809 -261.4375 802.5 C-260.25998259 799.90371375 -259.08667258 797.30553706 -257.9140625 794.70703125 C-257.60223526 794.01668289 -257.29040802 793.32633453 -256.96913147 792.61506653 C-253.40018737 784.69762316 -249.92567464 776.73905808 -246.44680786 768.78173828 C-240.04881817 754.14910604 -233.57576612 739.55360961 -227 725 C-220.51429043 710.64508271 -214.13017754 696.24899535 -207.81869507 681.81665039 C-203.69371372 672.38489538 -199.55008519 662.96262967 -195.3359375 653.5703125 C-194.76308769 652.29334 -194.76308769 652.29334 -194.17866516 650.99057007 C-192.37146165 646.96486596 -190.56031557 642.94098751 -188.74389648 638.91943359 C-188.08525717 637.45693871 -187.42712474 635.99421542 -186.76953125 634.53125 C-186.45461227 633.83141998 -186.1396933 633.13158997 -185.81523132 632.41055298 C-183.14062014 626.41836649 -180.65396004 620.3536286 -178.26679993 614.24133301 C-176.21650938 609.10825469 -176.21650938 609.10825469 -174 608 C-173.62952506 606.34119404 -173.3016907 604.67268395 -173 603 C-172.43454868 601.49985731 -171.81917959 600.01789798 -171.1640625 598.5546875 C-170.76912598 597.66499268 -170.37418945 596.77529785 -169.96728516 595.85864258 C-169.52433105 594.87404053 -169.08137695 593.88943848 -168.625 592.875 C-167.62488214 590.6263545 -166.62489236 588.37765203 -165.625 586.12890625 C-165.0521862 584.84516894 -164.47926462 583.56147972 -163.90625 582.27783203 C-160.54029724 574.73131797 -157.20359056 567.17180157 -153.8631897 559.61395264 C-153.03539183 557.74102756 -152.20740819 555.86818458 -151.37924194 553.99542236 C-144.63950444 538.7532036 -137.97516242 523.48050858 -131.37304688 508.17822266 C-129.32054134 503.42724166 -127.25396188 498.68242264 -125.1875 493.9375 C-112.00561454 463.66296517 -112.00561454 463.66296517 -99 433.3125 C-98.68015137 432.56581055 -98.36030273 431.81912109 -98.03076172 431.04980469 C-96.50855675 427.64372912 -96.50855675 427.64372912 -96 424 C-95.34 424 -94.68 424 -94 424 C-93.87710098 423.27882492 -93.75420197 422.55764984 -93.62757874 421.81462097 C-92.9993461 418.99706732 -92.10791814 416.61043598 -90.95874023 413.96606445 C-90.32819984 412.50478874 -90.32819984 412.50478874 -89.68492126 411.01399231 C-89.23073318 409.97425766 -88.7765451 408.93452301 -88.30859375 407.86328125 C-87.84389175 406.78749313 -87.37918976 405.71170502 -86.90040588 404.60331726 C-85.41736524 401.17103426 -83.92802153 397.74154027 -82.4375 394.3125 C-80.94384709 390.87256481 -79.45163895 387.43203747 -77.96388245 383.98954773 C-77.03819293 381.84787869 -76.10902715 379.70770833 -75.1761322 377.56916809 C-74.7589241 376.60444077 -74.341716 375.63971344 -73.91186523 374.64575195 C-73.5418187 373.79479446 -73.17177216 372.94383698 -72.79051208 372.0670929 C-71.88093407 370.05750598 -71.88093407 370.05750598 -72 368 C-71.34 368 -70.68 368 -70 368 C-69.87955322 367.28384521 -69.75910645 366.56769043 -69.63500977 365.82983398 C-68.98182524 362.91900668 -68.03403274 360.45414169 -66.83984375 357.72265625 C-66.38383789 356.67078125 -65.92783203 355.61890625 -65.45800781 354.53515625 C-64.95624023 353.38917969 -64.45447266 352.24320312 -63.9375 351.0625 C-62.84649834 348.54346109 -61.75658297 346.02397559 -60.66796875 343.50390625 C-60.37781891 342.83336212 -60.08766907 342.16281799 -59.78872681 341.47195435 C-51.66367425 322.67360334 -43.68162763 303.79657881 -36 284.8125 C-35.51998535 283.63880859 -35.51998535 283.63880859 -35.03027344 282.44140625 C-33.84327415 279.47046944 -33 277.23102016 -33 274 C-34.42262353 272.68513907 -34.42262353 272.68513907 -36.3828125 271.57421875 C-37.12660156 271.11466797 -37.87039063 270.65511719 -38.63671875 270.18164062 C-39.45785156 269.68857422 -40.27898437 269.19550781 -41.125 268.6875 C-42.87805232 267.60880089 -44.63063829 266.52934361 -46.3828125 265.44921875 C-47.30481445 264.88509277 -48.22681641 264.3209668 -49.17675781 263.73974609 C-53.81830016 260.87952206 -58.40668207 257.93679805 -63 255 C-64.86298073 253.81333015 -66.72626068 252.62712994 -68.58984375 251.44140625 C-69.49718262 250.86406738 -70.40452148 250.28672852 -71.33935547 249.69189453 C-82.12416143 242.83387422 -92.9375042 236.02671266 -103.8125 229.3125 C-107.20997906 227.21097933 -110.6058344 225.10686791 -114 223 C-114.70092773 222.56526367 -115.40185547 222.13052734 -116.12402344 221.68261719 C-134.05431805 210.51746111 -148.33892419 198.40841192 -154.03125 177.1484375 C-162.40929176 139.58963955 -145.42312867 100.66045041 -125.76171875 69.37890625 C-121.80417763 63.34653774 -117.53014578 57.61132616 -113 52 C-112.29810547 51.04287109 -112.29810547 51.04287109 -111.58203125 50.06640625 C-107.70449465 45.01583337 -103.12848107 41.8484145 -97 40 C-92.39368342 39.80454102 -88.35575335 40.54808222 -84 42 C-84.350625 41.195625 -84.70125 40.39125 -85.0625 39.5625 C-86.64070544 33.56531934 -85.95832163 29.02312344 -83.3125 23.4375 C-78.98759902 18.03450776 -72.0570393 15.08917547 -66 12 C-65.11183594 11.5359375 -64.22367188 11.071875 -63.30859375 10.59375 C-43.7290866 1.03380285 -21.6336763 -3.60561272 0 0 Z " fill="#D17F21" transform="translate(488,48)"/>
<path d="M0 0 C4.05718147 3.08026799 8.04488121 6.23907468 12.02099609 9.42285156 C15.61726026 12.28886026 19.24576769 15.1134285 22.875 17.9375 C24.00252686 18.81498901 24.00252686 18.81498901 25.15283203 19.71020508 C30.38105001 23.76820214 35.64362144 27.77807159 40.9375 31.75 C41.60571777 32.25136475 42.27393555 32.75272949 42.96240234 33.26928711 C45.60565796 35.24399498 48.25405078 37.16936719 51 39 C51.30078125 42.125 51.30078125 42.125 51.3125 46 C51.791783 58.19348069 58.4456862 65.2304624 66.9296875 73.24609375 C71.00572213 76.97004984 75.30046947 80.10425986 80 83 C81.0003125 83.63292969 82.000625 84.26585937 83.03125 84.91796875 C97.08779108 93.40772546 113.46287242 100.85763263 130 102 C131.175625 102.08121094 131.175625 102.08121094 132.375 102.1640625 C142.05885199 102.50548036 150.93627028 100.73896634 158.37890625 94.3046875 C160 93 160 93 163 92 C165.57763672 92.44970703 165.57763672 92.44970703 168.6796875 93.2578125 C169.824375 93.55099365 170.9690625 93.8441748 172.1484375 94.14624023 C173.37820313 94.46923096 174.60796875 94.79222168 175.875 95.125 C177.80873234 95.62029872 179.74246661 96.1155914 181.67657471 96.60942078 C183.60619157 97.10265804 185.53503242 97.59892796 187.46386719 98.09521484 C201.80011002 101.76340843 216.24434805 104.97293847 230.6875 108.1875 C231.47116943 108.36207733 232.25483887 108.53665466 233.06225586 108.71652222 C241.35868062 110.56240925 249.65626041 112.37783727 258 114 C258 114.33 258 114.66 258 115 C257.18917969 115.24234375 256.37835937 115.4846875 255.54296875 115.734375 C237.78487674 122.07794921 219.8908602 133.92137432 207.08203125 147.7421875 C200.47703236 151.73244949 190.46280765 147.72272224 183.5625 146.125 C173.0613431 143.7729929 162.72352464 141.88852061 152 141 C165.30369954 149.79912626 178.66839756 158.43607028 192.43505859 166.49560547 C194.2355082 167.55160875 196.03241231 168.61366916 197.82666016 169.68017578 C200.69031594 171.38165699 203.56255838 173.06767293 206.4375 174.75 C207.32002441 175.2761792 208.20254883 175.8023584 209.11181641 176.34448242 C209.93987793 176.82377197 210.76793945 177.30306152 211.62109375 177.796875 C212.71055298 178.43641113 212.71055298 178.43641113 213.82202148 179.08886719 C216.35536483 180.14866288 218.28020317 180.16821641 221 180 C220.50818942 175.27861842 219.54084829 171.43455139 217.62109375 167.08984375 C216.74558911 164.14396336 216.56493146 162.06115792 217 159 C219.28125 156.578125 219.28125 156.578125 222.5 154.25 C223.08458984 153.82589844 223.66917969 153.40179688 224.27148438 152.96484375 C226.16234025 151.61394777 228.07576136 150.30282959 230 149 C230.60972656 148.58169922 231.21945312 148.16339844 231.84765625 147.73242188 C255.11646134 131.94816874 284.66131819 117.89577951 313.32836914 123.22924805 C336.39443093 127.83296376 354.2580825 135.85492923 367.9609375 155.86328125 C375.56156223 167.78839937 381.46588946 180.27202286 385 194 C385.22558594 194.84175781 385.45117188 195.68351563 385.68359375 196.55078125 C387.667165 205.34689377 389.02087382 216.12153585 387 225 C384.22423657 229.06257384 381.10235952 231.37729494 377 234 C375.14521407 237.70957186 375.55223652 241.95093877 376 246 C378.56121692 250.71263913 382.37486332 252.59848672 387 255 C386.50597457 262.69536011 385.33117161 269.9659924 383.4375 277.4375 C383.17573975 278.47302002 382.91397949 279.50854004 382.64428711 280.57543945 C378.72393193 295.47142118 372.97949947 309.80082795 365 323 C364.64035156 323.66515625 364.28070312 324.3303125 363.91015625 325.015625 C362.06326013 327.88702576 360.19651375 328.9431278 356.9765625 329.875 C354.71490491 330.36290815 352.44044441 330.79581621 350.15625 331.1640625 C346.55068329 332.1190022 344.64181771 333.39217627 342 336 C341.37799984 339.65425096 341.59213257 341.3474121 343.5625 344.5 C345.48190641 347.8380981 344.92967091 349.31321682 344 353 C338.93464599 362.00661576 331.15152297 369.6099799 324 377 C323.44965088 377.57443848 322.89930176 378.14887695 322.33227539 378.74072266 C318.3346411 382.83996793 314.15318931 386.45645057 309.5625 389.875 C308.87365723 390.38820801 308.18481445 390.90141602 307.47509766 391.43017578 C282.48108103 409.67211981 251.09093431 420.34960647 220 419 C219.66226562 418.18015625 219.32453125 417.3603125 218.9765625 416.515625 C218.53054688 415.43796875 218.08453125 414.3603125 217.625 413.25 C217.18414063 412.18265625 216.74328125 411.1153125 216.2890625 410.015625 C214.58047346 405.18779444 214.58047346 405.18779444 211 402 C205.51192565 401.06585968 203.1569516 402.36534481 198.625 405.5625 C192.63271531 409.57912679 192.63271531 409.57912679 188.5 409.3125 C178.70243795 407.16437142 169.30893144 400.64209998 163 393 C155.88025406 381.83813614 152.39663045 368.66297517 149 356 C148.48566406 354.19208984 148.48566406 354.19208984 147.9609375 352.34765625 C145.03791195 340.26002418 144.62483365 328.04935896 144.6875 315.6875 C144.68965515 314.91864471 144.6918103 314.14978943 144.69403076 313.3576355 C144.74502008 302.00926921 145.09506284 291.02205716 148 280 C148.29801514 278.84201904 148.29801514 278.84201904 148.60205078 277.66064453 C151.42999627 266.94834466 155.09409791 256.67872144 159.54760742 246.53369141 C160.91540756 243.32244945 161.96640667 240.70743606 162.1328125 237.203125 C160.41856341 233.86920607 157.60719499 232.44769943 154.4375 230.6875 C153.51420898 230.14899414 153.51420898 230.14899414 152.57226562 229.59960938 C151.05660643 228.71841217 149.52935624 227.85720523 148 227 C147.76023437 227.76699219 147.52046875 228.53398437 147.2734375 229.32421875 C146.2520007 232.2725992 145.15537355 235.13331107 143.9765625 238.01953125 C139.26553377 249.58460177 135.37993812 260.73037081 133 273 C132.82484863 273.66862061 132.64969727 274.33724121 132.46923828 275.02612305 C130.48816417 283.13027788 130.69851925 291.30350404 130.73925781 299.59301758 C130.74990464 302.16446924 130.73935691 304.7352112 130.7265625 307.30664062 C130.72009843 316.25818994 131.1392872 324.88989589 132.57128906 333.73168945 C133.02482181 337.18923094 133.06954714 340.51684731 133 344 C133.66 344.33 134.32 344.66 135 345 C135.38250342 346.32006819 135.70764868 347.65708541 136 349 C136.53747331 350.44704352 137.10274045 351.88391022 137.6875 353.3125 C138.03683594 354.17617188 138.38617187 355.03984375 138.74609375 355.9296875 C139.42027051 357.58047545 140.09510041 359.23100099 140.77392578 360.87988281 C141.60362976 362.89733729 142.42688551 364.91734953 143.25 366.9375 C143.52030029 367.58823486 143.79060059 368.23896973 144.0690918 368.90942383 C145.23381192 371.77570676 146 373.87358845 146 377 C144.16052663 375.21427748 142.32842259 373.42197551 140.5 371.625 C139.97535156 371.11710937 139.45070313 370.60921875 138.91015625 370.0859375 C137.56846819 368.76167396 136.28004185 367.38394135 135 366 C135 365.34 135 364.68 135 364 C134.41112 363.89942291 133.82223999 363.79884583 133.21551514 363.69522095 C130.58950426 362.87118786 129.47347289 361.83075194 127.55175781 359.87646484 C126.8971759 359.21842865 126.24259399 358.56039246 125.56817627 357.88241577 C124.87020935 357.16582794 124.17224243 356.44924011 123.453125 355.7109375 C122.72309265 354.97428864 121.9930603 354.23763977 121.24090576 353.47866821 C118.90341226 351.117758 116.57626872 348.74696672 114.25 346.375 C111.9363851 344.02614013 109.62059835 341.67948419 107.30194092 339.33560181 C105.86051708 337.87742367 104.42220407 336.41616125 102.98760986 334.95126343 C99.0713599 330.97773276 95.05439262 327.20828542 90.80780029 323.58877563 C88.95714295 321.96233531 87.22421253 320.25918858 85.5 318.5 C82.53629297 315.48956785 79.43056668 312.70989367 76.23828125 309.9453125 C63.85639277 299.18409005 63.85639277 299.18409005 59.5625 294 C54.24038226 287.67029687 47.42760829 281.65404178 40 278 C39.67 277.34 39.34 276.68 39 276 C38.01 275.67 37.02 275.34 36 275 C35.67 274.34 35.34 273.68 35 273 C34.01 272.67 33.02 272.34 32 272 C31.67 271.34 31.34 270.68 31 270 C29.02477154 268.95191959 27.02518491 267.9479589 25 267 C25 266.34 25 265.68 25 265 C24.13375 264.7525 23.2675 264.505 22.375 264.25 C18.78939936 262.92199976 16.03672013 261.31369152 13 259 C13 258.34 13 257.68 13 257 C12.38125 256.855625 11.7625 256.71125 11.125 256.5625 C9 256 9 256 7 255 C7 254.34 7 253.68 7 253 C6.01 253 5.02 253 4 253 C4 252.34 4 251.68 4 251 C3.4225 250.9175 2.845 250.835 2.25 250.75 C-0.60431367 249.79856211 -1.89608193 248.10391807 -4 246 C-4.99 246 -5.98 246 -7 246 C-7 245.34 -7 244.68 -7 244 C-7.61875 243.855625 -8.2375 243.71125 -8.875 243.5625 C-11 243 -11 243 -13 242 C-13 241.34 -13 240.68 -13 240 C-13.99 240 -14.98 240 -16 240 C-16.33 239.34 -16.66 238.68 -17 238 C-17.598125 237.87625 -18.19625 237.7525 -18.8125 237.625 C-21 237 -21 237 -22.875 235.0625 C-25.41000991 232.60204921 -27.62826436 231.91956427 -31 231 C-31 230.34 -31 229.68 -31 229 C-31.99 229 -32.98 229 -34 229 C-35.02880007 228.02965448 -36.02374312 227.02319231 -37 226 C-38.64191347 224.879505 -40.31213892 223.8000066 -42 222.75 C-42.98226562 222.13511719 -43.96453125 221.52023437 -44.9765625 220.88671875 C-45.97429687 220.26410156 -46.97203125 219.64148438 -48 219 C-49.79264758 217.85570191 -51.58433175 216.709893 -53.375 215.5625 C-57.50710827 212.93621024 -61.65162327 210.33045789 -65.8125 207.75 C-66.85019531 207.10546875 -67.88789063 206.4609375 -68.95703125 205.796875 C-71.91604665 204.04957451 -74.91352556 202.50821048 -78 201 C-84.32430594 197.73902975 -90.43536955 194.19153792 -96.4375 190.375 C-97.02853516 190.00294434 -97.61957031 189.63088867 -98.22851562 189.24755859 C-100.72134239 187.64064191 -102.94817376 186.05192514 -105.046875 183.94921875 C-107.41667202 181.58416132 -109.91126444 180.10226546 -112.8125 178.4375 C-113.87855469 177.82519531 -114.94460938 177.21289062 -116.04296875 176.58203125 C-119.04714653 174.89340842 -119.04714653 174.89340842 -122.625 173.625 C-130.55580011 169.80646662 -137.30904757 162.99940262 -141 155 C-141.58587891 153.77410156 -141.58587891 153.77410156 -142.18359375 152.5234375 C-149.28850611 134.28175941 -145.73514651 112.75629535 -139 95 C-138.50983398 93.70352539 -138.50983398 93.70352539 -138.00976562 92.38085938 C-130.74995871 73.64364344 -121.29977095 55.9097213 -109 40 C-108.40058594 39.21625 -107.80117188 38.4325 -107.18359375 37.625 C-103.03312749 32.46552314 -103.03312749 32.46552314 -99 32 C-96.94458008 32.52905273 -96.94458008 32.52905273 -94.76953125 33.43359375 C-93.96580078 33.75263672 -93.16207031 34.07167969 -92.33398438 34.40039062 C-90.67107039 35.08436222 -89.00957234 35.77178788 -87.34960938 36.46289062 C-81.30082388 38.85449475 -75.17960835 40.63425126 -68.86645508 38.16577148 C-66.69376915 36.98682959 -66.69376915 36.98682959 -65 34 C-64.06691289 29.03729777 -64.11817035 24.67386464 -66.49609375 20.16015625 C-68.24382676 17.68571513 -70.07330586 15.33644357 -72 13 C-74 10 -74 10 -73.82568359 7.9375 C-72.37501218 4.53344077 -68.81901916 3.49003632 -65.625 2 C-64.89619629 1.65042236 -64.16739258 1.30084473 -63.41650391 0.94067383 C-42.17815636 -9.09752596 -20.11432406 -14.54743541 0 0 Z " fill="#F8D658" transform="translate(496,75)"/>
<path d="M0 0 C6.16257981 3.16189891 11.37189639 6.80114787 16.71484375 11.2109375 C19.32371976 13.25344214 21.98933547 14.63151612 25 16 C28.375 18.0625 28.375 18.0625 31 20 C31 20.66 31 21.32 31 22 C31.74386963 22.11230957 32.48773926 22.22461914 33.25415039 22.34033203 C36.08372731 23.0201148 37.6099854 23.84736725 39.93359375 25.5546875 C40.65885254 26.08231689 41.38411133 26.60994629 42.13134766 27.15356445 C42.89237793 27.72163818 43.6534082 28.28971191 44.4375 28.875 C45.22431152 29.4527417 46.01112305 30.0304834 46.82177734 30.62573242 C54.00301494 35.92858811 61.03738539 41.41423684 68 47 C66.2779782 52.8984195 63.56260388 58.24812598 60.875 63.75 C59.78265775 66.00593149 58.69157932 68.26247524 57.6015625 70.51953125 C57.31285278 71.11697647 57.02414307 71.71442169 56.72668457 72.32997131 C52.48937253 81.11185985 48.35943289 89.94462716 44.21533203 98.77075195 C43.87639923 99.49261185 43.53746643 100.21447174 43.18826294 100.95820618 C42.49895371 102.42633883 41.80972468 103.89450914 41.12057495 105.36271667 C38.70480896 110.50691185 36.27680725 115.64521407 33.84375 120.78125 C26.61605208 136.04979128 19.53527022 151.36119513 12.73046875 166.82421875 C10.58657124 171.69314073 8.39364974 176.53710609 6.17333984 181.37158203 C0.64129022 193.41706819 -4.55699886 205.59096739 -9.66943359 217.81982422 C-10.91635135 220.80007206 -12.17008609 223.77734845 -13.42578125 226.75390625 C-18.51334461 238.84845554 -23.43885701 251.00555418 -28.3125 263.1875 C-28.60927643 263.92894257 -28.90605286 264.67038513 -29.21182251 265.43429565 C-34.54456259 278.76716388 -39.7181531 292.15189856 -44.6875 305.625 C-49.83984568 319.59232878 -49.83984568 319.59232878 -52.23828125 325.92578125 C-73.67063679 382.73324792 -92.0886514 440.63261813 -108.75 499 C-108.99048065 499.84240234 -109.2309613 500.68480469 -109.47872925 501.55273438 C-112.31983795 511.5141118 -115.13691342 521.48203971 -117.93354797 531.45599365 C-130.99567962 578.00406017 -130.99567962 578.00406017 -136.6875 594 C-137.06084473 595.05300293 -137.43418945 596.10600586 -137.81884766 597.19091797 C-142.60508244 610.0614469 -149.20403667 618.8980794 -161.87109375 624.7109375 C-178.20928499 631.44202752 -198.15783181 631.05482926 -215 626 C-216.00675781 625.7215625 -217.01351562 625.443125 -218.05078125 625.15625 C-230.69420626 621.35174338 -244.51061614 614.78549245 -251.73046875 603.23046875 C-256.05490772 592.22643482 -253.17418103 580.55164796 -248.67700195 570.14111328 C-247.89002027 568.37660875 -247.09464395 566.61583025 -246.29199219 564.85839844 C-244.9104203 561.80181421 -243.59431149 558.72273314 -242.2890625 555.6328125 C-239.23367378 548.40403228 -236.12365257 541.19946086 -233 534 C-232.70724182 533.32491394 -232.41448364 532.64982788 -232.112854 531.95428467 C-230.2755115 527.71881777 -228.4341793 523.4851105 -226.58843994 519.2532959 C-226.00033106 517.904801 -225.4127033 516.55609615 -224.82562256 515.20715332 C-221.48552371 507.53783491 -218.05472404 499.92087471 -214.49783325 492.34957886 C-211.92946057 486.87513387 -209.47787467 481.35574641 -207.0625 475.8125 C-202.57601812 465.56783979 -198.04795779 455.34247455 -193.5 445.125 C-187.00048147 430.52058895 -180.53675247 415.90059516 -174.08279419 401.27600098 C-169.23507784 390.29343977 -164.36482917 379.3220825 -159.4375 368.375 C-151.96471385 351.7631015 -144.6702434 335.07312715 -137.36132812 318.38867188 C-133.81859552 310.3024306 -130.26909216 302.21916144 -126.7197876 294.13580322 C-125.56676662 291.50971753 -124.41397333 288.883532 -123.26123047 286.25732422 C-119.74702052 278.25174245 -116.22969063 270.24757072 -112.70336914 262.24731445 C-104.74518678 244.18983799 -96.87118192 226.09552931 -89 208 C-88.69666748 207.30267761 -88.39333496 206.60535522 -88.08081055 205.88690186 C-81.18603351 190.03383814 -74.3458546 174.15804551 -67.54345703 158.26516724 C-63.17636253 148.06284178 -58.79074683 137.86886517 -54.375 127.6875 C-54.11041992 127.07727997 -53.84583984 126.46705994 -53.57324219 125.83834839 C-50.91059248 119.69793762 -48.24411531 113.5592007 -45.57148743 107.42312622 C-38.2120471 90.52367066 -30.9991516 73.56724126 -23.90136719 56.55615234 C-20.48815172 48.37584442 -17.0686594 40.19816013 -13.64828491 32.02084351 C-12.46160885 29.18266133 -11.27627361 26.34392195 -10.09106445 23.50512695 C-9.35112509 21.73516753 -8.61113706 19.96522846 -7.87109375 18.1953125 C-7.53929108 17.39962357 -7.2074884 16.60393463 -6.8656311 15.78413391 C-4.64987591 10.48945461 -2.35119926 5.23590347 0 0 Z " fill="#F6D046" transform="translate(473,330)"/>
<path d="M0 0 C0.8257251 0.17354004 1.6514502 0.34708008 2.50219727 0.52587891 C3.36643311 0.71714355 4.23066895 0.9084082 5.12109375 1.10546875 C6.91240343 1.48605909 8.70407058 1.86497094 10.49609375 2.2421875 C11.36234375 2.42571777 12.22859375 2.60924805 13.12109375 2.79833984 C17.17182498 3.62033318 21.25181723 4.22544494 25.34375 4.80078125 C27.55859375 5.29296875 27.55859375 5.29296875 30.55859375 7.29296875 C29.23859375 7.29296875 27.91859375 7.29296875 26.55859375 7.29296875 C26.55859375 7.95296875 26.55859375 8.61296875 26.55859375 9.29296875 C26.01259521 9.41712158 25.46659668 9.54127441 24.90405273 9.66918945 C5.43063064 14.22438774 -13.06966499 21.6265872 -29.44140625 33.29296875 C-30.76770259 34.18047492 -32.09457505 35.06712047 -33.421875 35.953125 C-34.82566435 36.91847412 -36.22801363 37.88592074 -37.62890625 38.85546875 C-38.30244141 39.30277344 -38.97597656 39.75007813 -39.66992188 40.2109375 C-42.69856078 42.36659724 -44.30381036 43.55072614 -44.99609375 47.28515625 C-44.24944995 51.33385856 -42.81077306 54.83033035 -41.21875 58.609375 C-40.34966211 61.60969349 -40.58790643 63.32450712 -41.44140625 66.29296875 C-48.86558048 66.08145381 -54.3233342 62.27051056 -60.56640625 58.54296875 C-61.72396419 57.86170418 -62.88192877 57.18113011 -64.0402832 56.5012207 C-77.6112606 48.50755085 -91.03894738 40.27228718 -104.19140625 31.60546875 C-105.13149536 30.98998169 -105.13149536 30.98998169 -106.09057617 30.36206055 C-110.32089046 27.53400033 -110.32089046 27.53400033 -111.44140625 25.29296875 C-99.10120327 26.2397039 -87.24574154 28.45990204 -75.19042969 31.26025391 C-66.39271627 33.32657884 -66.39271627 33.32657884 -57.44140625 33.29296875 C-55.0053421 31.84960392 -55.0053421 31.84960392 -53.06640625 29.60546875 C-42.87552075 19.70974609 -31.03098199 11.89860489 -18.62890625 5.04296875 C-17.78730957 4.57713379 -16.94571289 4.11129883 -16.07861328 3.63134766 C-10.61674519 0.70039998 -6.28385897 -1.36803197 0 0 Z " fill="#E59728" transform="translate(758.44140625,189.70703125)"/>
<path d="M0 0 C3.49243808 1.30656815 6.60297421 2.81128729 9.75 4.8125 C10.91789063 5.53373047 10.91789063 5.53373047 12.109375 6.26953125 C14 8 14 8 14.98828125 10.1328125 C15.00637561 14.55989975 13.19733749 18.05361574 11.4375 22.0625 C7.20394519 32.19514863 3.73720926 42.36417717 1 53 C0.73098877 54.0206958 0.73098877 54.0206958 0.45654297 55.06201172 C-2.30906631 66.11620969 -2.28075053 77.36080107 -2.3125 88.6875 C-2.31626648 89.43049347 -2.32003296 90.17348694 -2.32391357 90.93899536 C-2.35892416 104.5801342 -1.27912518 117.77109916 2.5625 130.9375 C3.82874967 135.35645294 5.0300878 139.61511269 5.48828125 144.19921875 C5.9955015 147.96658746 6.91818405 150.50904452 8.625 153.875 C10.0390625 156.6796875 10.0390625 156.6796875 11 159 C10.67 159.66 10.34 160.32 10 161 C8.72799029 159.89718873 7.45744147 158.79269231 6.1875 157.6875 C5.47980469 157.07261719 4.77210938 156.45773437 4.04296875 155.82421875 C3.03169922 154.92123047 3.03169922 154.92123047 2 154 C1.48953125 153.58234375 0.9790625 153.1646875 0.453125 152.734375 C-1.82982367 150.0095653 -3.0618004 146.80589632 -4.4375 143.5625 C-4.74389404 142.85399902 -5.05028809 142.14549805 -5.3659668 141.41552734 C-7.61812805 136.12256122 -9.51666353 130.76818539 -11.17578125 125.2578125 C-11.87839161 122.84043991 -11.87839161 122.84043991 -14 121 C-15.07748834 117.61260201 -15.32611627 114.1637027 -15.68286133 110.63671875 C-16.01730833 107.85609703 -16.51542053 105.1311504 -17.01171875 102.375 C-18.37163285 93.57610197 -18.39600027 84.82071896 -18.375 75.9375 C-18.37445618 75.07283112 -18.37391235 74.20816223 -18.37335205 73.31729126 C-18.33621341 60.48381216 -17.7603983 48.35436791 -14 36 C-13.78569336 35.25669434 -13.57138672 34.51338867 -13.35058594 33.74755859 C-9.93721223 22.05414517 -5.13548694 11.02695927 0 0 Z " fill="#EBA12B" transform="translate(644,302)"/>
<path d="M0 0 C18.61835018 6.03666644 35.77752466 15.55522668 48.875 30.375 C50.47993424 33.58486848 50.49380736 36.90280314 49.875 40.375 C45.63758055 44.96553774 41.26661174 45.55597779 35.25 45.8125 C13.98190284 45.57460182 -8.08947689 31.812192 -23.1875 17.75 C-26.90738877 13.83050744 -28.57593125 9.99832847 -29.6875 4.6875 C-29.125 2.375 -29.125 2.375 -26.55859375 0.26171875 C-18.78523988 -4.00964635 -8.29588953 -2.22846694 0 0 Z " fill="#FDF28D" transform="translate(594.125,114.625)"/>
<path d="M0 0 C5.90136247 1.21234909 11.59066158 2.71744294 17.296875 4.64453125 C18.05236633 4.89619553 18.80785767 5.1478598 19.58624268 5.40715027 C21.17345332 5.93699473 22.75993461 6.46902874 24.34570312 7.00317383 C26.72861692 7.8053021 29.114067 8.59948179 31.5 9.39257812 C39.5861512 12.09528056 47.5471486 14.90653863 55.40722656 18.22143555 C58.19093172 19.05733345 59.36336251 19.16042023 62 18 C63.81320246 16.05503243 65.44155285 14.15490704 67.0625 12.0625 C71.65176374 6.23215751 71.65176374 6.23215751 75 4 C78.28515625 3.734375 78.28515625 3.734375 82.0625 3.75 C83.31160156 3.74484375 84.56070313 3.7396875 85.84765625 3.734375 C89 4 89 4 91 6 C90.64826796 9.38142397 89.08212916 11.57037501 87.09375 14.2578125 C86.51496094 15.04800781 85.93617188 15.83820313 85.33984375 16.65234375 C84.73269531 17.46832031 84.12554688 18.28429687 83.5 19.125 C82.30093433 20.75175788 81.10296309 22.37932319 79.90625 24.0078125 C79.37322266 24.72598145 78.84019531 25.44415039 78.29101562 26.18408203 C74.10905934 32.06634203 76.11931622 40.20615367 77 47 C74 48 74 48 71.23535156 46.78759766 C70.1315918 46.16933105 69.02783203 45.55106445 67.890625 44.9140625 C67.2915181 44.58175629 66.69241119 44.24945007 66.07514954 43.90707397 C64.12762236 42.82309244 62.18880366 41.72449639 60.25 40.625 C58.91693287 39.87828539 57.58351759 39.13219197 56.24975586 38.38671875 C48.4895202 34.03602641 40.79057407 29.59394067 33.20703125 24.94140625 C30.35305398 23.21372451 27.47188242 21.56914517 24.55810547 19.9465332 C15.78738524 15.05193603 6.59542783 9.73257056 0 2 C0 1.34 0 0.68 0 0 Z " fill="#F0AD31" transform="translate(599,253)"/>
<path d="M0 0 C6.75367106 2.96165083 10.05134346 8.94597678 13.1171875 15.32421875 C15.39586634 22.23083382 15.14721776 31.44059845 12.1171875 38.12109375 C5.6167062 49.05372139 5.6167062 49.05372139 0 51 C-2.359375 50.9765625 -2.359375 50.9765625 -4.75 50.625 C-5.54921875 50.51414062 -6.3484375 50.40328125 -7.171875 50.2890625 C-8.07679688 50.14597656 -8.07679688 50.14597656 -9 50 C-9.45863325 46.8660061 -9.53380155 44.7742527 -7.69921875 42.11328125 C-6.62689806 40.89252476 -5.5309368 39.69204713 -4.41015625 38.515625 C-0.70759624 34.53614222 -1.54791188 29.04906603 -1.6484375 23.91796875 C-2.2391574 17.33472367 -4.65023132 12.28793266 -9.375 7.6875 C-9.91125 7.130625 -10.4475 6.57375 -11 6 C-10.875 3.3125 -10.875 3.3125 -10 1 C-6.7496034 -0.6251983 -3.51266829 -0.54726354 0 0 Z " fill="#FADD48" transform="translate(836,257)"/>
<path d="M0 0 C1 1 1 1 1.3125 3.0625 C0.9949403 6.0475612 0.41582612 7.16924792 -1.0625 9.6875 C-3.65083861 14.59609929 -3.43269232 18.71328157 -2 24 C-0.10695749 28.60406635 1.91075682 31.33791101 6.1875 33.9375 C10.7913876 35.22055064 15.24028189 35.72226997 20 36 C20.36474164 41.47112462 20.36474164 41.47112462 18.75 43.8125 C14.47134693 46.71587172 8.97105736 46.55873041 4 46 C-3.07476506 44.0355249 -7.92573891 38.90407303 -12 33 C-15.21649295 26.72061068 -17.28090981 20.06441169 -16 13 C-14.22203618 7.65660072 -11.767677 4.13662961 -7 1 C-4.51588385 -0.24205807 -2.74800896 -0.14092354 0 0 Z " fill="#F9CF40" transform="translate(699,370)"/>
<path d="M0 0 C2.5546875 0.39453125 2.5546875 0.39453125 4.109375 2.2578125 C4.54507813 3.06605469 4.98078125 3.87429688 5.4296875 4.70703125 C8.21831366 9.21992245 10.25251375 11.04652098 15.5546875 12.39453125 C23.33054961 13.34752323 29.01314004 11.39236148 35.2421875 6.64453125 C36.05236328 5.97164063 36.05236328 5.97164063 36.87890625 5.28515625 C38.5546875 4.39453125 38.5546875 4.39453125 40.76171875 4.75390625 C41.35339844 4.9653125 41.94507813 5.17671875 42.5546875 5.39453125 C43.45969808 8.85002617 43.69208875 10.95484724 42.6171875 14.39453125 C39.21223716 19.3471863 34.13625903 23.11716873 28.5546875 25.39453125 C25.53125 25.87890625 25.53125 25.87890625 22.1796875 26.14453125 C21.07882812 26.2425 19.97796875 26.34046875 18.84375 26.44140625 C11.70316675 26.33964022 4.98182924 22.83011422 -0.03125 17.8046875 C-3.20704913 14.05063593 -4.59334283 11.75719513 -4.6328125 6.89453125 C-4.64699219 6.10046875 -4.66117188 5.30640625 -4.67578125 4.48828125 C-4.31991808 1.2553548 -3.12154608 0.50363603 0 0 Z " fill="#FAD947" transform="translate(777.4453125,362.60546875)"/>
<path d="M0 0 C2.5 0.25 2.5 0.25 4.5 2.25 C4.67941603 4.93241677 4.7703506 7.5656283 4.8125 10.25 C5.10133335 18.16253547 6.23557565 25.28030909 12.30859375 30.93359375 C14.96161561 32.5272985 17.19950141 32.96539903 20.25 33.4375 C21.72726562 33.67533203 21.72726562 33.67533203 23.234375 33.91796875 C23.98203125 34.02753906 24.7296875 34.13710938 25.5 34.25 C26.109375 36.11328125 26.109375 36.11328125 26.5 38.25 C24.28132865 41.02333918 22.89379675 42.11873442 19.5 43.25 C13.91474837 43.68805895 9.31075497 43.13278065 4.5 40.25 C-2.17941333 34.38695941 -7.74912888 26.88485584 -8.94140625 17.9375 C-9.16966734 11.45783042 -8.95108336 7.09382601 -4.5 2.25 C-2.5 0.25 -2.5 0.25 0 0 Z " fill="#FBD846" transform="translate(733.5,314.75)"/>
<path d="M0 0 C1.77697266 -0.02513672 1.77697266 -0.02513672 3.58984375 -0.05078125 C8.10464377 0.42152066 11.30526083 2.02385794 14.9375 4.6875 C16.50982534 6.95863661 16.34627368 8.61665006 16.0625 11.3125 C15.0625 12.3125 15.0625 12.3125 13.30004883 12.37841797 C12.17119263 12.34192139 12.17119263 12.34192139 11.01953125 12.3046875 C10.19259766 12.28792969 9.36566406 12.27117187 8.51367188 12.25390625 C6.7738599 12.2101212 5.03423052 12.15822264 3.29492188 12.09765625 C-1.86643439 12.00983735 -5.56041261 12.24388942 -9.9375 15.3125 C-12.83475287 18.94331263 -13.34638445 21.92176278 -13.5625 26.5 C-13.85496905 32.1474381 -13.85496905 32.1474381 -14.9375 34.3125 C-20.45282033 34.68018802 -20.45282033 34.68018802 -22.75 32.9375 C-26.28025065 28.1066307 -25.41421936 22.04014284 -24.9375 16.3125 C-22.22446281 10.06071864 -15.65104091 4.23095718 -9.5859375 1.09765625 C-6.30830583 0.12596899 -3.41709064 0.01113059 0 0 Z " fill="#FAD946" transform="translate(772.9375,244.6875)"/>
<path d="M0 0 C5.74869861 0 8.53216583 1.82924711 12.51953125 5.625 C15.23845927 8.1502313 17.7110003 8.37783948 21.3671875 8.37109375 C26.14542137 7.69760381 30.55803002 5.76026437 35.0234375 3.99609375 C36.00570312 3.66738281 36.98796875 3.33867187 38 3 C38.66 3.33 39.32 3.66 40 4 C40.5 7.0625 40.5 7.0625 40 11 C35.65439105 16.28662889 30.54640225 19.63949102 23.6953125 20.3359375 C13.8633894 20.44350777 9.44219658 19.22439191 2.125 12.6875 C-1.07746171 9.34830397 -2.09276251 6.73088792 -2 2 C-1.34 1.34 -0.68 0.68 0 0 Z " fill="#F9D341" transform="translate(767,421)"/>
<path d="M0 0 C5.26482636 0.83568672 6.65324387 3.2187003 9.75 7.36328125 C13.7824169 11.53251229 17.92596241 12.76662875 23.55859375 12.91796875 C25.164327 12.89830671 26.76993877 12.86294109 28.375 12.8125 C29.20193359 12.79896484 30.02886719 12.78542969 30.88085938 12.77148438 C32.9000264 12.73646992 34.91885318 12.68267562 36.9375 12.625 C37.4325 15.1 37.4325 15.1 37.9375 17.625 C31.74296223 23.1312558 26.61587917 24.47383035 18.375 24.07421875 C8.05309756 22.72533377 2.18562187 18.06790615 -4.0625 10.0625 C-5.36858941 6.87890706 -4.95597599 4.90107862 -4.0625 1.625 C-3.0625 0.625 -3.0625 0.625 0 0 Z " fill="#FAD442" transform="translate(717.0625,421.375)"/>
<path d="M0 0 C12.06914715 1.77360227 21.52837761 12.38753327 28.9296875 21.33203125 C38.40659598 34.14987751 44.72851583 48.72644283 49 64 C49.26683594 64.94875 49.53367187 65.8975 49.80859375 66.875 C50.42660878 69.60279046 50.75478671 72.21157453 51 75 C51.07573242 75.74572266 51.15146484 76.49144531 51.22949219 77.25976562 C52.63131983 92.62663577 52.63131983 92.62663577 48.8359375 98.1484375 C46.125 100.5 46.125 100.5 43.3828125 102.34375 C40.84199092 104.10982926 40.02435739 105.12734557 39 108 C38.61250787 110.32495277 38.27017161 112.65851268 38 115 C37.67 115 37.34 115 37 115 C36.21446384 106.00997506 36.21446384 106.00997506 39.1875 102.1875 C40.5796875 101.1046875 40.5796875 101.1046875 42 100 C46.91453614 95.48177517 46.91453614 95.48177517 48.16796875 89.21875 C48.2485666 80.92248536 48.21012721 73.05315103 46 65 C45.79375 64.13503906 45.5875 63.27007812 45.375 62.37890625 C43.60140417 55.27444567 40.99789301 48.67098715 38 42 C37.64292969 41.17886719 37.28585937 40.35773438 36.91796875 39.51171875 C30.46280393 25.57494948 20.50429636 12.54414966 7 5 C6.32066406 4.60683594 5.64132812 4.21367187 4.94140625 3.80859375 C3.30071304 2.86115119 1.65128988 1.92885056 0 1 C0 0.67 0 0.34 0 0 Z " fill="#FCF189" transform="translate(832,205)"/>
<path d="M0 0 C6.32714206 1.60225224 10.15762376 6.18346873 13.48828125 11.53515625 C17.65085683 19.15900392 19.42890109 25.81158471 18.11328125 34.53515625 C15.40442476 42.0846912 11.670316 50.80467087 4.11328125 54.53515625 C1.34387354 55.24213533 -1.00274212 55.43396409 -3.88671875 55.53515625 C-3.88671875 54.87515625 -3.88671875 54.21515625 -3.88671875 53.53515625 C-2.06140625 53.19484375 -2.06140625 53.19484375 -0.19921875 52.84765625 C6.57287667 51.11886429 9.5649182 46.14567316 13.09765625 40.5 C16.53454501 33.85094212 16.38814054 24.55016952 14.171875 17.5703125 C11.27886002 11.53941921 7.70861701 7.26538009 2.11328125 3.53515625 C-0.40256766 3.29364852 -0.40256766 3.29364852 -3.07421875 3.41015625 C-4.42580078 3.43722656 -4.42580078 3.43722656 -5.8046875 3.46484375 C-6.83529297 3.49964844 -6.83529297 3.49964844 -7.88671875 3.53515625 C-8.18591545 7.13638328 -8.18591545 7.13638328 -6.6796875 10.30859375 C-6.14988281 10.83710938 -5.62007812 11.365625 -5.07421875 11.91015625 C1.24414 18.93055486 1.46683241 24.62978822 1.609375 33.9140625 C0.95351944 38.7012917 -0.96906241 41.89145082 -4.63671875 45.03515625 C-6.612925 47.40660376 -6.13914027 49.56920336 -5.88671875 52.53515625 C-5.55671875 53.19515625 -5.22671875 53.85515625 -4.88671875 54.53515625 C-5.87671875 54.20515625 -6.86671875 53.87515625 -7.88671875 53.53515625 C-9.2838611 48.22294468 -9.2838611 48.22294468 -7.48828125 45.11328125 C-6.83601562 44.345 -6.18375 43.57671875 -5.51171875 42.78515625 C-1.20912472 37.06554023 -0.28621391 32.41867356 -1.15234375 25.375 C-2.27986646 19.95662699 -4.62635041 14.79552459 -8.57421875 10.84765625 C-9.88671875 9.53515625 -9.88671875 9.53515625 -10.88671875 7.66015625 C-10.88671875 5.53515625 -10.88671875 5.53515625 -8.94921875 2.78515625 C-5.81166631 0.48001568 -3.90997435 -0.28717326 0 0 Z " fill="#FEF59C" transform="translate(833.88671875,254.46484375)"/>
<path d="M0 0 C1.875 1.0625 1.875 1.0625 3 3 C4.04109949 7.44833417 3.95949938 11.50551917 3.8125 16.0625 C3.73774225 21.49263094 4.54310008 23.89493135 8 28 C8 28.66 8 29.32 8 30 C12.33511143 31.55619385 16.64094637 32.62236937 21.14453125 33.53515625 C23 34 23 34 24 35 C24.4375 37.8125 24.4375 37.8125 24 41 C20.39099914 44.80950091 17.31017447 45.31965006 12.125 45.5625 C4.01800253 45.25184868 -0.3549277 41.97037877 -5.75 36.1875 C-11.49499626 29.24890863 -14.33719341 22.31419891 -14.21875 13.3125 C-13.78254622 8.70120293 -11.94942121 5.32240811 -9.25 1.5625 C-6.03891233 -0.66742199 -3.81656528 -0.48574467 0 0 Z M-11 7 C-13.53989363 12.07978726 -12.76281271 19.47630187 -11.1640625 24.765625 C-7.76771004 32.01421615 -2.56111706 39.90076734 5.0625 43.0625 C10.14022586 44.52321566 14.3540106 44.57914442 19.375 42.8125 C22.20347276 41.23672362 22.20347276 41.23672362 22.9375 38.375 C22.958125 37.59125 22.97875 36.8075 23 36 C21.32811639 34.32811639 19.03968578 34.55610772 16.75 34.25 C11.64660705 33.33891562 9.11783161 32.3460683 6 28 C1.71724376 21.81379654 1.47897434 16.14335314 1.32714844 8.81542969 C1.40477811 4.44229687 1.40477811 4.44229687 -1 1 C-6.38798826 -0.16497044 -8.03700941 2.8847353 -11 7 Z " fill="#FDF089" transform="translate(737,314)"/>
<path d="M0 0 C4.06443273 1.56872842 4.1814812 2.03137195 5.9375 5.75 C7.73744865 9.45612378 8.95945075 11.08103173 12.875 12.5 C18.797779 13.94625999 23.42477172 13.60830477 28.8125 10.5 C30.42938537 9.25058857 32.02470989 7.97056635 33.5625 6.625 C36.34016125 4.88896172 38.35384526 5.02623318 41.5625 5.375 C43.5625 7.375 43.5625 7.375 43.9375 11.125 C43.81792588 15.52532749 42.4186402 17.97850895 39.5625 21.375 C32.40888562 27.96385535 24.9501225 29.77599425 15.47265625 29.6484375 C7.93892943 28.94057055 2.02403482 25.81426485 -3.03125 20.234375 C-5.8759665 16.47302763 -7.2147466 12.96609568 -7.875 8.25 C-7.08513022 3.05942714 -5.31360473 0.57966597 0 0 Z M-5.4375 4.375 C-6.21667749 8.90510169 -5.86650371 12.51699258 -3.8125 16.625 C1.05118979 22.25664081 7.16680381 27.609586 14.79296875 28.69140625 C24.11880859 28.93217664 31.34442851 26.32599385 38.5625 20.375 C41.63182698 16.8361641 42.30574286 14.08221416 42.5625 9.375 C41.9025 8.385 41.2425 7.395 40.5625 6.375 C35.78406195 6.67365238 33.08143108 9.07227657 29.52734375 12 C25.13932803 15.07073864 19.72949738 14.96138622 14.5625 14.375 C9.38495963 12.92343957 6.53344528 10.7959132 3.875 6.125 C3.30265625 5.08472656 3.30265625 5.08472656 2.71875 4.0234375 C1.62528698 2.07452669 1.62528698 2.07452669 -1.125 1.75 C-3.6102677 2.21568473 -3.6102677 2.21568473 -5.4375 4.375 Z " fill="#FDF290" transform="translate(778.4375,360.625)"/>
<path d="M0 0 C5.73585329 4.10452933 10.91654739 8.55527114 16 13.4375 C17.49840975 14.86358409 18.99711461 16.28935817 20.49609375 17.71484375 C21.24745605 18.43140137 21.99881836 19.14795898 22.77294922 19.88623047 C24.8694154 21.87605772 26.97927129 23.8499578 29.09765625 25.81640625 C38.07654968 34.15300745 46.81097802 42.70141271 55.42773438 51.41162109 C57.27837358 53.28122647 59.13750566 55.14220892 61 57 C60.505 57.99 60.505 57.99 60 59 C59.16339844 58.15816162 58.32679688 57.31632324 57.46484375 56.44897461 C54.32894924 53.29483558 51.189628 50.14412559 48.04931641 46.99438477 C46.69650645 45.63657873 45.34459934 44.27787249 43.99365234 42.91821289 C34.55986801 33.33375169 34.55986801 33.33375169 24.56445312 24.34790039 C22.7842614 22.81412409 21.14479973 21.1773604 19.5 19.5 C15.14776082 15.07867765 10.45643876 11.07012703 5.71484375 7.07421875 C4.98394531 6.45160156 4.25304687 5.82898438 3.5 5.1875 C2.8296875 4.62417969 2.159375 4.06085938 1.46875 3.48046875 C0 2 0 2 0 0 Z " fill="#F1B934" transform="translate(562,374)"/>
<path d="M0 0 C0.33 0 0.66 0 1 0 C0.04691019 17.79100976 -8.44758929 38.12784483 -18 53 C-18.99 53.66 -19.98 54.32 -21 55 C-19.72988607 51.73604821 -18.35102177 48.58141494 -16.79296875 45.4453125 C-7.70056969 26.95475802 -7.70056969 26.95475802 -3 7 C-2.34 7 -1.68 7 -1 7 C-1.20625 6.401875 -1.4125 5.80375 -1.625 5.1875 C-2 3 -2 3 0 0 Z " fill="#FCF080" transform="translate(879,345)"/>
<path d="M0 0 C1.98 0.66 3.96 1.32 6 2 C6 2.66 6 3.32 6 4 C6.66 4 7.32 4 8 4 C9.00023253 7.18255804 9.15774716 8.61439583 7.875 11.75 C6 14 6 14 3.3125 14.8125 C2.549375 14.874375 1.78625 14.93625 1 15 C1 14.34 1 13.68 1 13 C-0.89551022 12.94558344 -2.7914792 12.90701965 -4.6875 12.875 C-5.74324219 12.85179687 -6.79898438 12.82859375 -7.88671875 12.8046875 C-12.01365097 13.06359165 -14.83616333 14.22410889 -18.25 16.5 C-20.57015989 19.81451412 -20.54423167 22.5433076 -20.78515625 26.515625 C-21.04739744 29.54808679 -21.88566518 32.17701845 -23 35 C-23.99 35 -24.98 35 -26 35 C-25.34 34.01 -24.68 33.02 -24 32 C-23.80487894 30.06830152 -23.68846259 28.1279906 -23.625 26.1875 C-23.25866713 21.04642175 -22.66323983 17.8612528 -19 14 C-13.711959 10.56726859 -9.20180485 10.63403962 -3.125 10.8125 C-1.80628906 10.83280273 -1.80628906 10.83280273 -0.4609375 10.85351562 C1.69297552 10.88863377 3.84657004 10.94243306 6 11 C6.26334982 7.36773589 6.26334982 7.36773589 4.6875 4.25 C2.90853321 2.79696921 2.90853321 2.79696921 0 2 C0 1.34 0 0.68 0 0 Z " fill="#FDF192" transform="translate(782,245)"/>
<path d="M0 0 C2.64 0.33 5.28 0.66 8 1 C7.34 1.66 6.68 2.32 6 3 C6.8765625 3.54785156 7.753125 4.09570312 8.65625 4.66015625 C10.63411458 5.89632161 12.61197917 7.13248698 14.58984375 8.36865234 C15.33363281 8.83352051 16.07742188 9.29838867 16.84375 9.77734375 C17.65199219 10.28249512 18.46023438 10.78764648 19.29296875 11.30810547 C20.18628906 11.86643066 21.07960938 12.42475586 22 13 C28.4375 17.0234375 34.875 21.046875 41.3125 25.0703125 C42.66794922 25.91746826 42.66794922 25.91746826 44.05078125 26.78173828 C44.69402344 27.18376465 45.33726562 27.58579102 46 28 C45.01 28.495 45.01 28.495 44 29 C41.76367188 27.92700195 41.76367188 27.92700195 38.96875 26.23828125 C37.93814453 25.61912842 36.90753906 24.99997559 35.84570312 24.36206055 C34.18958008 23.34752808 34.18958008 23.34752808 32.5 22.3125 C31.38044922 21.63292236 30.26089844 20.95334473 29.10742188 20.25317383 C22.15982471 16.0196447 15.2834071 11.68003194 8.5 7.1875 C7.74783203 6.69096924 6.99566406 6.19443848 6.22070312 5.68286133 C1.12664342 2.25328683 1.12664342 2.25328683 0 0 Z " fill="#DE8420" transform="translate(647,215)"/>
<path d="M0 0 C1.94140625 1.5234375 1.94140625 1.5234375 3 3 C1.67548828 2.96519531 1.67548828 2.96519531 0.32421875 2.9296875 C-6.65378944 2.82475505 -13.07531426 3.11763769 -19.890625 4.66015625 C-22 5 -22 5 -24 4 C-24 4.66 -24 5.32 -24 6 C-25.65 6.66 -27.3 7.32 -29 8 C-29.66 6.68 -30.32 5.36 -31 4 C-29.824375 3.8453125 -29.824375 3.8453125 -28.625 3.6875 C-25.71049236 3.13474855 -23.32977388 2.41690244 -20.5625 1.4375 C-13.95223 -0.60805611 -6.8481537 -0.84668082 0 0 Z " fill="#D7882B" transform="translate(586,94)"/>
<path d="M0 0 C0.33 0 0.66 0 1 0 C0.98952637 0.55349121 0.97905273 1.10698242 0.96826172 1.67724609 C0.59351081 14.98079999 0.59351081 14.98079999 2.5546875 28.078125 C3.17000066 30.73368707 3.14264724 33.2897025 3 36 C-2.31825804 30.68174196 -2.16743082 22.1745992 -2.20654297 15.07763672 C-2.17880482 11.04991476 -2.10647839 7.0264606 -2 3 C-1.34 3 -0.68 3 0 3 C0 2.01 0 1.02 0 0 Z " fill="#D48327" transform="translate(204,907)"/>
<path d="M0 0 C0.99 0.33 1.98 0.66 3 1 C3 1.66 3 2.32 3 3 C2.36130981 3.56521362 2.36130981 3.56521362 1.7097168 4.1418457 C-0.8449461 6.91830426 -1.97494299 10.27273481 -3.35546875 13.73046875 C-3.81521843 14.85609978 -3.81521843 14.85609978 -4.28425598 16.00447083 C-5.25913911 18.39598513 -6.22342652 20.79161043 -7.1875 23.1875 C-7.84761269 24.81213136 -8.50841209 26.43648388 -9.16992188 28.06054688 C-10.78792669 32.03717591 -12.39644364 36.01752397 -14 40 C-14.66 39.34 -15.32 38.68 -16 38 C-14.04475085 33.23031937 -12.0875043 28.46146521 -10.12841797 23.69335938 C-9.46250594 22.07183929 -8.79713627 20.45009637 -8.13232422 18.828125 C-7.17558673 16.49420036 -6.21688931 14.16108915 -5.2578125 11.828125 C-4.96190216 11.10506165 -4.66599182 10.38199829 -4.3611145 9.63702393 C-3.01378148 6.36461808 -1.6511019 3.13213322 0 0 Z " fill="#F0B431" transform="translate(473,330)"/>
<path d="M0 0 C7.62970347 -0.55827099 14.73033646 0.31442147 22.1875 1.8125 C23.01797852 1.97782227 23.84845703 2.14314453 24.70410156 2.31347656 C30.28584587 3.48823131 35.62919786 5.08375981 41 7 C40.01 7.66 39.02 8.32 38 9 C38 8.34 38 7.68 38 7 C36.865625 6.87625 35.73125 6.7525 34.5625 6.625 C31.45670107 6.24637787 28.47748501 5.67399121 25.4375 4.9375 C21.56347605 4.02596495 17.98685337 3.91863565 14 4 C13.34 3.67 12.68 3.34 12 3 C9.795636 2.77049681 7.58607827 2.58924067 5.375 2.4375 C4.18648437 2.35371094 2.99796875 2.26992187 1.7734375 2.18359375 C0.40058594 2.09271484 0.40058594 2.09271484 -1 2 C-0.67 1.34 -0.34 0.68 0 0 Z " fill="#FCF182" transform="translate(790,197)"/>
<path d="M0 0 C-2.30198847 2.30198847 -3.19038911 2.36076997 -6.3125 2.875 C-10.44628731 3.74176185 -13.15812174 4.69975427 -16 8 C-16.62200016 11.65425096 -16.40786743 13.3474121 -14.4375 16.5 C-13 19 -13 19 -13.0625 22.0625 C-14.11445537 25.35862684 -15.37649879 26.79964415 -18 29 C-17.67 28.278125 -17.34 27.55625 -17 26.8125 C-15.94587567 23.84777532 -15.62065177 22.11065547 -16 19 C-16.515625 18.030625 -17.03125 17.06125 -17.5625 16.0625 C-19.2867035 12.38919688 -19.24749001 10.82563604 -18 7 C-13.88305036 1.2362705 -6.78391113 -0.50879333 0 0 Z " fill="#FBEE76" transform="translate(854,403)"/>
<path d="M0 0 C0.598125 0.20625 1.19625 0.4125 1.8125 0.625 C-1.9375 3.625 -1.9375 3.625 -4.1875 3.625 C-1.63516457 7.50076862 0.99495241 11.28557833 3.76171875 15.01171875 C5.7657973 18.08861259 5.92655406 20.75526958 5.875 24.3125 C5.86597656 25.12074219 5.85695313 25.92898437 5.84765625 26.76171875 C5.83605469 27.37660156 5.82445312 27.99148437 5.8125 28.625 C5.4825 28.625 5.1525 28.625 4.8125 28.625 C4.74933594 28.01914063 4.68617188 27.41328125 4.62109375 26.7890625 C3.52290261 19.27512315 0.41607269 14.5423281 -4.1875 8.625 C-6.1875 5.625 -6.1875 5.625 -6 3.5625 C-4.75850591 0.6020141 -3.20602027 -0.54960347 0 0 Z " fill="#FBEF5E" transform="translate(428.1875,79.375)"/>
<path d="M0 0 C1.17791932 3.53375797 0.75415072 4.44851107 -0.43359375 7.88671875 C-0.9121582 9.2934082 -0.9121582 9.2934082 -1.40039062 10.72851562 C-1.74263672 11.70498047 -2.08488281 12.68144531 -2.4375 13.6875 C-2.77587891 14.67556641 -3.11425781 15.66363281 -3.46289062 16.68164062 C-4.30059974 19.12397565 -5.14657083 21.56312271 -6 24 C-7.39017443 21.75262536 -8.08484341 20.552058 -7.67626953 17.89355469 C-7.41442871 17.16040039 -7.15258789 16.42724609 -6.8828125 15.671875 C-6.60566406 14.87265625 -6.32851563 14.0734375 -6.04296875 13.25 C-5.74003906 12.425 -5.43710937 11.6 -5.125 10.75 C-4.68220703 9.48929688 -4.68220703 9.48929688 -4.23046875 8.203125 C-3.50025943 6.13027273 -2.75648686 4.06337655 -2 2 C-1.34 2 -0.68 2 0 2 C0 1.34 0 0.68 0 0 Z " fill="#D68C31" transform="translate(423,698)"/>
<path d="M0 0 C1.77043066 3.05315777 2.03822258 3.76641756 1.4375 7.4375 C-0.1237294 11.30663372 -1.87640357 13.2874031 -5 16 C-5.33 15.34 -5.66 14.68 -6 14 C-5.09176973 11.56442428 -4.13171929 9.23804483 -3.0625 6.875 C-2.77181641 6.21628906 -2.48113281 5.55757813 -2.18164062 4.87890625 C-1.46139802 3.24950495 -0.73158857 1.62433868 0 0 Z " fill="#D68B2E" transform="translate(381,500)"/>
<path d="M0 0 C0.33 0.66 0.66 1.32 1 2 C1.66 2 2.32 2 3 2 C4.7492065 5.498413 3.81313832 9.27412739 3 13 C1.86142047 15.54560464 0.54352953 17.65981007 -1 20 C-2 18 -2 18 -1.0625 15.0625 C0.49790973 10.1194571 0.16692547 5.12832145 0 0 Z " fill="#CF8329" transform="translate(856,420)"/>
<path d="M0 0 C-1 2 -1 2 -3.29296875 2.8671875 C-6.39023053 4.16329993 -8.0094014 5.70479469 -10.3125 8.125 C-11.00988281 8.84945312 -11.70726562 9.57390625 -12.42578125 10.3203125 C-12.94527344 10.87460938 -13.46476562 11.42890625 -14 12 C-14.66 11.67 -15.32 11.34 -16 11 C-14.54601271 9.18401175 -13.08667675 7.37230481 -11.625 5.5625 C-10.40683594 4.04849609 -10.40683594 4.04849609 -9.1640625 2.50390625 C-5.89942235 -1.27341205 -4.67252758 -1.10665127 0 0 Z " fill="#FBEE5B" transform="translate(400,108)"/>
<path d="M0 0 C3.3 0.33 6.6 0.66 10 1 C10 1.66 10 2.32 10 3 C15.28 3 20.56 3 26 3 C26 3.33 26 3.66 26 4 C22.97861433 4.08149592 19.95946095 4.14073421 16.9375 4.1875 C16.08994141 4.21263672 15.24238281 4.23777344 14.36914062 4.26367188 C8.7749264 4.32846972 4.98039041 3.57466587 0 1 C0 0.67 0 0.34 0 0 Z " fill="#DD9C45" transform="translate(705,508)"/>
<path d="M0 0 C1 2 1 2 0.47094727 3.78759766 C0.17244873 4.48933105 -0.1260498 5.19106445 -0.43359375 5.9140625 C-0.75263672 6.67460938 -1.07167969 7.43515625 -1.40039062 8.21875 C-1.74263672 9.0128125 -2.08488281 9.806875 -2.4375 10.625 C-2.77587891 11.42679688 -3.11425781 12.22859375 -3.46289062 13.0546875 C-4.30166778 15.03939964 -5.14995245 17.02008875 -6 19 C-7.85741055 13.42776834 -4.50283491 6.17252548 -2 1 C-1.34 0.67 -0.68 0.34 0 0 Z " fill="#D68E33" transform="translate(484,542)"/>
<path d="M0 0 C1.79341438 4.16673521 0.01173384 7.74663341 -1.4375 11.75 C-1.68048828 12.44738281 -1.92347656 13.14476562 -2.17382812 13.86328125 C-2.77310248 15.57885098 -3.38529885 17.28989715 -4 19 C-4.66 17.68 -5.32 16.36 -6 15 C-5.34 15 -4.68 15 -4 15 C-3.93941406 14.31292969 -3.87882812 13.62585938 -3.81640625 12.91796875 C-3.73261719 12.01691406 -3.64882813 11.11585938 -3.5625 10.1875 C-3.48128906 9.29417969 -3.40007812 8.40085937 -3.31640625 7.48046875 C-3 5 -3 5 -2 2 C-1.34 2 -0.68 2 0 2 C0 1.34 0 0.68 0 0 Z " fill="#D68E34" transform="translate(359,907)"/>
<path d="M0 0 C10.395 1.98 10.395 1.98 21 4 C21 4.33 21 4.66 21 5 C18 6 15 7 12 8 C11.67 7.34 11.34 6.68 11 6 C11.99 6 12.98 6 14 6 C14 5.34 14 4.68 14 4 C13.32453125 3.93941406 12.6490625 3.87882813 11.953125 3.81640625 C10.61507812 3.69072266 10.61507812 3.69072266 9.25 3.5625 C8.36828125 3.48128906 7.4865625 3.40007812 6.578125 3.31640625 C4.30649548 3.03761535 2.20148177 2.61209423 0 2 C0 1.34 0 0.68 0 0 Z " fill="#F8D044" transform="translate(733,185)"/>
<path d="M0 0 C3.0850798 0.95277159 6.16772785 1.91318794 9.25 2.875 C10.12269531 3.14441406 10.99539063 3.41382813 11.89453125 3.69140625 C12.73886719 3.95566406 13.58320312 4.21992188 14.453125 4.4921875 C15.22817383 4.73308105 16.00322266 4.97397461 16.80175781 5.22216797 C18.97585306 5.99145578 20.96242762 6.92438908 23 8 C14.95342094 7.50350895 6.83079958 6.55386639 0 2 C0 1.34 0 0.68 0 0 Z " fill="#F9D142" transform="translate(598,170)"/>
<path d="M0 0 C-13.6332574 5.37129841 -13.6332574 5.37129841 -20 7 C-20 6.34 -20 5.68 -20 5 C-17.42138975 3.96555751 -14.83825365 2.94727716 -12.25 1.9375 C-11.15558594 1.49567383 -11.15558594 1.49567383 -10.0390625 1.04492188 C-8.97558594 0.6340332 -8.97558594 0.6340332 -7.890625 0.21484375 C-7.24125977 -0.04176025 -6.59189453 -0.29836426 -5.92285156 -0.56274414 C-3.63367214 -1.08330284 -2.20743336 -0.72364304 0 0 Z " fill="#FBEE5C" transform="translate(452,71)"/>
<path d="M0 0 C1.3274855 3.98245651 -0.00092171 6.44789543 -1.4375 10.1875 C-1.80198242 11.16879883 -1.80198242 11.16879883 -2.17382812 12.16992188 C-2.7743293 13.78303286 -3.38609203 15.3919435 -4 17 C-4.33 17 -4.66 17 -5 17 C-5.36844295 11.22772713 -4.46863195 6.2769839 -2 1 C-1.34 0.67 -0.68 0.34 0 0 Z " fill="#D68E32" transform="translate(436,662)"/>
<path d="M0 0 C1.56393356 3.97376829 0.36145292 6.81377903 -0.9375 10.75 C-1.31777344 11.92046875 -1.69804687 13.0909375 -2.08984375 14.296875 C-2.39019531 15.18890625 -2.69054687 16.0809375 -3 17 C-4.62433191 14.49923002 -5.07333427 13.41017471 -4.5390625 10.421875 C-4.23742187 9.54015625 -3.93578125 8.6584375 -3.625 7.75 C-3.32851563 6.85796875 -3.03203125 5.9659375 -2.7265625 5.046875 C-2.48679687 4.37140625 -2.24703125 3.6959375 -2 3 C-1.34 3 -0.68 3 0 3 C0 2.01 0 1.02 0 0 Z " fill="#D98F35" transform="translate(367,879)"/>
<path d="M0 0 C0.33 0.66 0.66 1.32 1 2 C0.09176973 4.43557572 -0.86828071 6.76195517 -1.9375 9.125 C-2.22818359 9.78371094 -2.51886719 10.44242188 -2.81835938 11.12109375 C-3.53860198 12.75049505 -4.26841143 14.37566132 -5 16 C-5.33 16 -5.66 16 -6 16 C-5.50523351 10.35966205 -4.58054378 6.05786581 -2 1 C-1.34 0.67 -0.68 0.34 0 0 Z " fill="#D68A30" transform="translate(497,512)"/>
<path d="M0 0 C1.98 0.99 1.98 0.99 4 2 C4.99 1.34 5.98 0.68 7 0 C7.69699552 1.45381897 8.38233866 2.91322953 9.0625 4.375 C9.44535156 5.18710937 9.82820312 5.99921875 10.22265625 6.8359375 C10.47917969 7.55007813 10.73570312 8.26421875 11 9 C10.67 9.66 10.34 10.32 10 11 C8.33035479 9.35718838 6.6643536 7.71067239 5 6.0625 C4.071875 5.14597656 3.14375 4.22945313 2.1875 3.28515625 C0 1 0 1 0 0 Z " fill="#F6C43A" transform="translate(632,441)"/>
<path d="M0 0 C5.67853635 1.41963409 9.53174216 4.39363961 14 8 C12.15625 8.6484375 12.15625 8.6484375 10 9 C8.29115995 7.37660195 6.62553283 5.70680947 5 4 C3.6757713 3.63215869 2.34386088 3.28797019 1 3 C0.67 2.01 0.34 1.02 0 0 Z " fill="#D58C34" transform="translate(845,191)"/>
<path d="M0 0 C2 2 2 2 2.5 5.3125 C1.97063044 9.2166005 1.82615991 9.60458498 -1 11.9375 C-1.99 12.618125 -2.98 13.29875 -4 14 C-4.33 12.35 -4.66 10.7 -5 9 C-3.35 8.67 -1.7 8.34 0 8 C0 5.36 0 2.72 0 0 Z " fill="#FBE062" transform="translate(717,247)"/>
<path d="M0 0 C3.21039243 2.14026162 3.76444483 3.08544035 5.25 6.5 C5.60578125 7.2940625 5.9615625 8.088125 6.328125 8.90625 C7 11 7 11 6 13 C3.01947605 10.44526518 1.53659812 7.58539561 0 4 C0 2.68 0 1.36 0 0 Z " fill="#D3882F" transform="translate(883,229)"/>
<path d="M0 0 C4.05606165 0.46800711 7.46588679 0.87953208 11 3 C11 3.66 11 4.32 11 5 C12.32 5.66 13.64 6.32 15 7 C11.14974121 6.39644592 8.13898841 5.23227397 4.6875 3.4375 C3.80449219 2.98246094 2.92148438 2.52742187 2.01171875 2.05859375 C1.34785156 1.70925781 0.68398437 1.35992188 0 1 C0 0.67 0 0.34 0 0 Z " fill="#D88F37" transform="translate(229,963)"/>
<path d="M0 0 C2.5654594 2.5654594 2.54046087 4.47686668 3 8 C5.31 8.33 7.62 8.66 10 9 C7.42786866 10.61949011 6.32330841 11.04408751 3.25 10.625 C2.13625 10.315625 2.13625 10.315625 1 10 C0.67 6.7 0.34 3.4 0 0 Z " fill="#DB9942" transform="translate(661,142)"/>
<path d="M0 0 C5.28 0.66 10.56 1.32 16 2 C15.01 3.485 15.01 3.485 14 5 C9.38 3.68 4.76 2.36 0 1 C0 0.67 0 0.34 0 0 Z " fill="#DA9239" transform="translate(246,971)"/>
<path d="M0 0 C0.33 0.66 0.66 1.32 1 2 C0.00390625 4.6015625 0.00390625 4.6015625 -1.4375 7.625 C-1.91058594 8.62789063 -2.38367188 9.63078125 -2.87109375 10.6640625 C-3.24363281 11.43492187 -3.61617187 12.20578125 -4 13 C-4.33 13 -4.66 13 -5 13 C-4.49540386 8.71093278 -3.94350927 4.88701855 -2 1 C-1.34 0.67 -0.68 0.34 0 0 Z " fill="#D78C31" transform="translate(547,403)"/>
<path d="M0 0 C1.25955231 3.77865693 0.48087189 5.03411786 -0.9375 8.6875 C-1.31777344 9.68136719 -1.69804687 10.67523437 -2.08984375 11.69921875 C-2.39019531 12.45847656 -2.69054687 13.21773437 -3 14 C-4.44810616 11.68719735 -5.12565635 10.58355661 -4.5390625 7.859375 C-4.23742187 7.16328125 -3.93578125 6.4671875 -3.625 5.75 C-3.32851563 5.04359375 -3.03203125 4.3371875 -2.7265625 3.609375 C-2.48679687 3.07828125 -2.24703125 2.5471875 -2 2 C-1.34 2 -0.68 2 0 2 C0 1.34 0 0.68 0 0 Z " fill="#D68E33" transform="translate(428,684)"/>
<path d="M0 0 C1.1875 1.5625 1.1875 1.5625 2 4 C0.8125 7.6875 0.8125 7.6875 -1 11 C-1.99 11.33 -2.98 11.66 -4 12 C-3.33501617 7.61110675 -1.81242323 4.0188515 0 0 Z " fill="#D78D34" transform="translate(436,371)"/>
<path d="M0 0 C0 3 0 3 -1.9375 5.75 C-4.1955203 9.3080926 -4.66746956 11.84336945 -5 16 C-5.33 16 -5.66 16 -6 16 C-6.78734859 6.98923284 -6.78734859 6.98923284 -3.5625 2.9375 C-2.716875 2.298125 -1.87125 1.65875 -1 1 C-0.67 0.67 -0.34 0.34 0 0 Z " fill="#FDF794" transform="translate(875,304)"/>
<path d="M0 0 C9.41002278 0.96355353 9.41002278 0.96355353 14 2 C10.73083718 4.17944188 10.13719614 4.23305854 6.4375 3.8125 C5.25994141 3.69841797 5.25994141 3.69841797 4.05859375 3.58203125 C2 3 2 3 0 0 Z " fill="#D99236" transform="translate(725,164)"/>
<path d="M0 0 C4.37934119 0.51958285 8.68803391 1.05675742 13 2 C12.34 2.66 11.68 3.32 11 4 C8.6171875 3.9765625 8.6171875 3.9765625 5.875 3.625 C4.96492187 3.51414063 4.05484375 3.40328125 3.1171875 3.2890625 C2.41851563 3.19367188 1.71984375 3.09828125 1 3 C0.67 2.01 0.34 1.02 0 0 Z " fill="#D78C31" transform="translate(685,155)"/>
<path d="M0 0 C5.02692063 0.45699278 8.14896261 2.99241748 12 6 C9 7 9 7 7.17578125 6.22265625 C5.45052083 5.1484375 3.72526042 4.07421875 2 3 C2 2.34 2 1.68 2 1 C1.34 0.67 0.68 0.34 0 0 Z " fill="#D88E32" transform="translate(491,51)"/>
<path d="M0 0 C4.12751449 0.60698743 7.3321148 2.03810791 11 4 C9.4375 5.25 9.4375 5.25 7 6 C4.42998985 4.93237266 2.3469597 3.53455057 0 2 C0 1.34 0 0.68 0 0 Z " fill="#D88E33" transform="translate(611,102)"/>
<path d="M0 0 C0.66 0.33 1.32 0.66 2 1 C1.54738642 2.43931117 1.08767021 3.87638999 0.625 5.3125 C0.36976563 6.11300781 0.11453125 6.91351562 -0.1484375 7.73828125 C-1 10 -1 10 -3 13 C-4.0326802 10.21176345 -4.04509293 9.1322726 -3.0625 6.25 C-2.711875 5.5075 -2.36125 4.765 -2 4 C-1.34 4 -0.68 4 0 4 C0 2.68 0 1.36 0 0 Z " fill="#D68D33" transform="translate(466,582)"/>
<path d="M0 0 C-1.45264038 0.8638129 -2.9123163 1.71580454 -4.375 2.5625 C-5.59316406 3.27599609 -5.59316406 3.27599609 -6.8359375 4.00390625 C-7.55007813 4.33261719 -8.26421875 4.66132813 -9 5 C-9.66 4.67 -10.32 4.34 -11 4 C-7.51147246 0.16261971 -5.09041622 -1.48780432 0 0 Z " fill="#D68A33" transform="translate(798,492)"/>
<path d="M0 0 C0.90105469 0.00902344 1.80210937 0.01804688 2.73046875 0.02734375 C3.41753906 0.03894531 4.10460937 0.05054688 4.8125 0.0625 C1.16078612 2.04485896 -2.06372422 2.53765581 -6.1875 3.0625 C-7.1775 3.3925 -8.1675 3.7225 -9.1875 4.0625 C-8.8575 3.0725 -8.5275 2.0825 -8.1875 1.0625 C-5.17259443 0.05753148 -3.14568308 -0.04085303 0 0 Z " fill="#FAE053" transform="translate(680.1875,254.9375)"/>
<path d="M0 0 C0.99 0.33 1.98 0.66 3 1 C2.34 1.66 1.68 2.32 1 3 C0.34 2.67 -0.32 2.34 -1 2 C-1 2.66 -1 3.32 -1 4 C-2.65 4.66 -4.3 5.32 -6 6 C-6.66 4.68 -7.32 3.36 -8 2 C-7.05125 1.855625 -6.1025 1.71125 -5.125 1.5625 C-2.1065506 1.17064601 -2.1065506 1.17064601 0 0 Z " fill="#DB9337" transform="translate(563,96)"/>
<path d="M0 0 C0.33 0.66 0.66 1.32 1 2 C1.66 2 2.32 2 3 2 C3.33 5.3 3.66 8.6 4 12 C1.49484216 9.49484216 0.94900914 7.38931835 0 4 C0 2.68 0 1.36 0 0 Z " fill="#D68D35" transform="translate(203,931)"/>
<path d="M0 0 C1.60031344 3.20062687 0.03173691 5.72271806 -1 9 C-2.9451 6.08235 -3.45276317 4.37462715 -4 1 C-2.68 0.67 -1.36 0.34 0 0 Z " fill="#D58C30" transform="translate(388,807)"/>
<path d="M0 0 C0.99 0.33 1.98 0.66 3 1 C0.69 3.31 -1.62 5.62 -4 8 C-4.66 7.34 -5.32 6.68 -6 6 C-2.25 1.125 -2.25 1.125 0 0 Z " fill="#D3852B" transform="translate(836,458)"/>
<path d="M0 0 C1 2 1 2 0.22265625 4.3828125 C-0.16019531 5.28773438 -0.54304688 6.19265625 -0.9375 7.125 C-1.31777344 8.03507813 -1.69804687 8.94515625 -2.08984375 9.8828125 C-2.39019531 10.58148437 -2.69054687 11.28015625 -3 12 C-4.0625 10.125 -4.0625 10.125 -5 8 C-4.67 7.34 -4.34 6.68 -4 6 C-3.34 6 -2.68 6 -2 6 C-2 4.35 -2 2.7 -2 1 C-1.34 0.67 -0.68 0.34 0 0 Z " fill="#D88F37" transform="translate(473,568)"/>
<path d="M0 0 C0.33 0.66 0.66 1.32 1 2 C0.22265625 4.1640625 0.22265625 4.1640625 -0.9375 6.625 C-1.31777344 7.44226563 -1.69804688 8.25953125 -2.08984375 9.1015625 C-2.39019531 9.72804688 -2.69054687 10.35453125 -3 11 C-3.33 11 -3.66 11 -4 11 C-3.54177532 7.53058454 -3.10868317 4.32604951 -2 1 C-1.34 0.67 -0.68 0.34 0 0 Z " fill="#D58B32" transform="translate(516,470)"/>
<path d="M0 0 C0.66 0.33 1.32 0.66 2 1 C1.1875 4.4375 1.1875 4.4375 0 8 C-0.99 8.33 -1.98 8.66 -3 9 C-3.33 8.34 -3.66 7.68 -4 7 C-3.34 7 -2.68 7 -2 7 C-1.855625 6.21625 -1.71125 5.4325 -1.5625 4.625 C-1 2 -1 2 0 0 Z " fill="#D88F35" transform="translate(396,465)"/>
<path d="M0 0 C2.32101984 3.48152976 2.69903201 5.86169011 3 10 C2.34 10.66 1.68 11.32 1 12 C-0.3271261 8.0186217 -0.06915913 4.14954773 0 0 Z " fill="#F9E881" transform="translate(878,262)"/>
<path d="M0 0 C2.96404505 2.80804268 5.44499019 5.18315774 7 9 C3.64564078 7.61198929 1.88709697 6.11371 0 3 C0 2.01 0 1.02 0 0 Z " fill="#D4882C" transform="translate(348,248)"/>
<path d="M0 0 C2.64752004 2.57784846 4.94432065 4.91648098 7 8 C3.76912579 7.44295272 1.97638863 6.66812465 0 4 C0 2.68 0 1.36 0 0 Z " fill="#D48830" transform="translate(868,208)"/>
<path d="M0 0 C1.11375 0.598125 2.2275 1.19625 3.375 1.8125 C4.00148438 2.14894531 4.62796875 2.48539062 5.2734375 2.83203125 C7 4 7 4 9 7 C4.25 6.125 4.25 6.125 2 5 C2 4.01 2 3.02 2 2 C1.34 2 0.68 2 0 2 C0 1.34 0 0.68 0 0 Z " fill="#D78E34" transform="translate(633,113)"/>
<path d="M0 0 C0.33 0.66 0.66 1.32 1 2 C0.22265625 3.9453125 0.22265625 3.9453125 -0.9375 6.125 C-1.31777344 6.84945313 -1.69804688 7.57390625 -2.08984375 8.3203125 C-2.39019531 8.87460937 -2.69054687 9.42890625 -3 10 C-3.33 10 -3.66 10 -4 10 C-3.38461538 3.47692308 -3.38461538 3.47692308 -1.4375 1.0625 C-0.7259375 0.5365625 -0.7259375 0.5365625 0 0 Z " fill="#D7943E" transform="translate(885,389)"/>
<path d="M0 0 C1.258125 -0.04125 2.51625 -0.0825 3.8125 -0.125 C4.52019531 -0.14820313 5.22789062 -0.17140625 5.95703125 -0.1953125 C8 0 8 0 11 2 C6.545 2.495 6.545 2.495 2 3 C2 2.34 2 1.68 2 1 C1.34 0.67 0.68 0.34 0 0 Z " fill="#EFA72E" transform="translate(778,195)"/>
<path d="M0 0 C2.475 0.99 2.475 0.99 5 2 C5 5.3 5 8.6 5 12 C4.67 12 4.34 12 4 12 C3.896875 10.948125 3.79375 9.89625 3.6875 8.8125 C3.02266585 5.12569246 2.11433704 3.03361401 0 0 Z " fill="#F4CC40" transform="translate(542,112)"/>
<path d="M0 0 C0.66 0 1.32 0 2 0 C1.01 2.97 0.02 5.94 -1 9 C-1.66 7.68 -2.32 6.36 -3 5 C-1.75 2.25 -1.75 2.25 0 0 Z " fill="#D68C31" transform="translate(520,459)"/>
<path d="M0 0 C0.33 0 0.66 0 1 0 C1.36923077 5.53846154 1.36923077 5.53846154 -0.5 7.875 C-1.2425 8.431875 -1.2425 8.431875 -2 9 C-2.66 8.34 -3.32 7.68 -4 7 C-3.34 7 -2.68 7 -2 7 C-1.855625 6.21625 -1.71125 5.4325 -1.5625 4.625 C-1 2 -1 2 0 0 Z " fill="#D89139" transform="translate(420,409)"/>
<path d="M0 0 C1.125 1.75 1.125 1.75 2 4 C1.05773345 6.66975522 0.01384202 7.98615798 -2 10 C-1.54177532 6.53058454 -1.10868317 3.32604951 0 0 Z " fill="#D8923D" transform="translate(205,900)"/>
<path d="M0 0 C1.46726798 3.81489674 0.43336419 6.29011622 -1 10 C-3 7 -3 7 -2.75 4.4375 C-2 2 -2 2 0 0 Z " fill="#D99237" transform="translate(373,858)"/>
<path d="M0 0 C0.66 0.33 1.32 0.66 2 1 C1.09456151 3.71631546 0.07525194 6.34771188 -1 9 C-1.66 9 -2.32 9 -3 9 C-2.01 6.03 -1.02 3.06 0 0 Z " fill="#D99038" transform="translate(255,786)"/>
<path d="M0 0 C1.25541557 3.76624671 0.37061958 5.37188934 -1 9 C-3 6 -3 6 -2.75 3.375 C-2.5025 2.59125 -2.255 1.8075 -2 1 C-1.34 0.67 -0.68 0.34 0 0 Z " fill="#D88F35" transform="translate(398,774)"/>
<path d="M0 0 C0.66 0.99 1.32 1.98 2 3 C1.3125 5.625 1.3125 5.625 0 8 C-0.99 8.33 -1.98 8.66 -3 9 C-2.01 6.03 -1.02 3.06 0 0 Z " fill="#D88C33" transform="translate(273,746)"/>
<path d="M0 0 C2 4 2 4 1.3125 6.1875 C0 8 0 8 -3 9 C-2.01 6.03 -1.02 3.06 0 0 Z " fill="#D88F34" transform="translate(292,703)"/>
<path d="M0 0 C0.66 0.33 1.32 0.66 2 1 C1.01 3.97 0.02 6.94 -1 10 C-1.33 10 -1.66 10 -2 10 C-1.54177532 6.53058454 -1.10868317 3.32604951 0 0 Z " fill="#D6892D" transform="translate(532,432)"/>
<path d="M0 0 C0.99 0 1.98 0 3 0 C1.81323934 4.10801767 1.10551666 5.89448334 -2 9 C-1.34 6.03 -0.68 3.06 0 0 Z " fill="#D58E38" transform="translate(856,431)"/>
<path d="M0 0 C0.66 0 1.32 0 2 0 C1.01 2.97 0.02 5.94 -1 9 C-1.33 9 -1.66 9 -2 9 C-1.125 1.125 -1.125 1.125 0 0 Z " fill="#D78C31" transform="translate(550,394)"/>
<path d="M0 0 C2 4 2 4 1.3125 6.1875 C0 8 0 8 -3 9 C-2.01 6.03 -1.02 3.06 0 0 Z " fill="#D68B32" transform="translate(452,333)"/>
<path d="M0 0 C1.80411967 2.75924185 2.0127245 3.88972103 1.625 7.25 C1.41875 8.1575 1.2125 9.065 1 10 C-0.80411967 7.24075815 -1.0127245 6.11027897 -0.625 2.75 C-0.41875 1.8425 -0.2125 0.935 0 0 Z " fill="#D48E36" transform="translate(897,262)"/>
<path d="M0 0 C0 0.33 0 0.66 0 1 C-1.45635371 1.22174933 -2.91522956 1.42698698 -4.375 1.625 C-5.18710937 1.74101562 -5.99921875 1.85703125 -6.8359375 1.9765625 C-7.55007813 1.98429687 -8.26421875 1.99203125 -9 2 C-9.66 1.34 -10.32 0.68 -11 0 C-7.18243176 -1.37432457 -3.92744671 -0.67975039 0 0 Z " fill="#D48930" transform="translate(758,507)"/>
<path d="M0 0 C0.66 0 1.32 0 2 0 C1.01 2.97 0.02 5.94 -1 9 C-1.33 9 -1.66 9 -2 9 C-1.125 1.125 -1.125 1.125 0 0 Z " fill="#D68B32" transform="translate(501,501)"/>
<path d="M0 0 C3.45925163 1.2491742 6.14693203 2.67527795 9 5 C6.75 5.25 6.75 5.25 4 5 C1.6875 3.0625 1.6875 3.0625 0 1 C0 0.67 0 0.34 0 0 Z " fill="#CD761B" transform="translate(663,492)"/>
<path d="M0 0 C0 3.90838866 -1.50567876 5.11594107 -4 8 C-4.66 7.67 -5.32 7.34 -6 7 C-2.25 1.125 -2.25 1.125 0 0 Z " fill="#D99A46" transform="translate(898,308)"/>
<path d="M0 0 C3.82097239 0.53069061 6.06171403 1.49701566 9 4 C8.01 4.495 8.01 4.495 7 5 C4.5249829 3.88568235 2.32116581 2.41849022 0 1 C0 0.67 0 0.34 0 0 Z " fill="#FAEC7F" transform="translate(832,205)"/>
<path d="M0 0 C0.625 1.8125 0.625 1.8125 1 4 C0.01 5.485 0.01 5.485 -1 7 C-1.99 7 -2.98 7 -4 7 C-2.79618552 4.50638429 -1.54571278 2.31856917 0 0 Z " fill="#D98B2E" transform="translate(371,105)"/>
<path d="M0 0 C3.79588866 0.54226981 5.47211993 2.20127563 8 5 C6.68 5 5.36 5 4 5 C4 4.34 4 3.68 4 3 C2.68 2.67 1.36 2.34 0 2 C0 1.34 0 0.68 0 0 Z " fill="#D6892C" transform="translate(547,93)"/>
<path d="M0 0 C0.66 0.33 1.32 0.66 2 1 C-0.46153846 4.81538462 -0.46153846 4.81538462 -3.1875 5.75 C-3.785625 5.8325 -4.38375 5.915 -5 6 C-3.63016497 2.83884224 -3.0109362 2.0072908 0 0 Z " fill="#DB9336" transform="translate(411,66)"/>
<path d="M0 0 C0 3 0 3 0 3 Z " fill="#CF882D" transform="translate(201,906)"/>
<path d="M0 0 C0.33 0.66 0.66 1.32 1 2 C0.34 1.67 -0.32 1.34 -1 1 C-0.67 0.67 -0.34 0.34 0 0 Z " fill="#D38527" transform="translate(698,501)"/>
<path d="M0 0 C3 1 3 1 3 1 Z " fill="#D38829" transform="translate(717,160)"/>
<path d="" fill="#D18929" transform="translate(0,0)"/>
<path d="M0 0 C2 1 2 1 2 1 Z " fill="#D1892C" transform="translate(241,971)"/>
<path d="" fill="#CB842C" transform="translate(0,0)"/>
<path d="" fill="#CE8529" transform="translate(0,0)"/>
<path d="" fill="#CF882B" transform="translate(0,0)"/>
<path d="M0 0 C2 1 2 1 2 1 Z " fill="#D1862D" transform="translate(675,502)"/>
<path d="" fill="#D38C30" transform="translate(0,0)"/>
<path d="" fill="#D58524" transform="translate(0,0)"/>
<path d="M0 0 C2 1 2 1 2 1 Z " fill="#D28321" transform="translate(395,285)"/>
<path d="M0 0 C2 1 2 1 2 1 Z " fill="#D08224" transform="translate(369,269)"/>
<path d="" fill="#CE8428" transform="translate(0,0)"/>
<path d="M0 0 C2 1 2 1 2 1 Z " fill="#D3892B" transform="translate(604,97)"/>
<path d="" fill="#D98F2E" transform="translate(0,0)"/>
<path d="" fill="#533D20" transform="translate(0,0)"/>
<path d="" fill="#D18A2E" transform="translate(0,0)"/>
<path d="" fill="#D38C31" transform="translate(0,0)"/>
<path d="" fill="#554D3D" transform="translate(0,0)"/>
<path d="" fill="#D28728" transform="translate(0,0)"/>
<path d="" fill="#615949" transform="translate(0,0)"/>
<path d="" fill="#574F3E" transform="translate(0,0)"/>
<path d="" fill="#CA852C" transform="translate(0,0)"/>
<path d="" fill="#CE8528" transform="translate(0,0)"/>
<path d="" fill="#CB842A" transform="translate(0,0)"/>
<path d="" fill="#C9822A" transform="translate(0,0)"/>
<path d="" fill="#6C6656" transform="translate(0,0)"/>
<path d="" fill="#CE862D" transform="translate(0,0)"/>
<path d="" fill="#CE8328" transform="translate(0,0)"/>
<path d="" fill="#CE852C" transform="translate(0,0)"/>
<path d="" fill="#5C5544" transform="translate(0,0)"/>
<path d="" fill="#574D3D" transform="translate(0,0)"/>
<path d="" fill="#C98025" transform="translate(0,0)"/>
<path d="" fill="#CB832A" transform="translate(0,0)"/>
<path d="" fill="#CF8832" transform="translate(0,0)"/>
<path d="" fill="#D28226" transform="translate(0,0)"/>
<path d="" fill="#686051" transform="translate(0,0)"/>
<path d="" fill="#D08B2A" transform="translate(0,0)"/>
<path d="" fill="#D08326" transform="translate(0,0)"/>
<path d="" fill="#D18529" transform="translate(0,0)"/>
<path d="" fill="#3C3220" transform="translate(0,0)"/>
<path d="" fill="#423825" transform="translate(0,0)"/>
<path d="" fill="#3F2F14" transform="translate(0,0)"/>
<path d="" fill="#D1852A" transform="translate(0,0)"/>
<path d="" fill="#D38B2E" transform="translate(0,0)"/>
<path d="" fill="#D48B2F" transform="translate(0,0)"/>
<path d="" fill="#D3892A" transform="translate(0,0)"/>
<path d="" fill="#D18B2D" transform="translate(0,0)"/>
<path d="" fill="#D2882D" transform="translate(0,0)"/>
<path d="" fill="#D18A2D" transform="translate(0,0)"/>
<path d="" fill="#D0852A" transform="translate(0,0)"/>
<path d="" fill="#D18421" transform="translate(0,0)"/>
<path d="" fill="#D38623" transform="translate(0,0)"/>
<path d="" fill="#D38A2A" transform="translate(0,0)"/>
<path d="" fill="#D08625" transform="translate(0,0)"/>
<path d="" fill="#D28429" transform="translate(0,0)"/>
<path d="" fill="#D1892D" transform="translate(0,0)"/>
<path d="" fill="#594B34" transform="translate(0,0)"/>
<path d="" fill="#685F4E" transform="translate(0,0)"/>
<path d="" fill="#655748" transform="translate(0,0)"/>
<path d="" fill="#D2892B" transform="translate(0,0)"/>
<path d="" fill="#D38A2E" transform="translate(0,0)"/>
<path d="" fill="#D28729" transform="translate(0,0)"/>
<path d="" fill="#CE882C" transform="translate(0,0)"/>
<path d="" fill="#D38527" transform="translate(0,0)"/>
<path d="" fill="#CF8122" transform="translate(0,0)"/>
<path d="" fill="#D4872F" transform="translate(0,0)"/>
<path d="" fill="#D08528" transform="translate(0,0)"/>
<path d="" fill="#D28929" transform="translate(0,0)"/>
<path d="" fill="#D38B2F" transform="translate(0,0)"/>
<path d="" fill="#D1872A" transform="translate(0,0)"/>
<path d="" fill="#D08125" transform="translate(0,0)"/>
<path d="" fill="#CE882A" transform="translate(0,0)"/>
<path d="" fill="#D1882D" transform="translate(0,0)"/>
<path d="" fill="#CE862A" transform="translate(0,0)"/>
<path d="" fill="#CF872F" transform="translate(0,0)"/>
<path d="" fill="#D18628" transform="translate(0,0)"/>
<path d="" fill="#815A24" transform="translate(0,0)"/>
<path d="" fill="#D48B2B" transform="translate(0,0)"/>
<path d="" fill="#D18725" transform="translate(0,0)"/>
<path d="" fill="#D28628" transform="translate(0,0)"/>
<path d="" fill="#CD8C33" transform="translate(0,0)"/>
<path d="" fill="#D18E31" transform="translate(0,0)"/>
<path d="" fill="#493B26" transform="translate(0,0)"/>
<path d="" fill="#D18628" transform="translate(0,0)"/>
<path d="" fill="#D08A34" transform="translate(0,0)"/>
<path d="" fill="#493B24" transform="translate(0,0)"/>
<path d="" fill="#D48329" transform="translate(0,0)"/>
<path d="" fill="#D38524" transform="translate(0,0)"/>
<path d="" fill="#D3862A" transform="translate(0,0)"/>
<path d="" fill="#D3882B" transform="translate(0,0)"/>
<path d="" fill="#D38627" transform="translate(0,0)"/>
<path d="" fill="#D58729" transform="translate(0,0)"/>
<path d="" fill="#D28426" transform="translate(0,0)"/>
<path d="" fill="#D48729" transform="translate(0,0)"/>
<path d="" fill="#D38626" transform="translate(0,0)"/>
<path d="" fill="#D3923D" transform="translate(0,0)"/>
<path d="" fill="#504531" transform="translate(0,0)"/>
<path d="" fill="#D58826" transform="translate(0,0)"/>
<path d="" fill="#6C4B1F" transform="translate(0,0)"/>
<path d="" fill="#D49236" transform="translate(0,0)"/>
<path d="" fill="#D68529" transform="translate(0,0)"/>
<path d="" fill="#D68727" transform="translate(0,0)"/>
<path d="" fill="#D28627" transform="translate(0,0)"/>
<path d="" fill="#D48627" transform="translate(0,0)"/>
<path d="" fill="#D48729" transform="translate(0,0)"/>
<path d="" fill="#D28727" transform="translate(0,0)"/>
<path d="" fill="#CD8E35" transform="translate(0,0)"/>
<path d="" fill="#CD8E33" transform="translate(0,0)"/>
<path d="" fill="#CF8226" transform="translate(0,0)"/>
<path d="" fill="#50422F" transform="translate(0,0)"/>
<path d="" fill="#D18327" transform="translate(0,0)"/>
<path d="" fill="#CE8225" transform="translate(0,0)"/>
<path d="" fill="#D08C32" transform="translate(0,0)"/>
<path d="" fill="#CD8A2E" transform="translate(0,0)"/>
<path d="" fill="#CD8527" transform="translate(0,0)"/>
<path d="" fill="#CC8529" transform="translate(0,0)"/>
<path d="" fill="#514636" transform="translate(0,0)"/>
<path d="" fill="#CD8327" transform="translate(0,0)"/>
<path d="" fill="#CD862A" transform="translate(0,0)"/>
<path d="" fill="#CC8529" transform="translate(0,0)"/>
<path d="" fill="#CD872A" transform="translate(0,0)"/>
<path d="" fill="#CD862B" transform="translate(0,0)"/>
<path d="" fill="#C9882C" transform="translate(0,0)"/>
<path d="" fill="#CE8424" transform="translate(0,0)"/>
<path d="" fill="#CE8524" transform="translate(0,0)"/>
<path d="" fill="#CD8327" transform="translate(0,0)"/>
<path d="" fill="#CE8221" transform="translate(0,0)"/>
<path d="" fill="#D0872B" transform="translate(0,0)"/>
<path d="" fill="#D1862B" transform="translate(0,0)"/>
<path d="" fill="#D08422" transform="translate(0,0)"/>
<path d="" fill="#D2892F" transform="translate(0,0)"/>
<path d="" fill="#D2882A" transform="translate(0,0)"/>
<path d="" fill="#D18725" transform="translate(0,0)"/>
<path d="" fill="#CF892A" transform="translate(0,0)"/>
<path d="" fill="#D18826" transform="translate(0,0)"/>
<path d="" fill="#D48726" transform="translate(0,0)"/>
<path d="" fill="#D78825" transform="translate(0,0)"/>
<path d="" fill="#775527" transform="translate(0,0)"/>
<path d="" fill="#D28C2D" transform="translate(0,0)"/>
<path d="" fill="#645135" transform="translate(0,0)"/>
<path d="" fill="#D58D2D" transform="translate(0,0)"/>
<path d="" fill="#D98C2A" transform="translate(0,0)"/>
<path d="" fill="#D98C2B" transform="translate(0,0)"/>
<path d="" fill="#D58F30" transform="translate(0,0)"/>
<path d="" fill="#D68E2C" transform="translate(0,0)"/>
<path d="" fill="#D78D2E" transform="translate(0,0)"/>
<path d="" fill="#D48B2C" transform="translate(0,0)"/>
<path d="" fill="#584D3E" transform="translate(0,0)"/>
<path d="" fill="#DD9841" transform="translate(0,0)"/>
<path d="" fill="#D88F2E" transform="translate(0,0)"/>
<path d="" fill="#6C6255" transform="translate(0,0)"/>
</svg>
